<?xml version="1.0" standalone="no"?>
<!DOCTYPE svg PUBLIC "-//W3C//DTD SVG 1.1//EN" "http://www.w3.org/Graphics/SVG/1.1/DTD/svg11.dtd" >
<svg xmlns="http://www.w3.org/2000/svg" xmlns:xlink="http://www.w3.org/1999/xlink" version="1.1">
<metadata>
Created by FontForge 20170731 at Sat Feb 11 17:10:22 2017
 By ,,,
</metadata>
<defs>
<font id="Vision-BoldItalic" horiz-adv-x="512" >
  <font-face 
    font-family="Vision"
    font-weight="700"
    font-style="italic"
    font-stretch="normal"
    units-per-em="1000"
    panose-1="0 0 0 0 0 0 0 0 0 0"
    ascent="800"
    descent="-200"
    x-height="519"
    cap-height="612"
    bbox="-105 -289 1040 903"
    underline-thickness="50"
    underline-position="-200"
    unicode-range="U+000D-FB04"
  />
<missing-glyph horiz-adv-x="314" 
 />
    <glyph glyph-name="f_f" unicode="ff" horiz-adv-x="681" 
d="M610 716q75 -2 108 -33l-45 -74q-21 12 -47 12q-41 0 -71.5 -30t-36.5 -72h150l-14 -97h-151l-84 -603h-108l83 603h-65h-10h-142l-83 -603h-109l84 603h-76l14 97h76q11 80 67.5 138.5t134.5 58.5q73 -2 108 -33l-45 -74q-22 12 -48 12q-42 0 -72 -30t-35 -72h139h10h66
q11 80 67.5 138.5t134.5 58.5z" />
    <glyph glyph-name="f_i" unicode="fi" horiz-adv-x="519" 
d="M519 519l-72 -519h-112l60 422h-151l-83 -602h-109l84 602h-76l14 97h75q12 80 69.5 137t136.5 57q69 0 104 -30l-45 -74q-24 12 -46 12q-44 0 -73.5 -29t-35.5 -73h260z" />
    <glyph glyph-name="f_l" unicode="fl" horiz-adv-x="607" 
d="M415 609q-21 12 -47 12q-41 0 -71.5 -30t-36.5 -72h142zM353 138q0 31 5 68l31 216h-144l-84 -603h-108l84 603h-76l14 97h75q12 80 68 138.5t135 58.5q45 -1 80 -16h109l-69 -491q-4 -34 -4 -51q0 -65 45 -65q28 0 51 15l28 -86q-50 -32 -118 -32q-122 0 -122 148z" />
    <glyph glyph-name="f_f_l" unicode="ffl" horiz-adv-x="915" 
d="M704 609q-23 12 -48 12q-42 0 -72 -30t-35 -72h142zM643 142q0 31 5 68l30 212h-145l-83 -603h-109l84 603h-66h-10h-141l-84 -603h-109l84 603h-75l13 97h76q11 80 67.5 138.5t134.5 58.5q75 -2 108 -33l-45 -74q-21 12 -47 12q-41 0 -71.5 -30t-36.5 -72h140h10h66
q11 80 67.5 138.5t134.5 58.5q42 -1 76 -14v2h114l-68 -491q-4 -23 -4 -51q0 -65 44 -65q28 0 51 15l28 -86q-50 -32 -118 -32q-121 0 -121 148z" />
    <glyph glyph-name="f_f_j" unicode="ffj" horiz-adv-x="863" 
d="M731 422h-150l-70 -497q19 -19 65 -19q14 0 26.5 5t22 16.5t16.5 21t13 29.5t9.5 29t7.5 32t5 27.5t4 25.5zM591 -191q-55 0 -94 18l-1 -8h-109l85 603h-75h-151l-85 -603h-109l85 603h-76l14 97h76q11 80 67.5 138.5t134.5 58.5q75 -2 108 -33l-45 -74q-24 12 -52 12
q-43 0 -70 -29t-33 -73h149h1h75q11 80 67.5 138.5t134.5 58.5q72 0 108 -33l-45 -74q-24 12 -52 12q-43 0 -70 -29t-33 -73h150h113l-58 -415q-7 -50 -20 -95.5t-36 -93.5t-63 -77t-91 -29z" />
    <glyph glyph-name="f_f_t" unicode="fft" horiz-adv-x="996" 
d="M718 130q0 22 3 43l35 248h-75v1h-148l-83 -603h-109l84 603h-66h-10h-141l-84 -603h-109l84 603h-75l13 97h76q11 80 67.5 138.5t134.5 58.5q75 -2 108 -33l-45 -74q-21 12 -47 12q-41 0 -71.5 -30t-36.5 -72h140h10h66q11 80 67.5 138.5t134.5 58.5q73 -2 108 -33
l-45 -74q-22 12 -48 12q-42 0 -72 -30t-35 -72h145h4h72l19 135h108l-18 -135h148l-13 -98h-149l-30 -212q-4 -36 -4 -55q0 -61 46 -61q22 0 50 18l25 -85q-56 -36 -112 -36q-60 0 -91 39t-31 101z" />
    <glyph glyph-name="f_j" unicode="fj" horiz-adv-x="526" 
d="M175 -77q27 -16 67 -16q14 0 26 4.5t21 14t16.5 18.5t13 25t9 27t7 30t5 28t4 27.5t3.5 22.5l45 318h-146zM349 716q30 0 62.5 -9t49.5 -26l-42 -68q-23 20 -61 20q-75 0 -97 -114h145h5h108l-58 -415q-5 -39 -13.5 -75t-25.5 -78t-39 -72t-56 -50t-75 -20q-52 0 -91 16
l-1 -7h-109l86 604h-76l14 97h76q14 83 66 140t132 57z" />
    <glyph glyph-name="f_t" unicode="ft" horiz-adv-x="709" 
d="M440 130q0 22 3 43l35 248h-76v1h-147l-84 -603h-108l83 603h-75l13 97h76q11 80 67.5 138.5t134.5 58.5q75 -2 108 -33l-45 -74q-21 12 -47 12q-41 0 -71.5 -30t-36.5 -72h146h4h71l19 135h109l-19 -135h149l-14 -98h-148l-30 -212q-5 -45 -5 -55q0 -61 46 -61
q24 0 50 18l26 -85q-58 -36 -112 -36q-60 0 -91 39t-31 101z" />
    <glyph glyph-name="t_f" unicode="tf" horiz-adv-x="758" 
d="M676 716q75 -2 108 -33l-45 -74q-21 12 -47 12q-42 0 -72 -30t-36 -72h150l-14 -97h-151l-84 -603h-109l84 603h-75l13 97l-14 -97h-148l-30 -213q-5 -45 -5 -54q0 -61 46 -61q25 0 50 17l26 -85q-56 -36 -112 -36q-60 0 -91 39.5t-31 101.5q0 21 3 43l35 248h-76l14 97
h75l19 136h109l-19 -136h149h76q11 80 67.5 138.5t134.5 58.5z" />
    <glyph glyph-name=".notdef" horiz-adv-x="314" 
 />
    <glyph glyph-name=".null" horiz-adv-x="0" 
 />
    <glyph glyph-name="nonmarkingreturn" horiz-adv-x="333" 
 />
    <glyph glyph-name="NULL" horiz-adv-x="0" 
 />
    <glyph glyph-name="NULL" horiz-adv-x="0" 
 />
    <glyph glyph-name="CR" unicode="&#xd;" horiz-adv-x="250" 
 />
    <glyph glyph-name="space" unicode=" " horiz-adv-x="256" 
 />
    <glyph glyph-name="exclam" unicode="!" horiz-adv-x="269" 
d="M124 726h168l-112 -535h-95zM184 66q0 -31 -24.5 -53.5t-55.5 -22.5q-25 0 -43 16t-18 42q0 30 24.5 53t55.5 23q25 0 43 -16.5t18 -41.5z" />
    <glyph glyph-name="quotedbl" unicode="&#x22;" horiz-adv-x="292" 
d="M47 651h96l-50 -211h-54zM200 651h95l-51 -211h-53z" />
    <glyph glyph-name="numbersign" unicode="#" horiz-adv-x="707" 
d="M501 146l-45 -147h-120l44 147h-125l-44 -147h-121l45 147h-97l37 96h89l38 124h-95l37 97h88l45 149h121l-46 -149h125l46 149h120l-45 -149h96l-36 -97h-90l-38 -124h95l-37 -96h-87zM414 236l42 136h-137l-42 -136h137z" />
    <glyph glyph-name="dollar" unicode="$" horiz-adv-x="541" 
d="M492 216q0 -84 -60 -146t-145 -77l-11 -77h-72l10 73q-47 2 -98 18.5t-84 43.5l64 105q21 -18 70.5 -37t76.5 -19q44 0 82 23t38 64q0 27 -25 46t-60.5 32.5t-71.5 30t-61 47.5t-25 75q0 78 51.5 131t130.5 66l11 79h72l-10 -75q43 -2 88 -16t69 -39l-50 -89
q-18 17 -55.5 28.5t-65.5 11.5q-42 0 -80.5 -19.5t-38.5 -57.5q0 -26 26 -43.5t62.5 -30t73 -27.5t62.5 -45.5t26 -75.5z" />
    <glyph glyph-name="percent" unicode="%" horiz-adv-x="691" 
d="M208 623q54 0 81.5 -38t27.5 -94q0 -73 -42.5 -133.5t-112.5 -60.5q-55 0 -83 37.5t-28 93.5q0 73 43.5 134t113.5 61zM173 375q31 0 48 35t17 70q0 25 -9.5 45t-32.5 20q-31 0 -48 -36t-17 -71q0 -63 42 -63zM593 612l-353 -612h-103l353 612h103zM569 317
q54 0 81.5 -38t27.5 -94q0 -73 -42.5 -133.5t-112.5 -60.5q-55 0 -82.5 37t-27.5 94q0 73 43 134t113 61zM534 69q31 0 48 35t17 70q0 25 -9.5 45t-31.5 20q-31 0 -48 -36t-17 -71q0 -63 41 -63z" />
    <glyph glyph-name="ampersand" unicode="&#x26;" horiz-adv-x="636" 
d="M51 161q0 73 49.5 135t121.5 90q-16 43 -16 75q0 76 63.5 118.5t143.5 42.5q77 0 115 -32l-48 -76q-23 19 -70 19q-33 0 -58.5 -21t-25.5 -54q0 -59 128 -246q44 63 55 147h97q-18 -132 -94 -226q59 -78 105 -133h-146q-8 10 -23.5 29t-23.5 28q-84 -61 -179 -61
q-78 0 -136 44.5t-58 120.5zM258 306q-42 -15 -72 -49t-30 -74t30.5 -66t71.5 -26q54 0 110 42q-73 101 -110 173z" />
    <glyph glyph-name="quotesingle" unicode="'" horiz-adv-x="183" 
d="M72 650h118l-56 -211h-66z" />
    <glyph glyph-name="parenleft" unicode="(" horiz-adv-x="346" 
d="M297 -130q-13 -16 -41 -48t-41 -48q-94 76 -143 184t-49 231q0 176 91 332.5t242 256.5q11 -18 30.5 -52t25.5 -43q-123 -81 -196 -208.5t-73 -271.5q0 -99 39.5 -185.5t114.5 -147.5z" />
    <glyph glyph-name="parenright" unicode=")" horiz-adv-x="327" 
d="M-66 -128q122 80 195 208.5t73 271.5q0 99 -39.5 185.5t-114.5 147.5l83 96q94 -76 142.5 -183.5t48.5 -231.5q0 -176 -90.5 -333t-241.5 -257z" />
    <glyph glyph-name="asterisk" unicode="*" horiz-adv-x="413" 
d="M303 429l82 -62l-50 -61l-79 60l-17 -117h-74l16 117l-96 -60l-34 61l101 62l-83 64l51 60l79 -60l16 115h75l-16 -115l95 60l34 -60z" />
    <glyph glyph-name="plus" unicode="+" horiz-adv-x="431" 
d="M440 341l-15 -105h-140l-21 -147h-118l21 147h-141l15 105h141l20 147h118l-21 -147h141z" />
    <glyph glyph-name="comma" unicode="," horiz-adv-x="247" 
d="M57 63q0 38 30.5 64.5t69.5 26.5q35 0 52.5 -25t17.5 -61q0 -52 -39.5 -111.5t-87.5 -74.5l-28 57q45 20 56 58q-32 -2 -51.5 16t-19.5 50z" />
    <glyph glyph-name="hyphen" unicode="-" horiz-adv-x="511" 
d="M465 337l-15 -105h-399l15 105h399z" />
    <glyph glyph-name="period" unicode="." horiz-adv-x="245" 
d="M214 82q0 -37 -27.5 -64.5t-64.5 -27.5q-30 0 -50 19.5t-20 49.5q0 37 28 64.5t65 27.5q30 0 49.5 -19.5t19.5 -49.5z" />
    <glyph glyph-name="slash" unicode="/" horiz-adv-x="461" 
d="M460 675l-349 -716h-103l349 716h103z" />
    <glyph glyph-name="zero" unicode="0" horiz-adv-x="576" 
d="M349 622q99 0 153 -73t54 -176q0 -90 -32 -175t-101.5 -146.5t-162.5 -61.5q-100 0 -154.5 72t-54.5 176q0 65 20 131.5t56 123.5t94 93t128 36zM334 517q-44 0 -78.5 -28t-53 -71t-28 -87.5t-9.5 -84.5q0 -64 25.5 -108.5t84.5 -44.5q45 0 79 27.5t52.5 70t27.5 86.5
t9 85q0 40 -8.5 72.5t-34.5 57.5t-66 25z" />
    <glyph glyph-name="one" unicode="1" horiz-adv-x="288" 
d="M190 612h103l-86 -612h-118l70 495l-107 -41l-13 96z" />
    <glyph glyph-name="two" unicode="2" horiz-adv-x="519" 
d="M505 482q0 -47 -26 -90.5t-65.5 -78.5t-80.5 -67t-76.5 -68.5t-47.5 -70.5h259l-16 -107h-413q2 16 8 56q7 49 44.5 98t84.5 86.5t93.5 72t78 69t31.5 64.5q0 37 -27.5 54.5t-66.5 17.5q-60 0 -136 -49l-28 85q87 65 200 65q48 0 87.5 -12.5t68 -44.5t28.5 -80z" />
    <glyph glyph-name="three" unicode="3" horiz-adv-x="510" 
d="M214 96q55 0 98.5 26.5t43.5 78.5q0 14 -4 25t-13.5 19t-18.5 13.5t-24.5 9t-25.5 5.5t-28.5 3t-26.5 1h-26h-21l13 88l168 148h-218l14 99h352l-14 -99l-147 -137q61 0 101 -45.5t40 -107.5q0 -104 -76.5 -168.5t-182.5 -64.5q-45 0 -95 17t-84 46l49 86q61 -43 126 -43
z" />
    <glyph glyph-name="four" unicode="4" horiz-adv-x="546" 
d="M490 612l-52 -364h94l-14 -99h-93l-21 -149h-118l21 149h-268l12 85l293 378h146zM354 486l-182 -238h149z" />
    <glyph glyph-name="five" unicode="5" horiz-adv-x="496" 
d="M230 99q49 -1 88 33.5t39 83.5q0 22 -9 38.5t-27 25.5t-36 15t-45 7.5t-44.5 2t-43.5 -0.5t-34 -1l54 309h315l-14 -99h-224l-18 -112q53 2 91 -2.5t77 -20t59.5 -50.5t20.5 -89q0 -104 -75 -176.5t-180 -72.5q-44 0 -95 16.5t-87 42.5l54 97q65 -47 134 -47z" />
    <glyph glyph-name="six" unicode="6" horiz-adv-x="480" 
d="M466 223q0 -100 -67 -166.5t-167 -66.5q-78 0 -129.5 43.5t-51.5 121.5q0 47 22 100.5t39.5 79.5t59.5 86l136 191h117l-160 -239q15 7 34 7q75 0 121 -41.5t46 -115.5zM244 81q50 0 83 37.5t33 87.5q0 40 -23 66t-62 26q-50 0 -83.5 -39t-33.5 -89q0 -39 23.5 -64
t62.5 -25z" />
    <glyph glyph-name="seven" unicode="7" horiz-adv-x="453" 
d="M461 612l-14 -96l-296 -516h-124l299 511h-249l14 101h370z" />
    <glyph glyph-name="eight" unicode="8" horiz-adv-x="492" 
d="M321 625q63 0 107 -36.5t44 -97.5q0 -45 -22 -84.5t-60 -63.5q76 -43 76 -135q0 -94 -69.5 -156.5t-164.5 -62.5q-76 0 -128.5 43.5t-52.5 117.5q0 62 34 114t91 79q-49 38 -49 102q0 77 58 128.5t136 51.5zM309 534q-34 0 -59.5 -26.5t-25.5 -60.5q0 -28 18 -46t46 -18
q34 0 60 25.5t26 60.5q0 29 -18 47t-47 18zM274 283q-42 0 -76 -35.5t-34 -77.5q0 -36 23 -58.5t59 -22.5q45 0 78 31.5t33 76.5q0 36 -23.5 61t-59.5 25z" />
    <glyph glyph-name="nine" unicode="9" horiz-adv-x="487" 
d="M51 392q0 98 68 164t167 66q78 0 129 -43.5t51 -120.5q0 -36 -9 -70t-33 -75.5t-34 -56.5t-45 -64l-134 -192h-123l160 239q-17 -7 -36 -7q-71 0 -116 44.5t-45 115.5zM273 531q-50 0 -82.5 -37.5t-32.5 -87.5q0 -40 22.5 -65.5t62.5 -25.5q50 0 83 38.5t33 88.5
q0 40 -23.5 64.5t-62.5 24.5z" />
    <glyph glyph-name="colon" unicode=":" horiz-adv-x="288" 
d="M222 82q0 -37 -28 -64.5t-64 -27.5q-30 0 -50 19.5t-20 49.5q0 37 28 64.5t64 27.5q30 0 50 -19.5t20 -49.5zM269 417q0 -37 -28 -64.5t-64 -27.5q-30 0 -50 19.5t-20 49.5q0 36 28 63.5t64 27.5q30 0 50 -19t20 -49z" />
    <glyph glyph-name="semicolon" unicode=";" horiz-adv-x="287" 
d="M163 129q31 -4 47.5 -28t16.5 -56q0 -51 -39.5 -110t-87.5 -74l-28 57q45 20 56 58q-32 -2 -52 15.5t-20 49.5q0 34 27 63t61 29q11 0 19 -4zM267 417q0 -37 -27.5 -64.5t-64.5 -27.5q-30 0 -50 19.5t-20 49.5q0 37 28 64t65 27q30 0 49.5 -19t19.5 -49z" />
    <glyph glyph-name="less" unicode="&#x3c;" horiz-adv-x="443" 
d="M429 552l-16 -114l-244 -104l215 -104l-16 -114l-329 173l12 90z" />
    <glyph glyph-name="equal" unicode="=" horiz-adv-x="484" 
d="M481 482l-15 -105h-399l15 105h399zM452 274l-14 -104h-399l14 104h399z" />
    <glyph glyph-name="greater" unicode="&#x3e;" horiz-adv-x="449" 
d="M103 562l331 -182l-12 -90l-383 -183l16 115l245 113l-213 113z" />
    <glyph glyph-name="question" unicode="?" horiz-adv-x="416" 
d="M179 66q0 -31 -24 -53.5t-55 -22.5q-25 0 -43 16t-18 42q0 30 24.5 53t54.5 23q26 0 43.5 -16.5t17.5 -41.5zM246 715q73 0 121 -37t48 -108q0 -13 -4 -37q-24 -126 -149 -175q-36 -14 -61 -14l-21 -147h-100l31 224h59q47 3 83.5 36.5t36.5 80.5q0 36 -27 56t-64 20
q-22 0 -54 -10.5t-53 -23.5l-20 88q27 21 80.5 34t93.5 13z" />
    <glyph glyph-name="at" unicode="@" horiz-adv-x="803" 
d="M399 466q31 0 62.5 -12.5t47.5 -34.5l5 37h99q-1 -8 -12.5 -79t-17 -117t-5.5 -81q0 -58 39 -58q28 0 52 27.5t38.5 66.5t22.5 76.5t8 61.5q0 113 -81.5 178t-197.5 65q-144 0 -253.5 -108t-109.5 -252q0 -117 78 -193.5t196 -76.5q65 0 153 37l13 -41q-80 -41 -172 -41
q-136 0 -224.5 86.5t-88.5 220.5q0 167 123.5 289.5t290.5 122.5q134 0 225.5 -74.5t91.5 -205.5q0 -61 -21.5 -125t-70 -114t-111.5 -50q-28 0 -56.5 16t-39.5 41q-49 -56 -138 -56q-66 0 -105.5 50t-39.5 118q0 89 56 157.5t143 68.5zM414 382q-53 -1 -85.5 -38t-32.5 -90
q0 -41 24 -68t64 -27q39 0 66.5 21t33.5 58q0 4 5 35t5 48q0 29 -25 45t-55 16z" />
    <glyph glyph-name="A" unicode="A" horiz-adv-x="578" 
d="M282 612h163l104 -612h-119l-28 147h-206l-70 -147h-119zM348 497l-109 -243h150z" />
    <glyph glyph-name="B" unicode="B" horiz-adv-x="551" 
d="M513 474q0 -79 -67 -139q39 -15 59.5 -48t20.5 -76q0 -86 -58 -144t-145 -65q-15 -2 -46 -2h-235l86 612h227q68 0 113 -36t45 -102zM301 372q43 0 71 22.5t28 65.5q0 29 -19.5 44.5t-49.5 15.5h-98l-21 -148h89zM307 94q39 0 68 32.5t29 71.5q0 32 -20 54.5t-52 22.5
h-134l-25 -181h134z" />
    <glyph glyph-name="C" unicode="C" horiz-adv-x="587" 
d="M395 623q46 0 99 -17.5t81 -47.5l-61 -99q-21 22 -57.5 36t-68.5 14q-94 0 -156 -71t-62 -166q0 -75 43.5 -121t117.5 -46q33 0 74 14.5t66 35.5l34 -100q-35 -29 -92.5 -46.5t-106.5 -17.5q-114 0 -186.5 73.5t-72.5 187.5q0 97 44.5 182t125 137t178.5 52z" />
    <glyph glyph-name="D" unicode="D" horiz-adv-x="591" 
d="M576 371q0 -97 -41.5 -181.5t-120 -137t-176.5 -52.5h-196l86 612h196q117 0 184.5 -62.5t67.5 -178.5zM237 112q12 0 38 2q78 8 125 80t47 155q0 151 -155 151h-62l-55 -388h62z" />
    <glyph glyph-name="E" unicode="E" horiz-adv-x="559" 
d="M211 366h240l-14 -100h-240l-22 -154h302l-16 -112h-419l86 612h419l-15 -112h-302z" />
    <glyph glyph-name="F" unicode="F" horiz-adv-x="540" 
d="M211 368h223l-16 -112h-223l-36 -256h-117l86 612h419l-15 -112h-302z" />
    <glyph glyph-name="G" unicode="G" horiz-adv-x="615" 
d="M357 104q41 0 69 24l27 187h116l-35 -251q-22 -30 -96 -52t-120 -22q-120 0 -195.5 72.5t-75.5 191.5q0 150 105 259t254 109q54 0 110 -17t88 -50l-62 -99q-20 22 -59 37t-70 15q-97 0 -167 -70t-70 -167q0 -80 49.5 -123.5t131.5 -43.5z" />
    <glyph glyph-name="H" unicode="H" horiz-adv-x="612" 
d="M213 382h238l32 230h118l-86 -612h-118l38 270h-238l-38 -270h-117l86 612h117z" />
    <glyph glyph-name="I" unicode="I" horiz-adv-x="257" 
d="M246 612l-86 -612h-118l86 612h118z" />
    <glyph glyph-name="J" unicode="J" horiz-adv-x="465" 
d="M181 109q85 0 102 120l53 382h118l-44 -309q-6 -43 -11.5 -72.5t-16.5 -70t-27 -67.5t-39.5 -52.5t-57.5 -38t-77 -12.5q-96 0 -156 59l64 101q16 -17 42.5 -28.5t49.5 -11.5z" />
    <glyph glyph-name="K" unicode="K" horiz-adv-x="558" 
d="M578 612l-262 -272l204 -340h-141l-178 292l-41 -292h-118l86 612h118l-31 -222l226 222h137z" />
    <glyph glyph-name="L" unicode="L" horiz-adv-x="375" 
d="M175 112h189l-16 -112h-306l86 612h117z" />
    <glyph glyph-name="M" unicode="M" horiz-adv-x="746" 
d="M399 380l226 232h110l-86 -612h-118l62 444l-217 -229l-154 227l-62 -442h-118l86 612h110z" />
    <glyph glyph-name="N" unicode="N" horiz-adv-x="612" 
d="M247 612l180 -400l56 400h118l-86 -612h-120l-181 392l-55 -392h-117l86 612h119z" />
    <glyph glyph-name="O" unicode="O" horiz-adv-x="633" 
d="M377 622q110 0 175.5 -72t65.5 -184q0 -97 -39 -181.5t-115.5 -139.5t-174.5 -55q-111 0 -176.5 71t-65.5 184q0 95 39.5 180.5t116.5 141t174 55.5zM363 517q-48 0 -85.5 -25.5t-58.5 -66t-32 -85t-11 -88.5q0 -69 30.5 -114t96.5 -45q48 0 85.5 25t58.5 65.5t31.5 84.5
t10.5 89q0 69 -30 114.5t-96 45.5z" />
    <glyph glyph-name="P" unicode="P" horiz-adv-x="561" 
d="M550 439q0 -87 -65 -160.5t-150 -73.5h-146l-29 -205h-118l86 612h264q71 0 114.5 -50.5t43.5 -122.5zM338 317q40 0 69 32t29 72q0 32 -20.5 55.5t-51.5 23.5h-134l-26 -183h134z" />
    <glyph glyph-name="Q" unicode="Q" horiz-adv-x="632" 
d="M377 621q110 0 175.5 -72.5t65.5 -183.5q0 -109 -50.5 -205.5t-143.5 -139.5l104 -140h-146l-82 112q-115 -11 -184 61.5t-69 188.5q0 96 39 182t116 141.5t175 55.5zM363 516q-62 0 -107 -44.5t-63 -102.5t-18 -118q0 -69 31 -114t97 -45q63 0 107 43.5t61.5 101
t17.5 118.5q0 70 -30 115.5t-96 45.5z" />
    <glyph glyph-name="R" unicode="R" horiz-adv-x="570" 
d="M552 456q0 -64 -38 -120.5t-98 -74.5l115 -261h-137l-99 243h-102l-34 -243h-117l86 612h266q70 0 114 -43t44 -113zM342 340q38 0 66 30.5t28 68.5q0 31 -20 52.5t-50 21.5h-135l-24 -173h135z" />
    <glyph glyph-name="S" unicode="S" horiz-adv-x="541" 
d="M492 218q0 -97 -77 -162.5t-176 -65.5q-54 0 -112.5 16t-94.5 47l64 104q22 -18 71.5 -37t75.5 -19q46 0 81.5 22.5t38.5 65.5q2 22 -15.5 39t-44.5 27t-59 24.5t-59.5 30t-46 44t-18.5 65.5q0 97 70.5 149.5t171.5 52.5q118 0 170 -56l-50 -88q-18 17 -55.5 28.5
t-65.5 11.5q-44 0 -81.5 -20.5t-37.5 -60.5q0 -23 26 -40t62.5 -29t73 -28t62.5 -46.5t26 -74.5z" />
    <glyph glyph-name="T" unicode="T" horiz-adv-x="577" 
d="M267 503h-188l15 109h494l-15 -109h-188l-71 -503h-118z" />
    <glyph glyph-name="U" unicode="U" horiz-adv-x="582" 
d="M252 -10q-93 0 -147 51.5t-54 144.5q0 14 4 44l53 382h116l-54 -382q-2 -16 -2 -23q0 -46 27 -75.5t73 -29.5q52 0 89 37t44 91l54 382h115l-53 -382q-15 -106 -87 -173t-178 -67z" />
    <glyph glyph-name="V" unicode="V" horiz-adv-x="582" 
d="M484 612h132l-290 -612h-135l-118 612h131l80 -431z" />
    <glyph glyph-name="W" unicode="W" horiz-adv-x="1006" 
d="M910 612h129l-289 -612h-136l-87 410l-201 -410h-135l-118 612h129l83 -426l207 420h126l91 -420z" />
    <glyph glyph-name="X" unicode="X" horiz-adv-x="653" 
d="M525 612h120l-216 -289l148 -323h-120l-121 234l-187 -234h-121l239 323l-132 289h120l104 -213z" />
    <glyph glyph-name="Y" unicode="Y" horiz-adv-x="559" 
d="M473 612h119l-257 -342l-37 -270h-118l38 270l-161 342h120l115 -236z" />
    <glyph glyph-name="Z" unicode="Z" horiz-adv-x="602" 
d="M591 612l-15 -109l-362 -395h306l-15 -108h-463l15 108l366 395h-295l15 109h448z" />
    <glyph glyph-name="bracketleft" unicode="[" horiz-adv-x="297" 
d="M154 824h214l-15 -106h-96l-111 -786h97l-15 -106h-214z" />
    <glyph glyph-name="backslash" unicode="\" horiz-adv-x="321" 
d="M23 712h119l168 -821h-119z" />
    <glyph glyph-name="bracketright" unicode="]" horiz-adv-x="297" 
d="M103 796h214l-140 -997h-214l15 106h96l111 785h-97z" />
    <glyph glyph-name="asciicircum" unicode="^" horiz-adv-x="396" 
d="M39 347l160 331h115l67 -331h-100l-39 232l-104 -232h-99z" />
    <glyph glyph-name="underscore" unicode="_" horiz-adv-x="641" 
d="M627 -55l-14 -105h-574l14 105h574z" />
    <glyph glyph-name="grave" unicode="`" horiz-adv-x="372" 
d="M318 743l31 -126h-93l-53 126h115z" />
    <glyph glyph-name="a" unicode="a" horiz-adv-x="589" 
d="M568 82l-37 -92q-92 0 -131 80q-69 -80 -172 -80q-84 0 -129.5 66.5t-45.5 154.5q0 55 17 111t48 103.5t80.5 77t108.5 29.5q38 0 76 -17t53 -49l7 52h120l-37 -259q-9 -61 -9 -102q0 -35 10 -55.5t41 -19.5zM282 104q31 0 69 19.5t44 47.5q13 63 25 176l1 4
q0 31 -31.5 51t-64.5 20q-68 0 -109 -61t-41 -132q0 -55 27 -90t80 -35z" />
    <glyph glyph-name="b" unicode="b" horiz-adv-x="555" 
d="M539 315q0 -75 -31.5 -148.5t-94 -125t-139.5 -51.5q-41 0 -65.5 11.5t-55.5 41.5l-6 -43h-108l98 700h109l-31 -219q23 23 63.5 35.5t76.5 12.5q88 0 136 -61.5t48 -152.5zM258 100q72 0 117.5 60t45.5 134q0 56 -31 94t-86 38q-26 0 -57.5 -13.5t-45.5 -32.5l-33 -233
q14 -21 39 -34t51 -13z" />
    <glyph glyph-name="c" unicode="c" horiz-adv-x="529" 
d="M53 213q0 128 84 222t210 94q47 0 95 -19.5t72 -54.5l-52 -78q-16 22 -48 34.5t-63 12.5q-71 0 -126 -57t-55 -129q0 -59 35.5 -98.5t93.5 -39.5q33 0 69.5 13.5t61.5 35.5l30 -79q-36 -35 -90.5 -57.5t-103.5 -22.5q-95 0 -154 63.5t-59 159.5z" />
    <glyph glyph-name="d" unicode="d" horiz-adv-x="592" 
d="M53 213q0 129 74 223.5t199 94.5q31 0 64 -13.5t48 -35.5l31 218h109l-99 -700h-108l6 43q-36 -28 -65 -40.5t-71 -12.5q-87 0 -137.5 67t-50.5 156zM333 419q-70 0 -112 -60t-42 -133q0 -56 27.5 -94t81.5 -38q59 0 103 49l32 230q-8 20 -36.5 33t-53.5 13z" />
    <glyph glyph-name="e" unicode="e" horiz-adv-x="510" 
d="M174 245v-9q0 -146 111 -146q36 0 75.5 17t65.5 43l29 -84q-33 -35 -88 -55.5t-106 -20.5q-96 0 -152 59.5t-56 156.5q0 81 34 154.5t99.5 121.5t147.5 48q70 0 115.5 -40t45.5 -109q0 -79 -64 -121t-148 -42q-66 0 -109 27zM317 436q-86 0 -125 -112q26 -19 80 -19
q45 0 79.5 17t34.5 57q0 27 -20.5 42t-48.5 15z" />
    <glyph glyph-name="f" unicode="f" horiz-adv-x="399" 
d="M353 716q73 -2 108 -33l-46 -74q-21 12 -47 12q-41 0 -71.5 -30t-36.5 -72h150l-14 -97h-151l-84 -603h-108l84 603h-76l14 97h75q12 80 68 138.5t135 58.5z" />
    <glyph glyph-name="g" unicode="g" horiz-adv-x="577" 
d="M70 237q0 116 73 204.5t187 88.5q34 0 67 -14t50 -40l6 43h109l-54 -388q-7 -48 -20 -92t-36 -87t-53 -74t-73.5 -50t-94.5 -19q-44 0 -99 15t-79 42l60 92q15 -16 56 -27.5t68 -11.5q58 0 101 43t52 103q-48 -38 -126 -38q-92 0 -143 58.5t-51 151.5zM337 426
q-65 0 -106 -51t-41 -118q0 -50 27.5 -85.5t76.5 -35.5q32 0 65 13t48 37q2 17 9 59t11.5 76t4.5 57q0 5 -7 12q-29 36 -88 36z" />
    <glyph glyph-name="h" unicode="h" 
d="M357 530q71 0 106 -40.5t35 -112.5q0 -17 -4 -49l-46 -328h-111l39 272q3 21 3 41q0 88 -78 88q-49 0 -77 -38t-35 -91l-38 -272h-112l98 700h112l-37 -260q19 38 61 64t84 26z" />
    <glyph glyph-name="i" unicode="i" horiz-adv-x="249" 
d="M224 519l-73 -519h-111l73 519h111zM254 652q0 -29 -23.5 -51t-53.5 -22q-24 0 -41 16t-17 40q0 30 23 51.5t53 21.5q24 0 41.5 -16t17.5 -40z" />
    <glyph glyph-name="j" unicode="j" horiz-adv-x="312" 
d="M282 519l-63 -453q-6 -39 -16 -74t-28 -69.5t-42 -59t-58.5 -39.5t-76.5 -15q-65 0 -103 27l53 86q22 -14 51 -14q20 0 36.5 8.5t27.5 26t18.5 32.5t13.5 42t7.5 38.5t5.5 36.5l61 427h113zM313 653q0 -30 -23.5 -52t-53.5 -22q-25 0 -42 16t-17 40q0 30 23.5 51.5
t53.5 21.5q25 0 42 -15.5t17 -39.5z" />
    <glyph glyph-name="k" unicode="k" horiz-adv-x="523" 
d="M388 519h139l-236 -216l210 -303h-138l-169 236l-34 -236h-109l99 700h109l-48 -342z" />
    <glyph glyph-name="l" unicode="l" horiz-adv-x="305" 
d="M51 138q0 35 6 68l69 494h114l-68 -491q-5 -28 -5 -51q0 -65 45 -65q28 0 51 15l28 -86q-50 -32 -118 -32q-122 0 -122 148z" />
    <glyph glyph-name="m" unicode="m" horiz-adv-x="810" 
d="M357 530q115 0 136 -100q23 48 66 74t97 26q70 0 105 -42t35 -114q0 -16 -4 -46l-46 -328h-111l39 272q3 21 3 41q0 88 -77 88q-48 0 -76.5 -37t-35.5 -88l-39 -276h-112l39 272q3 21 3 41q0 88 -78 88q-49 0 -77 -38t-35 -91l-39 -272h-111l73 519h111l-10 -75
q20 36 61.5 61t82.5 25z" />
    <glyph glyph-name="n" unicode="n" 
d="M357 530q141 0 141 -150q0 -18 -4 -52l-46 -328h-111l39 272q3 21 3 41q0 88 -78 88q-49 0 -77 -38t-35 -91l-38 -272h-112l73 519h111l-11 -79q19 38 61 64t84 26z" />
    <glyph glyph-name="o" unicode="o" horiz-adv-x="571" 
d="M340 525q94 0 152 -63t58 -158q0 -127 -81 -223t-205 -96q-95 0 -153 62.5t-58 158.5q0 126 82 222.5t205 96.5zM326 425q-69 0 -110 -67t-41 -140q0 -55 25.5 -95t77.5 -40q48 0 84 35t51 81.5t15 92.5q0 56 -24.5 94.5t-77.5 38.5z" />
    <glyph glyph-name="p" unicode="p" horiz-adv-x="580" 
d="M375 530q87 0 137.5 -67t50.5 -157q0 -76 -29 -147t-89.5 -120t-138.5 -49q-91 0 -127 54l-32 -225h-108l98 700h109l-7 -46q39 31 66.5 44t69.5 13zM328 422q-26 0 -55 -14t-48 -35l-33 -234q9 -20 37 -33.5t53 -13.5q73 0 117 61.5t44 137.5q0 56 -30 93.5t-85 37.5z
" />
    <glyph glyph-name="q" unicode="q" horiz-adv-x="567" 
d="M313 530q41 0 68 -13t57 -43l7 45h108l-98 -700h-109l32 225q-51 -54 -139 -54q-90 0 -138 59.5t-48 152.5q0 56 17.5 113.5t49.5 105.5t82.5 78.5t110.5 30.5zM335 419q-71 0 -114.5 -59t-43.5 -133q0 -53 30 -89t83 -36q26 0 58 13t45 33l31 222q-13 22 -38 35.5
t-51 13.5z" />
    <glyph glyph-name="r" unicode="r" horiz-adv-x="391" 
d="M312 406q-57 0 -87.5 -41.5t-39.5 -102.5l-36 -262h-112l73 519h112l-12 -79q19 37 61 63t84 26q24 0 73 -15l-72 -118q-25 10 -44 10z" />
    <glyph glyph-name="s" unicode="s" horiz-adv-x="486" 
d="M436 179q0 -85 -65.5 -137t-151.5 -52q-46 0 -97 14t-83 39l59 97q56 -47 116 -47q34 0 62 19t28 51q0 19 -19.5 33.5t-47.5 25.5t-55.5 24.5t-47 40t-19.5 63.5q0 82 61 131t145 49q41 0 86 -13t64 -40l-46 -79q-35 33 -97 33q-31 0 -59 -16.5t-28 -45.5q0 -20 20 -34.5
t48.5 -26t57.5 -26t49 -40.5t20 -63z" />
    <glyph glyph-name="t" unicode="t" horiz-adv-x="412" 
d="M89 131q0 21 3 43l35 248h-76l14 97h75l19 136h109l-19 -136h149l-14 -97h-148l-30 -213q-5 -45 -5 -54q0 -61 46 -61q25 0 50 17l26 -85q-56 -36 -112 -36q-60 0 -91 39.5t-31 101.5z" />
    <glyph glyph-name="u" unicode="u" 
d="M179 -11q-140 0 -140 159q0 31 4 56l44 315h112l-40 -280q-3 -21 -3 -41q0 -88 77 -88q50 0 78 37.5t36 91.5l40 280h110l-73 -519h-110l11 79q-19 -37 -62 -63.5t-84 -26.5z" />
    <glyph glyph-name="v" unicode="v" horiz-adv-x="484" 
d="M379 519h117l-238 -519h-111l-88 519h112l55 -352z" />
    <glyph glyph-name="w" unicode="w" horiz-adv-x="812" 
d="M704 519h119l-237 -519h-112l-56 360l-160 -360h-111l-88 519h115l52 -352l153 351h120l55 -351z" />
    <glyph glyph-name="x" unicode="x" horiz-adv-x="533" 
d="M422 519h115l-181 -244l125 -275h-117l-87 175l-137 -175h-121l207 275l-109 244h110l76 -156z" />
    <glyph glyph-name="y" unicode="y" horiz-adv-x="505" 
d="M86 -187q-21 0 -52.5 9t-44.5 21l53 88q24 -16 51 -16q4 0 14 6q47 27 73 108l-98 490h119l57 -339l151 339h117q-43 -89 -123 -261t-90 -193q-18 -39 -39 -78q-15 -28 -25.5 -46t-30 -45t-37.5 -43t-43.5 -28t-51.5 -12z" />
    <glyph glyph-name="z" unicode="z" horiz-adv-x="507" 
d="M493 519l-13 -95l-294 -326h254l-14 -98h-387l14 98l294 325h-230l13 96h363z" />
    <glyph glyph-name="braceleft" unicode="{" horiz-adv-x="325" 
d="M329 822h67l-15 -106q-46 0 -73.5 -15.5t-33.5 -58.5l-36 -261l-74 -57l57 -57l-36 -261q-1 -5 -1 -13q0 -38 23 -50t64 -12l-15 -106h-67q-58 0 -93.5 32.5t-35.5 89.5q0 9 2 25l38 267l-82 85l106 86l37 265q9 66 55 106.5t113 40.5z" />
    <glyph glyph-name="bar" unicode="|" horiz-adv-x="293" 
d="M282 830l-141 -1004h-118l141 1004h118z" />
    <glyph glyph-name="braceright" unicode="}" horiz-adv-x="347" 
d="M170 823q58 0 93.5 -32t35.5 -89q0 -10 -2 -26l-38 -265l82 -86l-106 -85l-37 -267q-9 -66 -55 -106.5t-113 -40.5h-67l15 106q46 0 73.5 15.5t33.5 58.5l36 262l74 57l-57 57l36 261q1 4 1 13q0 37 -23 49t-64 12l15 106h67z" />
    <glyph glyph-name="asciitilde" unicode="~" horiz-adv-x="431" 
d="M174 437q21 0 56 -14.5t54 -14.5q39 0 60 32l72 -41q-56 -81 -128 -81q-26 0 -60 15t-53 15q-44 0 -70 -38l-66 39q57 88 135 88z" />
    <glyph glyph-name="exclamdown" unicode="&#xa1;" horiz-adv-x="269" 
d="M215 -71h-168l112 535h94zM156 589q0 31 24 53.5t55 22.5q25 0 42.5 -16t17.5 -41q0 -31 -24 -54t-55 -23q-26 0 -43 16.5t-17 41.5z" />
    <glyph glyph-name="cent" unicode="&#xa2;" horiz-adv-x="596" 
d="M53 247q0 137 84.5 243t217.5 124l11 79h73l-11 -77q40 -4 85 -21t69 -43l-62 -99q-21 22 -57.5 36t-67.5 14q-95 0 -157 -70.5t-62 -166.5q0 -74 44 -120t118 -46q33 0 73 14.5t66 35.5l34 -100q-30 -25 -78.5 -41.5t-92.5 -20.5l-12 -82h-73l12 84q-99 14 -156.5 85
t-57.5 172z" />
    <glyph glyph-name="sterling" unicode="&#xa3;" horiz-adv-x="525" 
d="M419 533q-103 0 -131 -183h116l-10 -69h-116q-6 -39 -32 -105t-50 -82h230l-13 -92h-370l13 92h13q28 0 54 38t39.5 78.5t17.5 70.5h-88l10 69h88q6 67 31.5 126.5t77 102.5t119.5 43q37 0 74 -13t56 -39l-43 -68q-36 31 -86 31z" />
    <glyph glyph-name="currency" unicode="&#xa4;" horiz-adv-x="609" 
d="M529 285q0 -76 -39 -128l66 -78l-87 -76l-61 71q-52 -30 -108 -30q-48 0 -96 28l-79 -69l-66 76l83 72q-13 30 -13 67q0 75 40 133l-62 72l88 77l60 -70q50 29 104 29q56 0 97 -31l82 73l66 -78l-86 -75q11 -27 11 -63zM312 129q57 0 96.5 43t39.5 100q0 44 -28.5 73
t-72.5 29q-56 0 -97 -43t-41 -98q0 -44 29.5 -74t73.5 -30z" />
    <glyph glyph-name="yen" unicode="&#xa5;" horiz-adv-x="574" 
d="M607 612l-238 -317h113l-9 -68h-129l-5 -38h128l-9 -68h-129l-17 -121h-117l17 121h-128l10 68h127l6 38h-128l10 68h112l-148 317h119l116 -229l180 229h119z" />
    <glyph glyph-name="brokenbar" unicode="&#xa6;" horiz-adv-x="333" 
d="M210 207l-54 -386h-118l54 386h118zM274 662l-54 -386h-118l54 386h118z" />
    <glyph glyph-name="section" unicode="&#xa7;" horiz-adv-x="633" 
d="M402 181q48 28 48 73q0 18 -11 32.5t-32.5 24.5t-35 15t-35.5 11q-34 -5 -60.5 -24.5t-26.5 -51.5q0 -17 10.5 -30t33 -22t36 -13t43 -9.5t30.5 -5.5zM578 280q0 -52 -26.5 -100t-69.5 -78q15 -25 15 -60q0 -96 -76.5 -161t-174.5 -65q-54 0 -113 16t-94 46l63 105
q21 -18 71 -37t76 -19q44 0 82 23t38 64q0 27 -25 46t-60.5 32.5t-71.5 29.5t-61 47t-25 75q0 55 27.5 100.5t75.5 71.5q-24 28 -24 68q0 95 72.5 147.5t170.5 52.5q115 0 170 -56l-50 -89q-18 17 -55.5 28.5t-65.5 11.5q-39 0 -79 -19t-40 -55q0 -27 26 -46t62.5 -31.5
t73 -28t62.5 -45.5t26 -74z" />
    <glyph glyph-name="dieresis" unicode="&#xa8;" horiz-adv-x="390" 
d="M116 753q21 0 35.5 -14t14.5 -35q0 -26 -20 -45.5t-46 -19.5q-21 0 -35 14t-14 35q0 26 19.5 45.5t45.5 19.5zM314 753q21 0 35 -14t14 -35q0 -26 -19.5 -45.5t-45.5 -19.5q-21 0 -35.5 14t-14.5 35q0 26 20 45.5t46 19.5z" />
    <glyph glyph-name="copyright" unicode="&#xa9;" horiz-adv-x="739" 
d="M431 627q122 0 204.5 -80.5t82.5 -202.5q0 -98 -53 -185.5t-141 -139.5t-186 -52q-123 0 -205 81t-82 204q0 97 53 184t141 139t186 52zM342 -2q136 0 240.5 103t104.5 238q0 111 -75 184t-186 73q-136 0 -240 -102.5t-104 -238.5q0 -111 74.5 -184t185.5 -73zM385 181
q56 0 99 36l22 -59q-28 -26 -68.5 -42t-77.5 -16q-71 0 -115 46.5t-44 117.5q0 95 62.5 162.5t156.5 67.5q35 0 71 -14t54 -40l-38 -57q-27 34 -85 34q-53 0 -94 -41t-41 -94q0 -44 27.5 -72.5t70.5 -28.5z" />
    <glyph glyph-name="ordfeminine" unicode="&#xaa;" horiz-adv-x="369" 
d="M203 550q-43 0 -67 -37t-24 -82q0 -32 16.5 -53t47.5 -21q40 0 63 29q6 7 11 47q11 66 11 75q0 18 -19.5 30t-38.5 12zM354 343l-24 -58q-63 0 -81 47q-41 -46 -105 -46q-52 0 -80.5 40t-28.5 94q0 75 42.5 136.5t113.5 61.5q45 0 80 -37l4 30h75q-2 -17 -10.5 -68.5
t-13 -88t-4.5 -69.5q0 -21 6.5 -31t25.5 -11z" />
    <glyph glyph-name="guillemotleft" unicode="&#xab;" horiz-adv-x="522" 
d="M298 462l-138 -209l79 -209h-118l-82 209l141 209h118zM508 462l-137 -209l79 -209h-119l-82 209l141 209h118z" />
    <glyph glyph-name="logicalnot" unicode="&#xac;" horiz-adv-x="482" 
d="M469 463l-35 -247h-116l20 141h-299l15 106h415z" />
    <glyph glyph-name="uni00AD" unicode="&#xad;" horiz-adv-x="466" 
d="M438 241h-399l15 105h399z" />
    <glyph glyph-name="registered" unicode="&#xae;" horiz-adv-x="737" 
d="M431 627q122 0 204.5 -80.5t82.5 -202.5q0 -98 -53 -185.5t-141 -139.5t-186 -52q-123 0 -205 81t-82 204q0 97 53 184t141 139t186 52zM342 -2q136 0 240.5 103t104.5 238q0 111 -75 184t-186 73q-136 0 -240 -102.5t-104 -238.5q0 -111 74.5 -184t185.5 -73zM522 380
q0 -34 -20 -64.5t-52 -42.5l63 -142h-81l-54 131h-50l-18 -131h-69l47 336h146q39 0 63.5 -24t24.5 -63zM406 321q19 0 33 15.5t14 34.5q0 15 -9.5 25.5t-24.5 10.5h-70l-13 -86h70z" />
    <glyph glyph-name="macron" unicode="&#xaf;" horiz-adv-x="461" 
d="M448 728l-10 -73h-399l10 73h399z" />
    <glyph glyph-name="degree" unicode="&#xb0;" horiz-adv-x="350" 
d="M202 635q48 0 80.5 -31t32.5 -79q0 -60 -45 -104.5t-105 -44.5q-49 0 -81.5 31t-32.5 80q0 60 45.5 104t105.5 44zM173 438q32 0 56 23.5t24 55.5q0 26 -17.5 42t-43.5 16q-31 0 -54.5 -23.5t-23.5 -54.5q0 -25 17 -42t42 -17z" />
    <glyph glyph-name="plusminus" unicode="&#xb1;" horiz-adv-x="511" 
d="M496 433l-14 -104h-141l-21 -148h-117l20 148h-140l14 104h141l21 147h117l-20 -147h140zM438 22h-399l15 105h399z" />
    <glyph glyph-name="twosuperior" unicode="&#xb2;" horiz-adv-x="271" 
d="M169 620q41 0 69 -21t28 -61q0 -25 -17 -51t-38 -44.5t-48 -42t-39 -39.5h127l-10 -69h-226q6 39 7 44q8 29 35.5 56.5t56 45t51.5 39t23 41.5q0 33 -45 33q-35 0 -70 -26l-17 52q46 43 113 43z" />
    <glyph glyph-name="threesuperior" unicode="&#xb3;" horiz-adv-x="270" 
d="M115 354q23 0 42.5 12.5t19.5 33.5q0 10 -6.5 17t-21 9.5t-23 3t-26.5 0.5l-19 -1l8 56l70 62h-97l9 65h195l-9 -61l-64 -60q28 -7 45 -29.5t17 -52.5q0 -54 -42.5 -88.5t-97.5 -34.5q-25 0 -55 10.5t-45 26.5l33 56q34 -25 67 -25z" />
    <glyph glyph-name="acute" unicode="&#xb4;" horiz-adv-x="295" 
d="M224 616h-93l66 126h115z" />
    <glyph glyph-name="paragraph" unicode="&#xb6;" horiz-adv-x="509" 
d="M505 625l-10 -73h-69l-90 -636h-76l89 636h-85l-89 -636h-76l64 453q-48 0 -80 31t-32 79q0 57 45 101.5t102 44.5h307z" />
    <glyph glyph-name="cedilla" unicode="&#xb8;" horiz-adv-x="725" 
d="M418 39l-77 -171l-106 7l108 164h75z" />
    <glyph glyph-name="onesuperior" unicode="&#xb9;" horiz-adv-x="168" 
d="M134 612h36l-45 -320h-76l34 242l-53 -20l-5 65q66 33 109 33z" />
    <glyph glyph-name="ordmasculine" unicode="&#xba;" horiz-adv-x="385" 
d="M185 283q-60 0 -96 39.5t-36 99.5q0 77 51.5 137.5t127.5 60.5q60 0 96 -39.5t36 -99.5q0 -79 -51 -138.5t-128 -59.5zM136 430q0 -31 14.5 -53.5t44.5 -22.5q40 0 63 37.5t23 80.5q0 32 -14.5 53.5t-44.5 21.5q-39 0 -62.5 -38t-23.5 -79z" />
    <glyph glyph-name="guillemotright" unicode="&#xbb;" horiz-adv-x="522" 
d="M387 255l-79 209h118l82 -209l-141 -209h-118zM177 255l-80 209h119l82 -209l-141 -209h-118z" />
    <glyph glyph-name="questiondown" unicode="&#xbf;" horiz-adv-x="439" 
d="M367 651q25 0 43 -16t18 -42q0 -30 -24.5 -53t-55.5 -23q-26 0 -43.5 16.5t-17.5 41.5q0 31 24.5 53.5t55.5 22.5zM220 -74q-73 0 -120.5 37t-47.5 108q0 19 3 37q24 127 150 175q34 14 61 14l20 147h100l-31 -223h-47q-52 0 -92 -33.5t-40 -84.5q0 -36 27.5 -56
t64.5 -20q22 0 54 10.5t52 23.5l20 -88q-29 -21 -81 -34t-93 -13z" />
    <glyph glyph-name="Agrave" unicode="&#xc0;" horiz-adv-x="578" 
d="M282 612h163l104 -612h-119l-28 147h-206l-70 -147h-119zM348 497l-109 -243h150zM399 829l31 -126h-93l-53 126h115z" />
    <glyph glyph-name="Aacute" unicode="&#xc1;" horiz-adv-x="578" 
d="M282 612h163l104 -612h-119l-28 147h-206l-70 -147h-119zM348 497l-109 -243h150zM401 702h-93l67 126h115z" />
    <glyph glyph-name="Acircumflex" unicode="&#xc2;" horiz-adv-x="578" 
d="M282 612h163l104 -612h-119l-28 147h-206l-70 -147h-119zM348 497l-109 -243h150zM386 773l-47 -75h-75l78 134h105l41 -134h-74z" />
    <glyph glyph-name="Atilde" unicode="&#xc3;" horiz-adv-x="612" 
d="M282 612h163l104 -612h-119l-28 147h-206l-70 -147h-119zM348 497l-109 -243h150zM267 697l-65 46q19 34 56.5 56t76.5 22q22 0 59.5 -14t58.5 -14q40 0 60 30l72 -39q-18 -34 -48 -56.5t-65 -22.5q-28 0 -68 15.5t-61 15.5q-49 0 -76 -39z" />
    <glyph glyph-name="Adieresis" unicode="&#xc4;" horiz-adv-x="582" 
d="M282 612h163l104 -612h-119l-28 147h-206l-70 -147h-119zM348 497l-109 -243h150zM292 807q21 0 35 -14t14 -35q0 -26 -19.5 -45.5t-45.5 -19.5q-21 0 -35 14t-14 35q0 26 19.5 45.5t45.5 19.5zM489 807q21 0 35.5 -14t14.5 -35q0 -26 -20 -45.5t-46 -19.5q-21 0 -35 14
t-14 35q0 26 19.5 45.5t45.5 19.5z" />
    <glyph glyph-name="Aring" unicode="&#xc5;" horiz-adv-x="576" 
d="M282 612h163l104 -612h-119l-28 147h-206l-70 -147h-119zM348 497l-109 -243h150zM395 834q32 0 54 -21t22 -53q0 -40 -30.5 -70t-70.5 -30q-33 0 -54.5 21t-21.5 54q0 40 30.5 69.5t70.5 29.5zM388 788q-18 0 -32.5 -14t-14.5 -32q0 -15 10 -25.5t25 -10.5q18 0 33 14
t15 33q0 15 -10.5 25t-25.5 10z" />
    <glyph glyph-name="AE" unicode="&#xc6;" horiz-adv-x="800" 
d="M767 500h-301l-19 -132h240l-14 -100h-240l-22 -156h302l-16 -112h-419l20 147h-103l-69 -147h-119l287 612h489zM313 254l35 243l-109 -243h74z" />
    <glyph glyph-name="Ccedilla" unicode="&#xc7;" horiz-adv-x="587" 
d="M47 252q0 97 44.5 181.5t125 136.5t178.5 52q47 0 99.5 -17t80.5 -47l-61 -99q-21 21 -58 35.5t-68 14.5q-94 0 -156 -71t-62 -166q0 -75 43.5 -121t117.5 -46q34 0 73.5 14t66.5 36l34 -100q-32 -26 -88.5 -43.5t-102.5 -19.5l-56 -122l-105 9l81 121q-89 22 -138 90
t-49 162z" />
    <glyph glyph-name="Egrave" unicode="&#xc8;" horiz-adv-x="559" 
d="M211 366h240l-14 -100h-240l-22 -154h302l-16 -112h-419l86 612h419l-15 -112h-302zM395 829l31 -126h-93l-53 126h115z" />
    <glyph glyph-name="Eacute" unicode="&#xc9;" horiz-adv-x="559" 
d="M211 366h240l-14 -100h-240l-22 -154h302l-16 -112h-419l86 612h419l-15 -112h-302zM379 702h-93l66 126h115z" />
    <glyph glyph-name="Ecircumflex" unicode="&#xca;" horiz-adv-x="559" 
d="M211 366h240l-14 -100h-240l-22 -154h302l-16 -112h-419l86 612h419l-15 -112h-302zM367 773l-47 -75h-75l78 134h105l41 -134h-74z" />
    <glyph glyph-name="Edieresis" unicode="&#xcb;" horiz-adv-x="559" 
d="M211 366h240l-14 -100h-240l-22 -154h302l-16 -112h-419l86 612h419l-15 -112h-302zM270 806q21 0 35.5 -14t14.5 -35q0 -26 -20 -45.5t-46 -19.5q-20 0 -34.5 14t-14.5 35q0 25 19.5 45t45.5 20zM468 806q21 0 35.5 -14t14.5 -35q0 -26 -20 -45.5t-46 -19.5
q-21 0 -35.5 14t-14.5 35q0 26 20 45.5t46 19.5z" />
    <glyph glyph-name="Igrave" unicode="&#xcc;" horiz-adv-x="281" 
d="M246 612l-86 -612h-118l86 612h118zM218 829l31 -126h-93l-53 126h115z" />
    <glyph glyph-name="Iacute" unicode="&#xcd;" horiz-adv-x="273" 
d="M246 612l-86 -612h-118l86 612h118zM242 703h-93l66 126h115z" />
    <glyph glyph-name="Icircumflex" unicode="&#xce;" horiz-adv-x="267" 
d="M246 612l-86 -612h-118l86 612h118zM210 773l-48 -75h-75l78 134h106l40 -134h-74z" />
    <glyph glyph-name="Idieresis" unicode="&#xcf;" horiz-adv-x="272" 
d="M244 612l-86 -612h-118l86 612h118zM113 806q21 0 35.5 -14t14.5 -35q0 -26 -20 -45.5t-46 -19.5q-21 0 -35 14t-14 35q0 25 20 45t45 20zM311 806q21 0 35 -14t14 -35q0 -26 -19.5 -45.5t-45.5 -19.5q-21 0 -35.5 14t-14.5 35q0 26 20 45.5t46 19.5z" />
    <glyph glyph-name="Eth" unicode="&#xd0;" horiz-adv-x="660" 
d="M393 612q115 0 183.5 -66t68.5 -180q0 -93 -43 -177t-122 -136.5t-173 -52.5h-225l37 266h-77l12 87h77l37 259h225zM323 112q87 0 140.5 73.5t53.5 163.5q0 68 -36 109.5t-104 41.5h-107l-21 -147h119l-12 -87h-119l-22 -154h108z" />
    <glyph glyph-name="Ntilde" unicode="&#xd1;" horiz-adv-x="612" 
d="M601 612l-86 -612h-120l-181 392l-55 -392h-117l86 612h119l180 -400l56 400h118zM259 697l-65 46q19 34 56.5 56t76.5 22q22 0 59.5 -14t58.5 -14q39 0 59 30l72 -39q-18 -34 -47.5 -56.5t-64.5 -22.5q-27 0 -67.5 15.5t-62.5 15.5q-48 0 -75 -39z" />
    <glyph glyph-name="Ograve" unicode="&#xd2;" horiz-adv-x="633" 
d="M377 622q110 0 175.5 -72t65.5 -184q0 -97 -39 -181.5t-115.5 -139.5t-174.5 -55q-111 0 -176.5 71t-65.5 184q0 95 39.5 180.5t116.5 141t174 55.5zM363 517q-48 0 -85.5 -25.5t-58.5 -66t-32 -85t-11 -88.5q0 -69 30.5 -114t96.5 -45q48 0 85.5 25t58.5 65.5t31.5 84.5
t10.5 89q0 69 -30 114.5t-96 45.5zM430 830l31 -126h-93l-53 126h115z" />
    <glyph glyph-name="Oacute" unicode="&#xd3;" horiz-adv-x="633" 
d="M377 622q110 0 175.5 -72t65.5 -184q0 -97 -39 -181.5t-115.5 -139.5t-174.5 -55q-111 0 -176.5 71t-65.5 184q0 95 39.5 180.5t116.5 141t174 55.5zM363 517q-48 0 -85.5 -25.5t-58.5 -66t-32 -85t-11 -88.5q0 -69 30.5 -114t96.5 -45q48 0 85.5 25t58.5 65.5t31.5 84.5
t10.5 89q0 69 -30 114.5t-96 45.5zM408 703h-92l66 126h115z" />
    <glyph glyph-name="Ocircumflex" unicode="&#xd4;" horiz-adv-x="633" 
d="M377 622q110 0 175.5 -72t65.5 -184q0 -97 -39 -181.5t-115.5 -139.5t-174.5 -55q-111 0 -176.5 71t-65.5 184q0 95 39.5 180.5t116.5 141t174 55.5zM363 517q-48 0 -85.5 -25.5t-58.5 -66t-32 -85t-11 -88.5q0 -69 30.5 -114t96.5 -45q48 0 85.5 25t58.5 65.5t31.5 84.5
t10.5 89q0 69 -30 114.5t-96 45.5zM398 773l-48 -75h-74l77 134h106l40 -134h-73z" />
    <glyph glyph-name="Otilde" unicode="&#xd5;" horiz-adv-x="633" 
d="M377 622q110 0 175.5 -72t65.5 -184q0 -97 -39 -181.5t-115.5 -139.5t-174.5 -55q-111 0 -176.5 71t-65.5 184q0 95 39.5 180.5t116.5 141t174 55.5zM363 517q-48 0 -85.5 -25.5t-58.5 -66t-32 -85t-11 -88.5q0 -69 30.5 -114t96.5 -45q48 0 85.5 25t58.5 65.5t31.5 84.5
t10.5 89q0 69 -30 114.5t-96 45.5zM279 697l-66 46q19 34 57 56t77 22q21 0 59 -14t59 -14q39 0 59 30l72 -39q-18 -34 -47.5 -56.5t-64.5 -22.5q-28 0 -68.5 15.5t-60.5 15.5q-49 0 -76 -39z" />
    <glyph glyph-name="Odieresis" unicode="&#xd6;" horiz-adv-x="633" 
d="M377 622q110 0 175.5 -72t65.5 -184q0 -97 -39 -181.5t-115.5 -139.5t-174.5 -55q-111 0 -176.5 71t-65.5 184q0 95 39.5 180.5t116.5 141t174 55.5zM363 517q-48 0 -85.5 -25.5t-58.5 -66t-32 -85t-11 -88.5q0 -69 30.5 -114t96.5 -45q48 0 85.5 25t58.5 65.5t31.5 84.5
t10.5 89q0 69 -30 114.5t-96 45.5zM304 810q21 0 35.5 -14t14.5 -35q0 -26 -20 -45.5t-46 -19.5q-21 0 -35 14t-14 35q0 26 19.5 45.5t45.5 19.5zM501 810q21 0 35.5 -14t14.5 -35q0 -26 -20 -45.5t-46 -19.5q-21 0 -35 14t-14 35q0 26 19.5 45.5t45.5 19.5z" />
    <glyph glyph-name="multiply" unicode="&#xd7;" horiz-adv-x="410" 
d="M381 212l-84 -74l-85 99l-120 -104l-66 77l120 104l-91 106l84 74l90 -106l119 104l67 -77l-120 -104z" />
    <glyph glyph-name="Oslash" unicode="&#xd8;" horiz-adv-x="633" 
d="M377 623q41 0 79 -15l47 85h73l-60 -110q102 -67 102 -215q0 -97 -39 -182t-115.5 -140t-174.5 -55q-40 0 -82 16l-42 -75h-72l55 100q-101 69 -101 214q0 149 92.5 263t237.5 114zM363 518q-62 0 -106.5 -43.5t-62.5 -101t-18 -117.5q0 -69 29 -111l201 363
q-19 10 -43 10zM303 94q63 0 107 43.5t61.5 101t17.5 118.5q0 71 -30 113l-202 -364q21 -12 46 -12z" />
    <glyph glyph-name="Ugrave" unicode="&#xd9;" horiz-adv-x="582" 
d="M252 -10q-93 0 -147 51.5t-54 144.5q0 14 4 44l53 382h116l-54 -382q-2 -16 -2 -23q0 -46 27 -75.5t73 -29.5q52 0 89 37t44 91l54 382h115l-53 -382q-15 -106 -87 -173t-178 -67zM384 829l31 -126h-93l-53 126h115z" />
    <glyph glyph-name="Uacute" unicode="&#xda;" horiz-adv-x="582" 
d="M252 -10q-93 0 -147 51.5t-54 144.5q0 14 4 44l53 382h116l-54 -382q-2 -16 -2 -23q0 -46 27 -75.5t73 -29.5q52 0 89 37t44 91l54 382h115l-53 -382q-15 -106 -87 -173t-178 -67zM374 702h-93l67 126h115z" />
    <glyph glyph-name="Ucircumflex" unicode="&#xdb;" horiz-adv-x="582" 
d="M252 -10q-93 0 -147 51.5t-54 144.5q0 14 4 44l53 382h116l-54 -382q-2 -16 -2 -23q0 -46 27 -75.5t73 -29.5q52 0 89 37t44 91l54 382h115l-53 -382q-15 -106 -87 -173t-178 -67zM361 773l-47 -75h-75l78 134h106l40 -134h-74z" />
    <glyph glyph-name="Udieresis" unicode="&#xdc;" horiz-adv-x="582" 
d="M252 -10q-93 0 -147 51.5t-54 144.5q0 14 4 44l53 382h116l-54 -382q-2 -16 -2 -23q0 -46 27 -75.5t73 -29.5q52 0 89 37t44 91l54 382h115l-53 -382q-15 -106 -87 -173t-178 -67zM267 806q21 0 35.5 -14t14.5 -35q0 -26 -20 -45.5t-46 -19.5q-21 0 -35 13.5t-14 34.5
q0 26 19.5 46t45.5 20zM464 806q21 -1 35.5 -14.5t14.5 -34.5q0 -26 -20 -46t-46 -20q-21 0 -35 14t-14 35q0 26 19.5 46t45.5 20z" />
    <glyph glyph-name="Yacute" unicode="&#xdd;" horiz-adv-x="559" 
d="M473 612h119l-257 -342l-37 -270h-118l38 270l-161 342h120l115 -236zM384 703h-93l66 126h115z" />
    <glyph glyph-name="Thorn" unicode="&#xde;" horiz-adv-x="553" 
d="M228 536h118q80 0 132 -43t52 -122q0 -94 -63 -159.5t-157 -69.5q-23 -1 -137 -1l-20 -141h-111l93 664h111zM265 253q27 0 44 1t40 6.5t36 15.5t22.5 29.5t9.5 46.5q0 21 -8.5 35.5t-19 21.5t-31 10.5t-31.5 4t-34 0.5h-80l-24 -171h76z" />
    <glyph glyph-name="germandbls" unicode="&#xdf;" horiz-adv-x="546" 
d="M514 504q0 -28 -14 -56.5t-31 -46.5t-31 -39.5t-14 -38.5q0 -16 16 -33.5t34.5 -32t34.5 -40t16 -55.5q0 -71 -62.5 -121.5t-135.5 -50.5q-65 0 -111 33l45 83q34 -21 65 -21q33 0 58.5 26t25.5 58q0 24 -18 43.5t-39.5 31t-39.5 31t-18 43.5t16 45.5t35.5 34.5t35.5 34
t16 45q0 27 -21 39t-50 12q-50 0 -80.5 -37t-37.5 -91l-56 -400h-111l56 397q14 101 77.5 162.5t164.5 61.5q66 0 120 -28.5t54 -88.5z" />
    <glyph glyph-name="agrave" unicode="&#xe0;" horiz-adv-x="603" 
d="M582 76l-47 -86q-92 0 -131 80q-71 -80 -173 -80q-84 0 -131 67.5t-47 155.5q0 74 28.5 145.5t88.5 122.5t136 51q40 0 79 -17t54 -49l8 52h130l-37 -261q-10 -70 -10 -105q0 -36 10 -56.5t42 -19.5zM286 104q31 0 69 19.5t44 47.5q10 52 25 176v4q0 31 -31 51t-63 20
q-69 0 -110 -60t-41 -133q0 -55 27 -90t80 -35zM413 744l30 -126h-92l-53 126h115z" />
    <glyph glyph-name="aacute" unicode="&#xe1;" horiz-adv-x="603" 
d="M582 76l-47 -86q-92 0 -131 80q-71 -80 -173 -80q-84 0 -131 67.5t-47 155.5q0 74 28.5 145.5t88.5 122.5t136 51q40 0 79 -17t54 -49l8 52h130l-37 -261q-10 -70 -10 -105q0 -36 10 -56.5t42 -19.5zM286 104q31 0 69 19.5t44 47.5q10 52 25 176v4q0 31 -31 51t-63 20
q-69 0 -110 -60t-41 -133q0 -55 27 -90t80 -35zM415 612h-93l66 126h115z" />
    <glyph glyph-name="acircumflex" unicode="&#xe2;" horiz-adv-x="603" 
d="M582 76l-47 -86q-92 0 -131 80q-71 -80 -173 -80q-84 0 -131 67.5t-47 155.5q0 74 28.5 145.5t88.5 122.5t136 51q40 0 79 -17t54 -49l8 52h130l-37 -261q-10 -70 -10 -105q0 -36 10 -56.5t42 -19.5zM286 104q31 0 69 19.5t44 47.5q10 52 25 176v4q0 31 -31 51t-63 20
q-69 0 -110 -60t-41 -133q0 -55 27 -90t80 -35zM394 687l-48 -75h-75l78 134h106l40 -134h-74z" />
    <glyph glyph-name="atilde" unicode="&#xe3;" horiz-adv-x="625" 
d="M582 76l-47 -86q-92 0 -131 80q-71 -80 -173 -80q-84 0 -131 67.5t-47 155.5q0 74 28.5 145.5t88.5 122.5t136 51q40 0 79 -17t54 -49l8 52h130l-37 -261q-10 -70 -10 -105q0 -36 10 -56.5t42 -19.5zM286 104q31 0 69 19.5t44 47.5q10 52 25 176v4q0 31 -31 51t-63 20
q-69 0 -110 -60t-41 -133q0 -55 27 -90t80 -35zM286 621l-66 46q19 34 56.5 56t77.5 22q21 0 59 -14t59 -14q39 0 59 30l72 -39q-18 -34 -47.5 -56.5t-64.5 -22.5q-28 0 -68.5 15.5t-61.5 15.5q-48 0 -75 -39z" />
    <glyph glyph-name="adieresis" unicode="&#xe4;" horiz-adv-x="603" 
d="M582 76l-47 -86q-92 0 -131 80q-71 -80 -173 -80q-84 0 -131 67.5t-47 155.5q0 74 28.5 145.5t88.5 122.5t136 51q40 0 79 -17t54 -49l8 52h130l-37 -261q-10 -70 -10 -105q0 -36 10 -56.5t42 -19.5zM286 104q31 0 69 19.5t44 47.5q10 52 25 176v4q0 31 -31 51t-63 20
q-69 0 -110 -60t-41 -133q0 -55 27 -90t80 -35zM307 734q21 0 35 -13.5t14 -35.5q0 -25 -20 -45t-45 -20q-21 0 -35 14t-14 35q0 26 19.5 45.5t45.5 19.5zM504 734q21 0 35.5 -14t14.5 -35q0 -26 -20 -45.5t-46 -19.5q-21 0 -35 14t-14 35q0 26 19.5 45.5t45.5 19.5z" />
    <glyph glyph-name="aring" unicode="&#xe5;" horiz-adv-x="603" 
d="M582 76l-47 -86q-92 0 -131 80q-71 -80 -173 -80q-84 0 -131 67.5t-47 155.5q0 74 28.5 145.5t88.5 122.5t136 51q40 0 79 -17t54 -49l8 52h130l-37 -261q-10 -70 -10 -105q0 -36 10 -56.5t42 -19.5zM286 104q31 0 69 19.5t44 47.5q10 52 25 176v4q0 31 -31 51t-63 20
q-69 0 -110 -60t-41 -133q0 -55 27 -90t80 -35zM395 757q32 0 53.5 -21t21.5 -53q0 -40 -30 -70t-70 -30q-33 0 -54.5 21t-21.5 54q0 40 30 69.5t71 29.5zM387 711q-18 0 -32 -14t-14 -32q0 -15 10 -25.5t25 -10.5q18 0 33 14.5t15 32.5q0 15 -11 25t-26 10z" />
    <glyph glyph-name="ae" unicode="&#xe6;" horiz-adv-x="819" 
d="M482 245v-31q0 -50 28.5 -87t76.5 -37q38 0 79 16.5t68 43.5l29 -84q-33 -35 -87.5 -55.5t-106.5 -20.5q-104 0 -160 72q-36 -33 -92.5 -53.5t-107.5 -20.5q-70 0 -113 38t-43 108q0 83 60.5 143.5t143.5 60.5q28 0 63 -9.5t53 -24.5q2 14 2 22q0 51 -22.5 76t-72.5 25
q-59 0 -133 -51l-26 80q82 72 189 72q103 0 145 -88q77 89 186 89q70 0 113.5 -41t43.5 -111q0 -76 -65.5 -117.5t-145.5 -41.5q-61 0 -105 27zM626 436q-85 0 -126 -112q27 -19 81 -19q46 0 80.5 17t34.5 57q0 27 -20.5 42t-49.5 15zM243 80q69 0 118 49q-4 40 1 89
q-32 36 -95 36q-40 0 -71.5 -31.5t-31.5 -71.5q0 -33 22.5 -52t56.5 -19z" />
    <glyph glyph-name="ccedilla" unicode="&#xe7;" horiz-adv-x="529" 
d="M53 212q0 128 83.5 222t210.5 94q47 0 95 -19.5t72 -54.5l-52 -78q-16 22 -48 34.5t-63 12.5q-72 0 -126.5 -57t-54.5 -129q0 -59 35.5 -98.5t93.5 -39.5q34 0 70.5 13.5t60.5 35.5l30 -80q-58 -54 -164 -76l-59 -129l-105 9l80 123q-76 18 -117.5 77t-41.5 140z" />
    <glyph glyph-name="egrave" unicode="&#xe8;" horiz-adv-x="511" 
d="M174 245v-9q0 -62 24 -104.5t82 -42.5q38 0 78.5 17t67.5 44l29 -84q-33 -35 -88 -55.5t-106 -20.5q-96 0 -152 59.5t-56 156.5q0 81 34 154.5t99.5 121.5t147.5 48q68 0 112 -41t44 -108q0 -78 -63 -120.5t-145 -42.5q-65 0 -108 27zM318 436q-85 0 -126 -112
q26 -19 81 -19q45 0 80 17t35 57q0 27 -20.5 42t-49.5 15zM355 744l31 -126h-93l-53 126h115z" />
    <glyph glyph-name="eacute" unicode="&#xe9;" horiz-adv-x="511" 
d="M174 245v-9q0 -62 24 -104.5t82 -42.5q38 0 78.5 17t67.5 44l29 -84q-33 -35 -88 -55.5t-106 -20.5q-96 0 -152 59.5t-56 156.5q0 81 34 154.5t99.5 121.5t147.5 48q68 0 112 -41t44 -108q0 -78 -63 -120.5t-145 -42.5q-65 0 -108 27zM318 436q-85 0 -126 -112
q26 -19 81 -19q45 0 80 17t35 57q0 27 -20.5 42t-49.5 15zM486 742l-88 -126h-93l63 126h118z" />
    <glyph glyph-name="ecircumflex" unicode="&#xea;" horiz-adv-x="511" 
d="M174 245v-9q0 -62 24 -104.5t82 -42.5q38 0 78.5 17t67.5 44l29 -84q-33 -35 -88 -55.5t-106 -20.5q-96 0 -152 59.5t-56 156.5q0 81 34 154.5t99.5 121.5t147.5 48q68 0 112 -41t44 -108q0 -78 -63 -120.5t-145 -42.5q-65 0 -108 27zM318 436q-85 0 -126 -112
q26 -19 81 -19q45 0 80 17t35 57q0 27 -20.5 42t-49.5 15zM440 612h-74l-27 75l-48 -75h-75l78 134h106z" />
    <glyph glyph-name="edieresis" unicode="&#xeb;" horiz-adv-x="523" 
d="M174 245v-9q0 -62 24 -104.5t82 -42.5q38 0 78.5 17t67.5 44l29 -84q-33 -35 -88 -55.5t-106 -20.5q-96 0 -152 59.5t-56 156.5q0 81 34 154.5t99.5 121.5t147.5 48q68 0 112 -41t44 -108q0 -78 -63 -120.5t-145 -42.5q-65 0 -108 27zM318 436q-85 0 -126 -112
q26 -19 81 -19q45 0 80 17t35 57q0 27 -20.5 42t-49.5 15zM237 734q21 0 35.5 -14t14.5 -35q0 -26 -20 -45.5t-46 -19.5q-21 0 -35 14t-14 35q0 25 20 45t45 20zM434 734q21 0 35.5 -14t14.5 -35q0 -26 -20 -45.5t-46 -19.5q-21 0 -35 14t-14 35q0 25 19.5 45t45.5 20z" />
    <glyph glyph-name="igrave" unicode="&#xec;" horiz-adv-x="224" 
d="M224 519l-73 -519h-111l73 519h111zM84 743h115l31 -126h-93z" />
    <glyph glyph-name="iacute" unicode="&#xed;" horiz-adv-x="244" 
d="M224 519l-73 -519h-111l73 519h111zM233 616h-93l66 126h115z" />
    <glyph glyph-name="icircumflex" unicode="&#xee;" horiz-adv-x="246" 
d="M224 519l-73 -519h-111l73 519h111zM193 692l-56 -80h-67l78 134h105l40 -134h-67z" />
    <glyph glyph-name="idieresis" unicode="&#xef;" horiz-adv-x="259" 
d="M224 519l-73 -519h-111l73 519h111zM100 734q21 0 35.5 -14t14.5 -35q0 -26 -20 -45.5t-46 -19.5q-21 0 -35 14t-14 35q0 25 19.5 45t45.5 20zM298 734q21 0 35 -14t14 -35q0 -26 -19.5 -45.5t-45.5 -19.5q-21 0 -35.5 14t-14.5 35q0 26 20 45.5t46 19.5z" />
    <glyph glyph-name="eth" unicode="&#xf0;" horiz-adv-x="473" 
d="M264 419q18 0 31 -9l-47 103l-80 -49l-26 50l85 52l-54 127h118q6 -14 18 -39.5t13 -28.5l74 45l27 -49l-76 -47q2 -4 14 -28.5t15.5 -31.5t15 -30.5t15.5 -33.5t13 -32t13 -34.5t10 -32t8.5 -34.5t4.5 -32t2 -33q0 -103 -66.5 -182.5t-167.5 -79.5q-76 0 -123.5 51.5
t-47.5 128.5q0 99 57.5 174t153.5 75zM272 337q-55 -1 -86 -51t-31 -108q0 -42 20 -73t60 -31q56 0 86.5 52t30.5 112q0 99 -80 99z" />
    <glyph glyph-name="ntilde" unicode="&#xf1;" horiz-adv-x="531" 
d="M357 530q141 0 141 -150q0 -18 -4 -52l-46 -328h-111l39 272q3 21 3 41q0 88 -78 88q-49 0 -77 -38t-35 -91l-38 -272h-112l73 519h111l-11 -79q19 38 61 64t84 26zM215 621l-66 46q19 34 57 56t77 22q21 0 59 -14t59 -14q39 0 59 30l72 -39q-18 -34 -47.5 -56.5
t-64.5 -22.5q-28 0 -68.5 15.5t-61.5 15.5q-48 0 -75 -39z" />
    <glyph glyph-name="ograve" unicode="&#xf2;" horiz-adv-x="571" 
d="M340 525q94 0 152 -63t58 -158q0 -127 -81 -223t-205 -96q-95 0 -153 62.5t-58 158.5q0 126 82 222.5t205 96.5zM326 425q-69 0 -110 -67t-41 -140q0 -55 25.5 -95t77.5 -40q48 0 84 35t51 81.5t15 92.5q0 56 -24.5 94.5t-77.5 38.5zM387 743l31 -126h-93l-53 126h115z
" />
    <glyph glyph-name="oacute" unicode="&#xf3;" horiz-adv-x="571" 
d="M340 525q94 0 152 -63t58 -158q0 -127 -81 -223t-205 -96q-95 0 -153 62.5t-58 158.5q0 126 82 222.5t205 96.5zM326 425q-69 0 -110 -67t-41 -140q0 -55 25.5 -95t77.5 -40q48 0 84 35t51 81.5t15 92.5q0 56 -24.5 94.5t-77.5 38.5zM395 616h-93l66 126h115z" />
    <glyph glyph-name="ocircumflex" unicode="&#xf4;" horiz-adv-x="571" 
d="M340 525q94 0 152 -63t58 -158q0 -127 -81 -223t-205 -96q-95 0 -153 62.5t-58 158.5q0 126 82 222.5t205 96.5zM326 425q-69 0 -110 -67t-41 -140q0 -55 25.5 -95t77.5 -40q48 0 84 35t51 81.5t15 92.5q0 56 -24.5 94.5t-77.5 38.5zM363 687l-47 -75h-75l78 134h105
l41 -134h-74z" />
    <glyph glyph-name="otilde" unicode="&#xf5;" horiz-adv-x="594" 
d="M351 525q94 0 152 -63t58 -158q0 -127 -81 -223t-205 -96q-95 0 -153 62.5t-58 158.5q0 126 82 222.5t205 96.5zM337 425q-69 0 -110.5 -67t-41.5 -140q0 -55 26 -95t78 -40q48 0 84 35t51 81.5t15 92.5q0 56 -24.5 94.5t-77.5 38.5zM255 611l-65 46q19 34 56.5 56.5
t76.5 22.5q22 0 59.5 -14.5t58.5 -14.5q40 0 59 30l73 -39q-18 -33 -48 -56t-65 -23q-28 0 -68 15.5t-61 15.5q-49 0 -76 -39z" />
    <glyph glyph-name="odieresis" unicode="&#xf6;" horiz-adv-x="571" 
d="M340 525q94 0 152 -63t58 -158q0 -127 -81 -223t-205 -96q-95 0 -153 62.5t-58 158.5q0 126 82 222.5t205 96.5zM326 425q-69 0 -110 -67t-41 -140q0 -55 25.5 -95t77.5 -40q48 0 84 35t51 81.5t15 92.5q0 56 -24.5 94.5t-77.5 38.5zM270 734q21 0 35.5 -14t14.5 -35
q0 -26 -20 -45.5t-46 -19.5q-21 0 -35 14t-14 35q0 25 19.5 45t45.5 20zM468 734q21 0 35 -14t14 -35q0 -26 -19.5 -45.5t-45.5 -19.5q-21 0 -35.5 14t-14.5 35q0 26 20 45.5t46 19.5z" />
    <glyph glyph-name="divide" unicode="&#xf7;" horiz-adv-x="465" 
d="M350 506q0 -31 -23 -54t-54 -23q-25 0 -41.5 16.5t-16.5 41.5q0 31 23.5 54t53.5 23q25 0 41.5 -16.5t16.5 -41.5zM293 94q0 -30 -23.5 -53t-54.5 -23q-25 0 -41.5 16t-16.5 41q0 31 23.5 54t53.5 23q25 0 42 -16.5t17 -41.5zM459 247h-424l15 105h423z" />
    <glyph glyph-name="oslash" unicode="&#xf8;" horiz-adv-x="587" 
d="M349 528q27 0 63 -12l66 135h48l-75 -151q107 -59 107 -195q0 -125 -81 -221t-204 -96q-36 0 -69 12l-59 -114h-48l67 131q-102 60 -102 193q0 125 82 221.5t205 96.5zM335 428q-47 0 -83 -34.5t-52.5 -80.5t-16.5 -91q0 -60 29 -99l156 297q-13 8 -33 8zM287 86
q48 0 84 35.5t51 82t15 93.5q0 66 -31 102l-159 -303q15 -10 40 -10z" />
    <glyph glyph-name="ugrave" unicode="&#xf9;" 
d="M179 -11q-140 0 -140 159q0 31 4 56l44 315h112l-40 -280q-3 -21 -3 -41q0 -88 77 -88q50 0 78 37.5t36 91.5l40 280h110l-73 -519h-110l11 79q-19 -37 -62 -63.5t-84 -26.5zM336 743l31 -126h-93l-53 126h115z" />
    <glyph glyph-name="uacute" unicode="&#xfa;" 
d="M179 -11q-140 0 -140 159q0 31 4 56l44 315h112l-40 -280q-3 -21 -3 -41q0 -88 77 -88q50 0 78 37.5t36 91.5l40 280h110l-73 -519h-110l11 79q-19 -37 -62 -63.5t-84 -26.5zM341 616h-93l66 126h115z" />
    <glyph glyph-name="ucircumflex" unicode="&#xfb;" 
d="M179 -11q-140 0 -140 159q0 31 4 56l44 315h112l-40 -280q-3 -21 -3 -41q0 -88 77 -88q50 0 78 37.5t36 91.5l40 280h110l-73 -519h-110l11 79q-19 -37 -62 -63.5t-84 -26.5zM320 687l-48 -75h-75l78 134h106l40 -134h-74z" />
    <glyph glyph-name="udieresis" unicode="&#xfc;" 
d="M179 -11q-140 0 -140 159q0 31 4 56l44 315h112l-40 -280q-3 -21 -3 -41q0 -88 77 -88q50 0 78 37.5t36 91.5l40 280h110l-73 -519h-110l11 79q-19 -37 -62 -63.5t-84 -26.5zM227 734q21 0 35.5 -14t14.5 -35q0 -26 -20 -45.5t-46 -19.5q-21 0 -35 14t-14 35q0 25 20 45
t45 20zM425 734q21 0 35 -14t14 -35q0 -26 -19.5 -45.5t-45.5 -19.5q-21 0 -35.5 14t-14.5 35q0 26 20 45.5t46 19.5z" />
    <glyph glyph-name="yacute" unicode="&#xfd;" horiz-adv-x="505" 
d="M86 -187q-21 0 -52.5 9t-44.5 21l53 88q24 -16 51 -16q4 0 14 6q47 27 73 108l-98 490h119l57 -339l151 339h117q-43 -89 -123 -261t-90 -193q-18 -39 -39 -78q-15 -28 -25.5 -46t-30 -45t-37.5 -43t-43.5 -28t-51.5 -12zM355 616h-93l66 126h115z" />
    <glyph glyph-name="thorn" unicode="&#xfe;" horiz-adv-x="567" 
d="M365 530q89 0 137.5 -62t48.5 -153q0 -75 -31.5 -148.5t-94 -125t-139.5 -51.5q-41 0 -65.5 12t-55.5 43l-26 -187h-109l118 842h110l-31 -219q21 21 63 35t75 14zM316 426q-27 0 -58 -13.5t-46 -33.5l-32 -230q13 -22 38.5 -36t51.5 -14q73 0 118 59.5t45 135.5
q0 56 -31.5 94t-85.5 38z" />
    <glyph glyph-name="ydieresis" unicode="&#xff;" horiz-adv-x="505" 
d="M86 -187q-21 0 -52.5 9t-44.5 21l53 88q24 -16 51 -16q4 0 14 6q47 27 73 108l-98 490h119l57 -339l151 339h117q-43 -89 -123 -261t-90 -193q-18 -39 -39 -78q-15 -28 -25.5 -46t-30 -45t-37.5 -43t-43.5 -28t-51.5 -12zM231 734q21 0 35.5 -14t14.5 -35
q0 -26 -20 -45.5t-46 -19.5q-21 0 -35 14t-14 35q0 25 20 45t45 20zM428 734q21 0 35.5 -14t14.5 -35q0 -26 -20 -45.5t-46 -19.5q-21 0 -35 14t-14 35q0 25 19.5 45t45.5 20z" />
    <glyph glyph-name="Amacron" unicode="&#x100;" horiz-adv-x="600" 
d="M282 612h163l104 -612h-119l-28 147h-206l-70 -147h-119zM348 497l-109 -243h150zM589 793l-11 -73h-399l11 73h399z" />
    <glyph glyph-name="amacron" unicode="&#x101;" horiz-adv-x="614" 
d="M582 76l-47 -86q-92 0 -131 80q-71 -80 -173 -80q-84 0 -131 67.5t-47 155.5q0 74 28.5 145.5t88.5 122.5t136 51q40 0 79 -17t54 -49l8 52h130l-37 -261q-10 -70 -10 -105q0 -36 10 -56.5t42 -19.5zM286 104q31 0 69 19.5t44 47.5q10 52 25 176v4q0 31 -31 51t-63 20
q-69 0 -110 -60t-41 -133q0 -55 27 -90t80 -35zM593 707l-10 -73h-399l10 73h399z" />
    <glyph glyph-name="Abreve" unicode="&#x102;" horiz-adv-x="578" 
d="M282 612h163l104 -612h-119l-28 147h-206l-70 -147h-119zM348 497l-109 -243h150zM384 755q22 0 36.5 15.5t17.5 38.5h68q-7 -51 -42.5 -82.5t-87.5 -31.5q-44 0 -72.5 25t-28.5 69q0 6 2 20h68q-3 -22 7 -38t32 -16z" />
    <glyph glyph-name="abreve" unicode="&#x103;" horiz-adv-x="603" 
d="M582 76l-47 -86q-92 0 -131 80q-71 -80 -173 -80q-84 0 -131 67.5t-47 155.5q0 74 28.5 145.5t88.5 122.5t136 51q40 0 79 -17t54 -49l8 52h130l-37 -261q-10 -70 -10 -105q0 -36 10 -56.5t42 -19.5zM286 104q31 0 69 19.5t44 47.5q10 52 25 176v4q0 31 -31 51t-63 20
q-69 0 -110 -60t-41 -133q0 -55 27 -90t80 -35zM391 669q22 0 36.5 15.5t17.5 38.5h67q-7 -50 -42.5 -81.5t-86.5 -31.5q-44 0 -72.5 24.5t-28.5 68.5q0 13 1 20h69q-3 -23 6.5 -38.5t32.5 -15.5z" />
    <glyph glyph-name="Aogonek" unicode="&#x104;" horiz-adv-x="592" 
d="M549 0q-19 -3 -32 -22.5t-13 -38.5q0 -33 30 -33q13 0 31 10l16 -44q-23 -22 -67 -22q-33 0 -57.5 18t-24.5 51q0 39 40 81h-43l-27 147h-206l-70 -147h-119l275 612h163zM348 497l-109 -243h150z" />
    <glyph glyph-name="aogonek" unicode="&#x105;" horiz-adv-x="621" 
d="M575 -81l17 -45q-24 -21 -67 -21q-33 0 -57.5 18.5t-24.5 50.5q0 36 33 75q-47 16 -72 72q-63 -79 -174 -79q-84 0 -130.5 66t-46.5 154q0 75 28 147t87.5 123t136.5 51q40 0 78.5 -17t55.5 -49l8 53h130l-30 -214q-17 -106 -17 -154q0 -75 52 -75q-67 -112 -67 -134
q0 -33 29 -33q16 0 31 11zM285 103q31 0 69.5 19.5t44.5 47.5q9 48 25 176v4q0 31 -31 51t-63 20q-70 0 -110.5 -60.5t-40.5 -133.5q0 -55 26.5 -89.5t79.5 -34.5z" />
    <glyph glyph-name="Cacute" unicode="&#x106;" horiz-adv-x="587" 
d="M395 623q46 0 99 -17.5t81 -47.5l-61 -99q-21 22 -57.5 36t-68.5 14q-94 0 -156 -71t-62 -166q0 -75 43.5 -121t117.5 -46q33 0 74 14.5t66 35.5l34 -100q-35 -29 -92.5 -46.5t-106.5 -17.5q-114 0 -186.5 73.5t-72.5 187.5q0 97 44.5 182t125 137t178.5 52zM441 703h-93
l66 126h115z" />
    <glyph glyph-name="cacute" unicode="&#x107;" horiz-adv-x="529" 
d="M53 213q0 128 84 222t210 94q47 0 95 -19.5t72 -54.5l-52 -78q-16 22 -48 34.5t-63 12.5q-71 0 -126 -57t-55 -129q0 -59 35.5 -98.5t93.5 -39.5q33 0 69.5 13.5t61.5 35.5l30 -79q-36 -35 -90.5 -57.5t-103.5 -22.5q-95 0 -154 63.5t-59 159.5zM404 616h-93l66 126h115z
" />
    <glyph glyph-name="Ccircumflex" unicode="&#x108;" horiz-adv-x="587" 
d="M395 623q46 0 99 -17.5t81 -47.5l-61 -99q-21 22 -57.5 36t-68.5 14q-94 0 -156 -71t-62 -166q0 -75 43.5 -121t117.5 -46q33 0 74 14.5t66 35.5l34 -100q-35 -29 -92.5 -46.5t-106.5 -17.5q-114 0 -186.5 73.5t-72.5 187.5q0 97 44.5 182t125 137t178.5 52zM396 773
l-47 -75h-75l78 134h105l41 -134h-74z" />
    <glyph glyph-name="ccircumflex" unicode="&#x109;" horiz-adv-x="529" 
d="M53 213q0 128 84 222t210 94q47 0 95 -19.5t72 -54.5l-52 -78q-16 22 -48 34.5t-63 12.5q-71 0 -126 -57t-55 -129q0 -59 35.5 -98.5t93.5 -39.5q33 0 69.5 13.5t61.5 35.5l30 -79q-36 -35 -90.5 -57.5t-103.5 -22.5q-95 0 -154 63.5t-59 159.5zM359 687l-48 -75h-75
l78 134h106l40 -134h-74z" />
    <glyph glyph-name="Cdotaccent" unicode="&#x10a;" horiz-adv-x="587" 
d="M395 623q46 0 99 -17.5t81 -47.5l-61 -99q-21 22 -57.5 36t-68.5 14q-94 0 -156 -71t-62 -166q0 -75 43.5 -121t117.5 -46q33 0 74 14.5t66 35.5l34 -100q-35 -29 -92.5 -46.5t-106.5 -17.5q-114 0 -186.5 73.5t-72.5 187.5q0 97 44.5 182t125 137t178.5 52zM403 816
q23 0 38 -15t15 -37q0 -28 -21 -49t-49 -21q-22 0 -37.5 15t-15.5 38q0 28 21 48.5t49 20.5z" />
    <glyph glyph-name="cdotaccent" unicode="&#x10b;" horiz-adv-x="529" 
d="M53 213q0 128 84 222t210 94q47 0 95 -19.5t72 -54.5l-52 -78q-16 22 -48 34.5t-63 12.5q-71 0 -126 -57t-55 -129q0 -59 35.5 -98.5t93.5 -39.5q33 0 69.5 13.5t61.5 35.5l30 -79q-36 -35 -90.5 -57.5t-103.5 -22.5q-95 0 -154 63.5t-59 159.5zM353 733q22 0 37.5 -15
t15.5 -37q0 -28 -21.5 -49t-48.5 -21q-22 0 -37.5 15.5t-15.5 37.5q0 28 21 48.5t49 20.5z" />
    <glyph glyph-name="Ccaron" unicode="&#x10c;" horiz-adv-x="587" 
d="M395 623q46 0 99 -17.5t81 -47.5l-61 -99q-21 22 -57.5 36t-68.5 14q-94 0 -156 -71t-62 -166q0 -75 43.5 -121t117.5 -46q33 0 74 14.5t66 35.5l34 -100q-35 -29 -92.5 -46.5t-106.5 -17.5q-114 0 -186.5 73.5t-72.5 187.5q0 97 44.5 182t125 137t178.5 52zM394 752
l55 80h68l-78 -134h-106l-40 134h68z" />
    <glyph glyph-name="ccaron" unicode="&#x10d;" horiz-adv-x="529" 
d="M53 213q0 128 84 222t210 94q47 0 95 -19.5t72 -54.5l-52 -78q-16 22 -48 34.5t-63 12.5q-71 0 -126 -57t-55 -129q0 -59 35.5 -98.5t93.5 -39.5q33 0 69.5 13.5t61.5 35.5l30 -79q-36 -35 -90.5 -57.5t-103.5 -22.5q-95 0 -154 63.5t-59 159.5zM343 665l56 80h67
l-78 -134h-105l-40 134h67z" />
    <glyph glyph-name="Dcaron" unicode="&#x10e;" horiz-adv-x="591" 
d="M576 371q0 -97 -41.5 -181.5t-120 -137t-176.5 -52.5h-196l86 612h196q117 0 184.5 -62.5t67.5 -178.5zM237 112q12 0 38 2q78 8 125 80t47 155q0 151 -155 151h-62l-55 -388h62zM371 752l55 80h67l-78 -134h-105l-40 134h68z" />
    <glyph glyph-name="dcaron" unicode="&#x10f;" horiz-adv-x="688" 
d="M724 616h-93l66 126h115zM53 213q0 129 74 223.5t199 94.5q31 0 64 -13.5t48 -35.5l31 218h109l-99 -700h-108l6 43q-36 -28 -65 -40.5t-71 -12.5q-87 0 -137.5 67t-50.5 156zM333 419q-70 0 -112 -60t-42 -133q0 -56 27.5 -94t81.5 -38q59 0 103 49l32 230
q-8 20 -36.5 33t-53.5 13z" />
    <glyph glyph-name="Dcroat" unicode="&#x110;" horiz-adv-x="660" 
d="M645 366q0 -93 -43 -177t-122 -136.5t-173 -52.5h-226l38 266h-77l12 87h77l36 259h226q115 0 183.5 -66t68.5 -180zM323 112q87 0 140 73.5t53 163.5q0 68 -35.5 109.5t-103.5 41.5h-107l-21 -147h106l-13 -87h-105l-22 -154h108z" />
    <glyph glyph-name="dcroat" unicode="&#x111;" horiz-adv-x="610" 
d="M635 644l-11 -74h-65l-80 -570h-108l6 44q-34 -29 -64 -41.5t-72 -12.5q-87 0 -137.5 66.5t-50.5 156.5q0 129 74 223.5t199 94.5q31 0 64 -13t48 -35l13 87h-66l10 74h66l8 56h109l-8 -56h65zM391 143l32 230q-9 21 -37 33.5t-53 12.5q-70 0 -112 -60t-42 -133
q0 -56 27.5 -94t81.5 -38q27 0 55 14t48 35z" />
    <glyph glyph-name="Emacron" unicode="&#x112;" horiz-adv-x="580" 
d="M211 366h240l-14 -100h-240l-22 -154h302l-16 -112h-419l86 612h419l-15 -112h-302zM569 793l-10 -73h-399l10 73h399z" />
    <glyph glyph-name="emacron" unicode="&#x113;" horiz-adv-x="537" 
d="M174 245v-9q0 -62 24 -104.5t82 -42.5q38 0 78.5 17t67.5 44l29 -84q-33 -35 -88 -55.5t-106 -20.5q-96 0 -152 59.5t-56 156.5q0 81 34 154.5t99.5 121.5t147.5 48q68 0 112 -41t44 -108q0 -78 -63 -120.5t-145 -42.5q-65 0 -108 27zM318 436q-85 0 -126 -112
q26 -19 81 -19q45 0 80 17t35 57q0 27 -20.5 42t-49.5 15zM523 708l-10 -73h-399l10 73h399z" />
    <glyph glyph-name="Ebreve" unicode="&#x114;" horiz-adv-x="559" 
d="M211 366h240l-14 -100h-240l-22 -154h302l-16 -112h-419l86 612h419l-15 -112h-302zM362 754q22 0 36.5 15.5t17.5 38.5h68q-7 -50 -43 -81.5t-87 -31.5q-44 0 -72.5 24.5t-28.5 68.5q0 6 2 20h68q-3 -22 7 -38t32 -16z" />
    <glyph glyph-name="ebreve" unicode="&#x115;" horiz-adv-x="511" 
d="M174 245v-9q0 -62 24 -104.5t82 -42.5q38 0 78.5 17t67.5 44l29 -84q-33 -35 -88 -55.5t-106 -20.5q-96 0 -152 59.5t-56 156.5q0 81 34 154.5t99.5 121.5t147.5 48q68 0 112 -41t44 -108q0 -78 -63 -120.5t-145 -42.5q-65 0 -108 27zM318 436q-85 0 -126 -112
q26 -19 81 -19q45 0 80 17t35 57q0 27 -20.5 42t-49.5 15zM342 671q22 0 36.5 15.5t17.5 38.5h68q-7 -50 -43 -82t-87 -32q-44 0 -72.5 25t-28.5 69q0 6 2 20h68q-3 -22 7 -38t32 -16z" />
    <glyph glyph-name="Edotaccent" unicode="&#x116;" horiz-adv-x="559" 
d="M211 366h240l-14 -100h-240l-22 -154h302l-16 -112h-419l86 612h419l-15 -112h-302zM373 869q23 0 38 -15t15 -37q0 -28 -21 -48.5t-49 -20.5q-22 0 -37 15t-15 37q0 28 21 48.5t48 20.5z" />
    <glyph glyph-name="edotaccent" unicode="&#x117;" horiz-adv-x="511" 
d="M174 245v-9q0 -62 24 -104.5t82 -42.5q38 0 78.5 17t67.5 44l29 -84q-33 -35 -88 -55.5t-106 -20.5q-96 0 -152 59.5t-56 156.5q0 81 34 154.5t99.5 121.5t147.5 48q68 0 112 -41t44 -108q0 -78 -63 -120.5t-145 -42.5q-65 0 -108 27zM318 436q-85 0 -126 -112
q26 -19 81 -19q45 0 80 17t35 57q0 27 -20.5 42t-49.5 15zM334 733q23 0 38 -15t15 -37q0 -27 -21 -48t-49 -21q-23 0 -38 15t-15 37q0 28 21 48.5t49 20.5z" />
    <glyph glyph-name="Eogonek" unicode="&#x118;" horiz-adv-x="559" 
d="M461 0q-27 -2 -48.5 -18t-21.5 -41q0 -29 29 -29q14 0 31 11l17 -45q-24 -20 -64 -20q-34 0 -60 18t-26 50q0 36 34 74h-310l86 612h419l-15 -112h-302l-18 -132h239l-14 -100h-240l-22 -156h302z" />
    <glyph glyph-name="eogonek" unicode="&#x119;" horiz-adv-x="511" 
d="M381 -86q14 0 31 11l16 -45q-23 -20 -65 -20q-35 0 -59 20t-24 55q0 31 19 59q-17 -4 -38 -4q-96 0 -152 59.5t-56 156.5q0 80 34 153.5t99.5 122t147.5 48.5q68 0 111.5 -40.5t43.5 -107.5q0 -79 -61.5 -121t-144.5 -42q-69 0 -109 26q-1 -11 -1 -31q0 -52 28.5 -88.5
t78.5 -36.5q38 0 78.5 17t67.5 44l29 -84q-10 -11 -39 -31.5t-46.5 -41t-17.5 -46.5q0 -33 29 -33zM318 436q-85 0 -126 -112q27 -19 81 -19q45 0 80 17t35 57q0 27 -20.5 42t-49.5 15z" />
    <glyph glyph-name="Ecaron" unicode="&#x11a;" horiz-adv-x="559" 
d="M211 366h240l-14 -100h-240l-22 -154h302l-16 -112h-419l86 612h419l-15 -112h-302zM361 752l56 79h67l-78 -134h-105l-40 134h67z" />
    <glyph glyph-name="ecaron" unicode="&#x11b;" horiz-adv-x="511" 
d="M174 245v-9q0 -62 24 -104.5t82 -42.5q38 0 78.5 17t67.5 44l29 -84q-33 -35 -88 -55.5t-106 -20.5q-96 0 -152 59.5t-56 156.5q0 81 34 154.5t99.5 121.5t147.5 48q68 0 112 -41t44 -108q0 -78 -63 -120.5t-145 -42.5q-65 0 -108 27zM318 436q-85 0 -126 -112
q26 -19 81 -19q45 0 80 17t35 57q0 27 -20.5 42t-49.5 15zM344 666l56 80h67l-78 -134h-105l-40 134h67z" />
    <glyph glyph-name="Gcircumflex" unicode="&#x11c;" horiz-adv-x="615" 
d="M453 315h116l-35 -251q-21 -30 -95 -52t-121 -22q-120 0 -195.5 72.5t-75.5 191.5q0 150 105 259t254 109q54 0 110 -17t88 -50l-62 -99q-20 22 -59 37t-70 15q-97 0 -167 -70t-70 -167q0 -80 49.5 -123.5t131.5 -43.5q13 0 37.5 8t31.5 16zM409 773l-47 -75h-75l78 134
h105l40 -134h-73z" />
    <glyph glyph-name="gcircumflex" unicode="&#x11d;" horiz-adv-x="577" 
d="M70 237q0 116 73 204.5t187 88.5q34 0 67 -14t50 -40l6 43h109l-54 -388q-7 -48 -20 -92t-36 -87t-53 -74t-73.5 -50t-94.5 -19q-44 0 -99 15t-79 42l60 92q15 -16 56 -27.5t68 -11.5q58 0 101 43t52 103q-48 -38 -126 -38q-92 0 -143 58.5t-51 151.5zM337 426
q-65 0 -106 -51t-41 -118q0 -50 27.5 -85.5t76.5 -35.5q32 0 65 13t48 37q2 17 9 59t11.5 76t4.5 57q0 5 -7 12q-29 36 -88 36zM377 687l-48 -75h-75l78 134h106l40 -134h-73z" />
    <glyph glyph-name="Gbreve" unicode="&#x11e;" horiz-adv-x="615" 
d="M453 315h116l-35 -251q-21 -30 -95 -52t-121 -22q-120 0 -195.5 72.5t-75.5 191.5q0 150 105 259t254 109q54 0 110 -17t88 -50l-62 -99q-20 22 -59 37t-70 15q-97 0 -167 -70t-70 -167q0 -80 49.5 -123.5t131.5 -43.5q13 0 37.5 8t31.5 16zM399 758q22 0 36.5 15.5
t17.5 38.5h68q-8 -51 -43.5 -82.5t-86.5 -31.5q-44 0 -72.5 24.5t-28.5 68.5q0 7 2 21h68q-3 -22 7 -38t32 -16z" />
    <glyph glyph-name="gbreve" unicode="&#x11f;" horiz-adv-x="577" 
d="M70 237q0 116 73 204.5t187 88.5q34 0 67 -14t50 -40l6 43h109l-54 -388q-7 -48 -20 -92t-36 -87t-53 -74t-73.5 -50t-94.5 -19q-44 0 -99 15t-79 42l60 92q15 -16 56 -27.5t68 -11.5q58 0 101 43t52 103q-48 -38 -126 -38q-92 0 -143 58.5t-51 151.5zM337 426
q-65 0 -106 -51t-41 -118q0 -50 27.5 -85.5t76.5 -35.5q32 0 65 13t48 37q2 17 9 59t11.5 76t4.5 57q0 5 -7 12q-29 36 -88 36zM359 670q22 0 36.5 15.5t17.5 37.5h67q-7 -50 -42.5 -81.5t-86.5 -31.5q-44 0 -72.5 24.5t-28.5 68.5q0 14 1 21h69q-3 -23 6.5 -38.5
t32.5 -15.5z" />
    <glyph glyph-name="Gdotaccent" unicode="&#x120;" horiz-adv-x="615" 
d="M569 315l-35 -251q-21 -30 -95 -52t-121 -22q-120 0 -195.5 72.5t-75.5 191.5q0 150 105 259t254 109q54 0 110 -17t88 -50l-62 -99q-22 23 -59.5 37.5t-69.5 14.5q-97 0 -167 -70t-70 -167q0 -80 49.5 -123.5t131.5 -43.5q48 0 69 24l27 187h116zM388 817q22 0 37.5 -15
t15.5 -37q0 -27 -21.5 -48t-48.5 -21q-23 0 -38 15t-15 37q0 28 21 48.5t49 20.5z" />
    <glyph glyph-name="gdotaccent" unicode="&#x121;" horiz-adv-x="577" 
d="M70 237q0 116 73 204.5t187 88.5q34 0 67 -14t50 -40l6 43h109l-54 -388q-7 -48 -20 -92t-36 -87t-53 -74t-73.5 -50t-94.5 -19q-44 0 -99 15t-79 42l60 92q15 -16 56 -27.5t68 -11.5q58 0 101 43t52 103q-48 -38 -126 -38q-92 0 -143 58.5t-51 151.5zM337 426
q-65 0 -106 -51t-41 -118q0 -50 27.5 -85.5t76.5 -35.5q32 0 65 13t48 37q2 17 9 59t11.5 76t4.5 57q0 5 -7 12q-29 36 -88 36zM369 734q22 0 37.5 -15t15.5 -37q0 -28 -21.5 -49t-48.5 -21q-23 0 -38 15t-15 37q0 28 21 49t49 21z" />
    <glyph glyph-name="Gcommaaccent" unicode="&#x122;" horiz-adv-x="615" 
d="M569 315l-35 -251q-21 -30 -95 -52t-121 -22q-120 0 -195.5 72.5t-75.5 191.5q0 150 105 259t254 109q54 0 110 -17t88 -50l-62 -99q-22 23 -59.5 37.5t-69.5 14.5q-97 0 -167 -70t-70 -167q0 -80 49.5 -123.5t131.5 -43.5q48 0 69 24l27 187h116zM271 -61q30 0 49.5 -21
t19.5 -52q0 -43 -34 -93t-74 -62q-14 32 -22 48q17 6 31 20t19 31q-26 -3 -43.5 16t-17.5 47q0 27 21.5 46.5t50.5 19.5z" />
    <glyph glyph-name="gcommaaccent" unicode="&#x123;" horiz-adv-x="577" 
d="M454 519h108l-54 -388q-7 -48 -20 -92t-36 -87t-53 -74t-73.5 -50t-94.5 -19q-44 0 -99 15t-79 42l60 92q15 -16 56 -27.5t68 -11.5q58 0 101 43t52 103q-48 -38 -126 -38q-92 0 -143 58.5t-51 151.5q0 116 73 204.5t187 88.5q34 0 67 -14t50 -40zM407 186q2 17 9 59
t11.5 76t4.5 57q0 5 -7 12q-29 36 -88 36q-65 0 -106 -51t-41 -118q0 -50 27.5 -85.5t76.5 -35.5q32 0 65 13t48 37zM304 662q0 44 33 94t74 62l22 -47q-40 -17 -49 -51q27 2 44 -12.5t17 -41.5q0 -31 -25 -54t-56 -23q-30 0 -45 20.5t-15 52.5z" />
    <glyph glyph-name="Hcircumflex" unicode="&#x124;" horiz-adv-x="612" 
d="M213 382h238l32 230h118l-86 -612h-118l38 270h-238l-38 -270h-117l86 612h117zM386 773l-47 -75h-75l78 134h105l41 -134h-74z" />
    <glyph glyph-name="hcircumflex" unicode="&#x125;" 
d="M357 530q71 0 106 -40.5t35 -112.5q0 -17 -4 -49l-46 -328h-111l39 272q3 21 3 41q0 88 -78 88q-49 0 -77 -38t-35 -91l-38 -272h-112l98 700h112l-37 -260q19 38 61 64t84 26zM365 844l-47 -75h-75l78 134h105l41 -134h-74z" />
    <glyph glyph-name="Hbar" unicode="&#x126;" horiz-adv-x="687" 
d="M481 464h-238l-11 -82h238zM620 612l-11 -75h66l-10 -73h-66l-65 -464h-118l38 270h-238l-38 -270h-117l65 464h-80l11 73h79l11 75h117l-10 -75h238l10 75h118z" />
    <glyph glyph-name="hbar" unicode="&#x127;" horiz-adv-x="517" 
d="M361 531q71 0 106 -40.5t35 -112.5q0 -25 -3 -49l-46 -328h-111l38 273q3 19 3 41q0 87 -77 87q-49 0 -77 -37.5t-36 -90.5l-38 -273h-112l82 584h-73l10 73h73l6 43h112l-6 -43h80l-11 -73h-79l-20 -143q18 37 60 63t84 26z" />
    <glyph glyph-name="Itilde" unicode="&#x128;" horiz-adv-x="268" 
d="M237 612l-86 -612h-118l86 612h118zM82 694l-66 46q19 34 56.5 56t77.5 22q21 0 59 -14t59 -14q39 0 59 30l72 -39q-18 -34 -47.5 -56.5t-64.5 -22.5q-28 0 -68.5 15.5t-61.5 15.5q-47 0 -75 -39z" />
    <glyph glyph-name="itilde" unicode="&#x129;" horiz-adv-x="249" 
d="M206 519l-73 -519h-111l73 519h111zM51 596l-65 46q53 78 133 78q21 0 57 -14t57 -14q32 0 51 30l72 -39q-54 -79 -122 -79q-28 0 -61 15.5t-51 15.5q-43 0 -71 -39z" />
    <glyph glyph-name="Imacron" unicode="&#x12a;" horiz-adv-x="291" 
d="M245 612l-86 -612h-118l86 612h118zM411 793l-11 -73h-399l11 73h399z" />
    <glyph glyph-name="imacron" unicode="&#x12b;" horiz-adv-x="237" 
d="M219 519l-73 -519h-111l72 519h112zM389 707l-10 -73h-399l10 73h399z" />
    <glyph glyph-name="Ibreve" unicode="&#x12c;" horiz-adv-x="278" 
d="M246 612l-86 -612h-118l86 612h118zM208 759q22 0 36.5 15.5t17.5 38.5h68q-7 -50 -43 -82t-87 -32q-44 0 -72.5 25t-28.5 69q0 6 2 20h68q-3 -22 7 -38t32 -16z" />
    <glyph glyph-name="ibreve" unicode="&#x12d;" horiz-adv-x="285" 
d="M224 519l-73 -519h-111l73 519h111zM191 679q21 0 36 15t18 36h68q-8 -51 -43.5 -82.5t-86.5 -31.5q-44 0 -72.5 25t-28.5 69q0 13 1 20h69q-3 -21 7.5 -36t31.5 -15z" />
    <glyph glyph-name="Iogonek" unicode="&#x12e;" horiz-adv-x="262" 
d="M31 -71q0 39 29 71h-13l86 612h118l-86 -612q-11 0 -24 -3.5t-27 -17.5t-14 -36q0 -30 29 -30q16 0 34 10l17 -44q-25 -22 -67 -22q-33 0 -57.5 19.5t-24.5 52.5z" />
    <glyph glyph-name="iogonek" unicode="&#x12f;" horiz-adv-x="248" 
d="M177 555q-25 0 -41.5 15.5t-16.5 39.5q0 30 23 52t53 22q24 0 41.5 -16t17.5 -40q0 -29 -23.5 -51t-53.5 -22zM161 -70l17 -44q-23 -22 -67 -22q-34 0 -58.5 18.5t-24.5 49.5q0 46 34 68h-18l69 495h111l-70 -495q-24 -2 -40.5 -16t-16.5 -36q0 -28 30 -28q16 0 34 10z
" />
    <glyph glyph-name="Idotaccent" unicode="&#x130;" horiz-adv-x="276" 
d="M246 612l-86 -612h-118l86 612h118zM216 817q22 0 37.5 -15t15.5 -37q0 -27 -21.5 -48t-48.5 -21q-23 0 -38 15t-15 37q0 28 21 48.5t49 20.5z" />
    <glyph glyph-name="dotlessi" unicode="&#x131;" horiz-adv-x="297" 
d="M77 483h244l-68 -480h-112l53 375h-132z" />
    <glyph glyph-name="Jcircumflex" unicode="&#x134;" horiz-adv-x="480" 
d="M181 109q85 0 102 120l53 382h118l-44 -309q-6 -43 -11.5 -72.5t-16.5 -70t-27 -67.5t-39.5 -52.5t-57.5 -38t-77 -12.5q-96 0 -156 59l64 101q16 -17 42.5 -28.5t49.5 -11.5zM423 773l-47 -75h-75l78 134h105l40 -134h-73z" />
    <glyph glyph-name="jcircumflex" unicode="&#x135;" horiz-adv-x="315" 
d="M7 -94q71 0 94 160l64 453h113l-58 -415q-7 -51 -19.5 -95.5t-36 -93t-63 -77.5t-90.5 -29q-29 0 -64 8.5t-52 24.5l52 82q18 -18 60 -18zM244 692l-56 -80h-67l77 134h106l40 -134h-67z" />
    <glyph glyph-name="Kcommaaccent" unicode="&#x136;" horiz-adv-x="558" 
d="M316 340l204 -340h-141l-178 292l-41 -292h-118l86 612h118l-31 -222l226 222h137zM228 -61q30 0 49.5 -21.5t19.5 -52.5q0 -42 -33.5 -92t-73.5 -62l-22 48q38 14 49 51q-26 -3 -43.5 16t-17.5 47q0 27 22 46.5t50 19.5z" />
    <glyph glyph-name="kcommaaccent" unicode="&#x137;" horiz-adv-x="532" 
d="M291 303l210 -303h-138l-169 236l-33 -236h-110l99 700h109l-48 -342l177 161h139zM246 -61q31 0 50 -21.5t19 -52.5q0 -42 -33.5 -92t-73.5 -62l-22 48q39 14 49 51q-26 -3 -43.5 15.5t-17.5 46.5q0 27 22 47t50 20z" />
    <glyph glyph-name="Lacute" unicode="&#x139;" horiz-adv-x="375" 
d="M364 112l-16 -112h-306l86 612h117l-70 -500h189zM341 829l-88 -126h-93l66 126h115z" />
    <glyph glyph-name="lacute" unicode="&#x13a;" horiz-adv-x="348" 
d="M291 22q-50 -32 -118 -32q-121 0 -121 149q0 28 6 80l68 481h114l-68 -491q-4 -23 -4 -51q0 -65 44 -65q28 0 51 15zM246 753h-93l66 126h115z" />
    <glyph glyph-name="Lcommaaccent" unicode="&#x13b;" horiz-adv-x="375" 
d="M364 112l-16 -112h-306l86 612h117l-70 -500h189zM178 -61q31 0 50 -21t19 -52q0 -43 -33.5 -93t-73.5 -62l-22 48q39 14 49 51q-25 -4 -43 16.5t-18 49.5q0 27 21.5 45t50.5 18z" />
    <glyph glyph-name="lcommaaccent" unicode="&#x13c;" horiz-adv-x="305" 
d="M291 22q-50 -32 -118 -32q-121 0 -121 149q0 28 6 80l68 481h114l-68 -491q-4 -23 -4 -51q0 -65 44 -65q28 0 51 15zM138 -61q30 0 49.5 -21.5t19.5 -52.5q0 -42 -34 -92t-74 -62l-22 48q17 6 31 20t19 31q-26 -3 -43.5 16t-17.5 47q0 27 21.5 46.5t50.5 19.5z" />
    <glyph glyph-name="Lcaron" unicode="&#x13d;" horiz-adv-x="477" 
d="M491 695l-84 -119h-92l63 119h113zM364 112l-16 -112h-306l86 612h117l-70 -500h189z" />
    <glyph glyph-name="lcaron" unicode="&#x13e;" horiz-adv-x="462" 
d="M418 613h-93l66 126h115zM291 22q-50 -32 -118 -32q-121 0 -121 149q0 28 6 80l68 481h114l-68 -491q-5 -28 -5 -51q0 -65 45 -65q28 0 51 15z" />
    <glyph glyph-name="Ldot" unicode="&#x13f;" horiz-adv-x="405" 
d="M364 112l-16 -112h-306l86 612h117l-70 -500h189zM379 396q23 0 38 -15t15 -37q0 -28 -21 -49t-49 -21q-22 0 -37 15t-15 38q0 28 21 48.5t48 20.5z" />
    <glyph glyph-name="ldot" unicode="&#x140;" horiz-adv-x="416" 
d="M288 26q-56 -36 -112 -36q-124 0 -124 150q0 27 6 79l68 481h114l-69 -491q-5 -47 -5 -56q0 -57 38 -57q34 0 56 16zM423 372q0 -27 -21 -48t-49 -21q-23 0 -37.5 14.5t-14.5 37.5q0 28 21 49t48 21q22 0 37.5 -15.5t15.5 -37.5z" />
    <glyph glyph-name="Lslash" unicode="&#x141;" horiz-adv-x="477" 
d="M263 112h189l-16 -112h-306l36 258l-124 -66l11 83l124 65l39 272h118l-31 -215l162 85l-11 -82l-162 -85z" />
    <glyph glyph-name="lslash" unicode="&#x142;" horiz-adv-x="489" 
d="M374 106l27 -86q-55 -35 -106 -35q-129 0 -129 153q0 30 14 137l-129 -68l11 78l129 67l48 343h115l-41 -287l161 84l-11 -77l-160 -84q-1 -9 -9 -54.5t-11 -73.5t-3 -56q0 -56 36 -56q35 0 58 15z" />
    <glyph glyph-name="Nacute" unicode="&#x143;" horiz-adv-x="612" 
d="M601 612l-86 -612h-120l-181 392l-55 -392h-117l86 612h119l180 -400l56 400h118zM391 703h-93l67 126h115z" />
    <glyph glyph-name="nacute" unicode="&#x144;" 
d="M357 530q141 0 141 -150q0 -18 -4 -52l-46 -328h-111l39 272q3 21 3 41q0 88 -78 88q-49 0 -77 -38t-35 -91l-38 -272h-112l73 519h111l-11 -79q19 38 61 64t84 26zM353 616h-93l66 126h115z" />
    <glyph glyph-name="Ncommaaccent" unicode="&#x145;" horiz-adv-x="612" 
d="M601 612l-86 -612h-120l-181 392l-55 -392h-117l86 612h119l180 -400l56 400h118zM252 -61q30 0 49 -21.5t19 -52.5q0 -42 -33.5 -92t-73.5 -62l-22 48q39 14 49 51q-25 -4 -43 16.5t-18 49.5q0 26 22 44.5t51 18.5z" />
    <glyph glyph-name="ncommaaccent" unicode="&#x146;" 
d="M357 530q141 0 141 -150q0 -18 -4 -52l-46 -328h-110l38 272q3 21 3 41q0 88 -78 88q-49 0 -77 -38t-35 -91l-38 -272h-112l73 519h111l-11 -79q19 37 61.5 63.5t83.5 26.5zM228 -61q31 0 50 -21.5t19 -52.5q0 -42 -33.5 -92t-73.5 -62l-22 48q39 14 49 51q-27 -2 -44 13
t-17 42q0 28 22 51t50 23z" />
    <glyph glyph-name="Ncaron" unicode="&#x147;" horiz-adv-x="612" 
d="M601 612l-86 -612h-120l-181 392l-55 -392h-117l86 612h119l180 -400l56 400h118zM375 752l55 80h68l-78 -134h-106l-40 134h68z" />
    <glyph glyph-name="ncaron" unicode="&#x148;" 
d="M357 530q141 0 141 -150q0 -18 -4 -52l-46 -328h-111l39 272q3 21 3 41q0 88 -78 88q-49 0 -77 -38t-35 -91l-38 -272h-112l73 519h111l-11 -79q19 38 61 64t84 26zM340 666l55 79h67l-78 -134h-105l-40 134h68z" />
    <glyph glyph-name="napostrophe" unicode="&#x149;" horiz-adv-x="544" 
d="M389 530q140 0 140 -150q0 -26 -3 -52l-46 -328h-111l38 272q4 28 4 41q0 88 -78 88q-49 0 -77 -37.5t-36 -91.5l-38 -272h-112l73 519h112l-11 -79q18 37 60.5 63.5t84.5 26.5zM77 734q25 -4 37.5 -23.5t12.5 -46.5q0 -43 -33.5 -92.5t-73.5 -61.5l-22 48q17 6 31 20
t19 31q-27 -2 -44 12.5t-17 41.5q0 28 22 51.5t50 23.5q11 0 18 -4z" />
    <glyph glyph-name="Omacron" unicode="&#x14c;" horiz-adv-x="633" 
d="M377 622q110 0 175.5 -72t65.5 -184q0 -97 -39 -181.5t-115.5 -139.5t-174.5 -55q-111 0 -176.5 71t-65.5 184q0 95 39.5 180.5t116.5 141t174 55.5zM363 517q-48 0 -85.5 -25.5t-58.5 -66t-32 -85t-11 -88.5q0 -69 30.5 -114t96.5 -45q48 0 85.5 25t58.5 65.5t31.5 84.5
t10.5 89q0 69 -30 114.5t-96 45.5zM600 793l-10 -73h-399l10 73h399z" />
    <glyph glyph-name="omacron" unicode="&#x14d;" horiz-adv-x="586" 
d="M340 525q94 0 152 -63t58 -158q0 -127 -81 -223t-205 -96q-95 0 -153 62.5t-58 158.5q0 126 82 222.5t205 96.5zM326 425q-69 0 -110 -67t-41 -140q0 -55 25.5 -95t77.5 -40q48 0 84 35t51 81.5t15 92.5q0 56 -24.5 94.5t-77.5 38.5zM566 707l-11 -73h-399l11 73h399z
" />
    <glyph glyph-name="Obreve" unicode="&#x14e;" horiz-adv-x="633" 
d="M377 622q110 0 175.5 -72t65.5 -184q0 -97 -39 -181.5t-115.5 -139.5t-174.5 -55q-111 0 -176.5 71t-65.5 184q0 95 39.5 180.5t116.5 141t174 55.5zM363 517q-48 0 -85.5 -25.5t-58.5 -66t-32 -85t-11 -88.5q0 -69 30.5 -114t96.5 -45q48 0 85.5 25t58.5 65.5t31.5 84.5
t10.5 89q0 69 -30 114.5t-96 45.5zM396 758q22 0 36.5 15.5t17.5 38.5h68q-8 -51 -43.5 -82.5t-86.5 -31.5q-44 0 -72.5 25t-28.5 69q0 6 2 20h68q-3 -23 6.5 -38.5t32.5 -15.5z" />
    <glyph glyph-name="obreve" unicode="&#x14f;" horiz-adv-x="571" 
d="M340 525q94 0 152 -63t58 -158q0 -127 -81 -223t-205 -96q-95 0 -153 62.5t-58 158.5q0 126 82 222.5t205 96.5zM326 425q-69 0 -110 -67t-41 -140q0 -55 25.5 -95t77.5 -40q48 0 84 35t51 81.5t15 92.5q0 56 -24.5 94.5t-77.5 38.5zM360 675q22 0 36.5 15.5t17.5 38.5
h68q-8 -51 -43.5 -82.5t-86.5 -31.5q-44 0 -72.5 25t-28.5 69q0 13 1 20h69q-3 -23 6.5 -38.5t32.5 -15.5z" />
    <glyph glyph-name="Ohungarumlaut" unicode="&#x150;" horiz-adv-x="633" 
d="M377 622q110 0 175.5 -72t65.5 -184q0 -97 -39 -181.5t-115.5 -139.5t-174.5 -55q-111 0 -176.5 71t-65.5 184q0 95 39.5 180.5t116.5 141t174 55.5zM363 517q-48 0 -85.5 -25.5t-58.5 -66t-32 -85t-11 -88.5q0 -69 30.5 -114t96.5 -45q48 0 85.5 25t58.5 65.5t31.5 84.5
t10.5 89q0 69 -30 114.5t-96 45.5zM329 714h-93l64 126h117zM516 714h-93l64 126h118z" />
    <glyph glyph-name="ohungarumlaut" unicode="&#x151;" horiz-adv-x="576" 
d="M340 525q94 0 152 -63t58 -158q0 -127 -81 -223t-205 -96q-95 0 -153 62.5t-58 158.5q0 126 82 222.5t205 96.5zM326 425q-69 0 -110 -67t-41 -140q0 -55 25.5 -95t77.5 -40q48 0 84 35t51 81.5t15 92.5q0 56 -24.5 94.5t-77.5 38.5zM280 618h-93l64 126h118zM467 618
h-92l63 126h118z" />
    <glyph glyph-name="OE" unicode="&#x152;" horiz-adv-x="965" 
d="M938 500h-302l-18 -132h240l-14 -100h-240l-22 -156h302l-16 -112h-420l9 64q-75 -70 -168 -70q-111 0 -176.5 71t-65.5 183q0 149 92.5 263.5t237.5 114.5q91 0 149 -71l8 57h420zM303 97q63 0 107 43.5t61.5 101t17.5 118.5q0 70 -30 115.5t-96 45.5q-62 0 -107 -44.5
t-63 -102.5t-18 -118q0 -69 31 -114t97 -45z" />
    <glyph glyph-name="oe" unicode="&#x153;" horiz-adv-x="896" 
d="M326 425q-69 0 -110 -67t-41 -140q0 -55 25.5 -95t77.5 -40q48 0 84 35t51 81.5t15 92.5q0 56 -24.5 94.5t-77.5 38.5zM548 240v-9q0 -30 5 -54t17 -46t34.5 -34t53.5 -12q37 0 76.5 17t65.5 44l29 -85q-33 -35 -88 -55.5t-106 -20.5q-118 0 -174 88q-81 -88 -197 -88
q-95 0 -153 62.5t-58 158.5q0 81 35.5 153.5t102.5 119t149 46.5q57 0 101.5 -24t71.5 -66q81 90 195 90q69 0 115 -40.5t46 -108.5q0 -53 -33.5 -91.5t-80 -54.5t-98.5 -16q-67 0 -109 26zM691 432q-85 0 -125 -113q26 -19 80 -19q27 0 51 5.5t43.5 23.5t19.5 45
t-20.5 42.5t-48.5 15.5z" />
    <glyph glyph-name="Racute" unicode="&#x154;" horiz-adv-x="581" 
d="M553 456q0 -64 -38.5 -120.5t-98.5 -74.5l115 -261h-137l-99 243h-101l-34 -243h-118l86 612h267q69 0 113.5 -43.5t44.5 -112.5zM342 340q38 0 66 30.5t28 68.5q0 31 -20 52.5t-50 21.5h-134l-25 -173h135zM385 703h-93l66 126h115z" />
    <glyph glyph-name="racute" unicode="&#x155;" horiz-adv-x="391" 
d="M312 406q-57 0 -87.5 -41.5t-39.5 -102.5l-36 -262h-112l73 519h112l-12 -79q19 37 61 63t84 26q24 0 73 -15l-72 -118q-25 10 -44 10zM284 616h-93l66 126h115z" />
    <glyph glyph-name="Rcommaaccent" unicode="&#x156;" horiz-adv-x="570" 
d="M553 456q0 -64 -38.5 -120.5t-98.5 -74.5l115 -261h-137l-99 243h-101l-34 -243h-118l86 612h267q69 0 113.5 -43.5t44.5 -112.5zM342 340q38 0 66 30.5t28 68.5q0 31 -20 52.5t-50 21.5h-134l-25 -173h135zM242 -61q30 0 49 -21.5t19 -52.5q0 -42 -33.5 -92t-73.5 -62
l-22 48q17 6 31 20t19 31q-26 -4 -43.5 16.5t-17.5 49.5q0 27 21.5 45t50.5 18z" />
    <glyph glyph-name="rcommaaccent" unicode="&#x157;" horiz-adv-x="405" 
d="M370 396q-27 10 -44 10q-55 0 -86.5 -42.5t-40.5 -101.5l-36 -262h-112l73 519h112l-11 -79q18 37 60.5 63.5t83.5 26.5q12 0 22.5 -1.5t16 -3t16.5 -5.5t18 -6zM119 -61q30 0 49.5 -21.5t19.5 -52.5q0 -42 -34 -92t-74 -62l-22 48q17 6 31 20t19 31q-26 -3 -43.5 15
t-17.5 46q0 27 21.5 47.5t50.5 20.5z" />
    <glyph glyph-name="Rcaron" unicode="&#x158;" horiz-adv-x="570" 
d="M553 456q0 -64 -38.5 -120.5t-98.5 -74.5l115 -261h-137l-99 243h-101l-34 -243h-118l86 612h267q69 0 113.5 -43.5t44.5 -112.5zM342 340q38 0 66 30.5t28 68.5q0 31 -20 52.5t-50 21.5h-134l-25 -173h135zM362 752l55 80h68l-78 -134h-105l-41 134h68z" />
    <glyph glyph-name="rcaron" unicode="&#x159;" horiz-adv-x="391" 
d="M312 406q-57 0 -87.5 -41.5t-39.5 -102.5l-36 -262h-112l73 519h112l-12 -79q19 37 61 63t84 26q24 0 73 -15l-72 -118q-25 10 -44 10zM267 666l55 79h67l-77 -134h-106l-40 134h68z" />
    <glyph glyph-name="Sacute" unicode="&#x15a;" horiz-adv-x="541" 
d="M492 218q0 -97 -77 -162.5t-176 -65.5q-54 0 -112.5 16t-94.5 47l64 104q22 -18 71.5 -37t75.5 -19q46 0 81.5 22.5t38.5 65.5q2 22 -15.5 39t-44.5 27t-59 24.5t-59.5 30t-46 44t-18.5 65.5q0 97 70.5 149.5t171.5 52.5q118 0 170 -56l-50 -88q-18 17 -55.5 28.5
t-65.5 11.5q-44 0 -81.5 -20.5t-37.5 -60.5q0 -23 26 -40t62.5 -29t73 -28t62.5 -46.5t26 -74.5zM396 703h-93l66 126h115z" />
    <glyph glyph-name="sacute" unicode="&#x15b;" horiz-adv-x="486" 
d="M436 179q0 -85 -65.5 -137t-151.5 -52q-46 0 -97 14t-83 39l59 97q56 -47 116 -47q34 0 62 19t28 51q0 19 -19.5 33.5t-47.5 25.5t-55.5 24.5t-47 40t-19.5 63.5q0 82 61 131t145 49q41 0 86 -13t64 -40l-46 -79q-35 33 -97 33q-31 0 -59 -16.5t-28 -45.5q0 -20 20 -34.5
t48.5 -26t57.5 -26t49 -40.5t20 -63zM365 616h-93l67 126h115z" />
    <glyph glyph-name="Scircumflex" unicode="&#x15c;" horiz-adv-x="541" 
d="M492 218q0 -97 -77 -162.5t-176 -65.5q-54 0 -112.5 16t-94.5 47l64 104q22 -18 71.5 -37t75.5 -19q46 0 81.5 22.5t38.5 65.5q2 22 -15.5 39t-44.5 27t-59 24.5t-59.5 30t-46 44t-18.5 65.5q0 97 70.5 149.5t171.5 52.5q118 0 170 -56l-50 -88q-18 17 -55.5 28.5
t-65.5 11.5q-44 0 -81.5 -20.5t-37.5 -60.5q0 -23 26 -40t62.5 -29t73 -28t62.5 -46.5t26 -74.5zM365 773l-47 -75h-75l78 134h105l40 -134h-73z" />
    <glyph glyph-name="scircumflex" unicode="&#x15d;" horiz-adv-x="486" 
d="M436 179q0 -85 -65.5 -137t-151.5 -52q-46 0 -97 14t-83 39l59 97q56 -47 116 -47q34 0 62 19t28 51q0 19 -19.5 33.5t-47.5 25.5t-55.5 24.5t-47 40t-19.5 63.5q0 82 61 131t145 49q41 0 86 -13t64 -40l-46 -79q-35 33 -97 33q-31 0 -59 -16.5t-28 -45.5q0 -20 20 -34.5
t48.5 -26t57.5 -26t49 -40.5t20 -63zM350 687l-48 -75h-75l78 134h106l40 -134h-74z" />
    <glyph glyph-name="Scedilla" unicode="&#x15e;" horiz-adv-x="541" 
d="M361 519q-43 0 -81 -20.5t-38 -60.5q0 -23 25.5 -39.5t62 -29t73.5 -28.5t62.5 -47t25.5 -75q0 -82 -57 -143t-140 -77l-59 -129l-106 7l76 116q-45 4 -94.5 20t-77.5 41l63 105q22 -18 71.5 -37t75.5 -19q45 0 82.5 23.5t37.5 65.5q0 25 -25 43.5t-60.5 32.5t-71.5 31
t-61 48t-25 75q0 96 71 148.5t171 52.5q118 0 170 -56l-50 -88q-18 17 -55.5 28.5t-65.5 11.5z" />
    <glyph glyph-name="scedilla" unicode="&#x15f;" horiz-adv-x="486" 
d="M436 179q0 -68 -45 -116t-113 -65l-60 -130l-105 8l76 116q-96 8 -150 51l59 97q55 -46 116 -46q34 0 62 20t28 52q0 22 -29.5 39t-65 28.5t-65 41.5t-29.5 75q0 82 61 131t145 49q41 0 86 -13t64 -39l-46 -80q-35 33 -97 33q-21 0 -41.5 -11t-27.5 -29q-17 -9 -17 -23
q0 -19 20 -34t48.5 -26t57 -25t48.5 -40.5t20 -63.5z" />
    <glyph glyph-name="Scaron" unicode="&#x160;" horiz-adv-x="541" 
d="M492 218q0 -97 -77 -162.5t-176 -65.5q-54 0 -112.5 16t-94.5 47l64 104q22 -18 71.5 -37t75.5 -19q46 0 81.5 22.5t38.5 65.5q2 22 -15.5 39t-44.5 27t-59 24.5t-59.5 30t-46 44t-18.5 65.5q0 97 70.5 149.5t171.5 52.5q118 0 170 -56l-50 -88q-18 17 -55.5 28.5
t-65.5 11.5q-44 0 -81.5 -20.5t-37.5 -60.5q0 -23 26 -40t62.5 -29t73 -28t62.5 -46.5t26 -74.5zM368 752l55 80h68l-78 -134h-105l-41 134h68z" />
    <glyph glyph-name="scaron" unicode="&#x161;" horiz-adv-x="486" 
d="M436 179q0 -85 -65.5 -137t-151.5 -52q-46 0 -97 14t-83 39l59 97q56 -47 116 -47q34 0 62 19t28 51q0 19 -19.5 33.5t-47.5 25.5t-55.5 24.5t-47 40t-19.5 63.5q0 82 61 131t145 49q41 0 86 -13t64 -40l-46 -79q-35 33 -97 33q-31 0 -59 -16.5t-28 -45.5q0 -20 20 -34.5
t48.5 -26t57.5 -26t49 -40.5t20 -63zM340 665l56 80h67l-78 -134h-105l-40 134h67z" />
    <glyph glyph-name="Tcommaaccent" unicode="&#x162;" horiz-adv-x="562" 
d="M370 503l-71 -503h-118l71 503h-188l15 109h494l-15 -109h-188zM228 -61q31 0 50 -21.5t19 -52.5q0 -43 -33.5 -92.5t-73.5 -61.5l-23 47q41 17 50 51q-26 -3 -43.5 15.5t-17.5 46.5q0 27 22 47.5t50 20.5z" />
    <glyph glyph-name="tcommaaccent" unicode="&#x163;" horiz-adv-x="412" 
d="M297 111l26 -85q-56 -36 -112 -36q-60 0 -91 39.5t-31 101.5q0 21 3 42l35 248h-76l14 98h75l19 136h109l-19 -136h149l-14 -98h-148l-30 -212q-5 -45 -5 -54q0 -61 46 -61q25 0 50 17zM158 -61q31 0 50 -21t19 -52q0 -43 -33.5 -93t-73.5 -62l-22 48q17 6 31 20t18 31
q-26 -3 -43.5 15t-17.5 46q0 27 21.5 47.5t50.5 20.5z" />
    <glyph glyph-name="Tcaron" unicode="&#x164;" horiz-adv-x="577" 
d="M267 503h-188l15 109h494l-15 -109h-188l-71 -503h-118zM361 752l55 80h67l-78 -134h-105l-40 134h68z" />
    <glyph glyph-name="tcaron" unicode="&#x165;" horiz-adv-x="519" 
d="M297 111l26 -85q-56 -36 -112 -36q-60 0 -91 39.5t-31 101.5q0 21 3 43l35 248h-76l14 97h75l19 136h109l-19 -136h149l-14 -97h-148l-30 -213q-5 -45 -5 -54q0 -61 46 -61q25 0 50 17zM482 615h-93l67 126h115z" />
    <glyph glyph-name="Tbar" unicode="&#x166;" horiz-adv-x="577" 
d="M573 503h-188l-13 -95h140l-10 -73h-141l-47 -335h-118l47 335h-140l10 73h141l13 95h-188l15 109h494z" />
    <glyph glyph-name="tbar" unicode="&#x167;" horiz-adv-x="437" 
d="M322 111l26 -85q-56 -36 -112 -36q-60 0 -91 39.5t-31 101.5q0 33 13 113h-76l11 73h75l15 105h-76l14 97h75l19 136h109l-19 -136h149l-14 -97h-148l-15 -105h141l-11 -73h-140q-10 -72 -10 -89q0 -61 46 -61q25 0 50 17z" />
    <glyph glyph-name="Utilde" unicode="&#x168;" horiz-adv-x="582" 
d="M252 -10q-93 0 -147 51.5t-54 144.5q0 14 4 44l53 382h116l-54 -382q-2 -16 -2 -23q0 -46 27 -75.5t73 -29.5q52 0 89 37t44 91l54 382h115l-53 -382q-15 -106 -87 -173t-178 -67zM243 697l-66 46q19 34 57 56t77 22q21 0 59 -14t59 -14q39 0 59 30l73 -39
q-19 -34 -48.5 -56.5t-64.5 -22.5q-28 0 -68 15.5t-61 15.5q-49 0 -76 -39z" />
    <glyph glyph-name="utilde" unicode="&#x169;" horiz-adv-x="533" 
d="M179 -11q-140 0 -140 159q0 31 4 56l44 315h112l-40 -280q-3 -21 -3 -41q0 -88 77 -88q50 0 78 37.5t36 91.5l40 280h110l-73 -519h-110l11 79q-19 -37 -62 -63.5t-84 -26.5zM201 611l-66 46q19 34 57 56.5t77 22.5q22 0 59.5 -14.5t58.5 -14.5q39 0 59 30l73 -39
q-18 -33 -48 -56t-65 -23q-28 0 -68 15.5t-61 15.5q-49 0 -76 -39z" />
    <glyph glyph-name="Umacron" unicode="&#x16a;" horiz-adv-x="582" 
d="M252 -10q-93 0 -147 51.5t-54 144.5q0 14 4 44l53 382h116l-54 -382q-2 -16 -2 -23q0 -46 27 -75.5t73 -29.5q52 0 89 37t44 91l54 382h115l-53 -382q-15 -106 -87 -173t-178 -67zM564 793l-10 -73h-399l10 73h399z" />
    <glyph glyph-name="umacron" unicode="&#x16b;" horiz-adv-x="538" 
d="M179 -11q-140 0 -140 159q0 31 4 56l44 315h112l-40 -280q-3 -21 -3 -41q0 -88 77 -88q50 0 78 37.5t36 91.5l40 280h110l-73 -519h-110l11 79q-19 -37 -62 -63.5t-84 -26.5zM523 707l-10 -73h-399l10 73h399z" />
    <glyph glyph-name="Ubreve" unicode="&#x16c;" horiz-adv-x="582" 
d="M252 -10q-93 0 -147 51.5t-54 144.5q0 14 4 44l53 382h116l-54 -382q-2 -16 -2 -23q0 -46 27 -75.5t73 -29.5q52 0 89 37t44 91l54 382h115l-53 -382q-15 -106 -87 -173t-178 -67zM359 756q22 0 36.5 15.5t17.5 38.5h68q-7 -51 -43 -82.5t-87 -31.5q-44 0 -72.5 25
t-28.5 68q0 7 2 21h68q-3 -22 7 -38t32 -16z" />
    <glyph glyph-name="ubreve" unicode="&#x16d;" 
d="M179 -11q-140 0 -140 159q0 31 4 56l44 315h112l-40 -280q-3 -21 -3 -41q0 -88 77 -88q50 0 78 37.5t36 91.5l40 280h110l-73 -519h-110l11 79q-19 -37 -62 -63.5t-84 -26.5zM317 670q22 0 36.5 15.5t17.5 37.5h68q-7 -50 -43 -81.5t-87 -31.5q-44 0 -72.5 24.5
t-28.5 68.5q0 7 2 21h68q-3 -22 7 -38t32 -16z" />
    <glyph glyph-name="Uring" unicode="&#x16e;" horiz-adv-x="582" 
d="M252 -10q-93 0 -147 51.5t-54 144.5q0 14 4 44l53 382h116l-54 -382q-2 -16 -2 -23q0 -46 27 -75.5t73 -29.5q52 0 89 37t44 91l54 382h115l-53 -382q-15 -106 -87 -173t-178 -67zM374 860q32 0 54 -21t22 -53q0 -40 -30 -70t-70 -30q-33 0 -55 21t-22 54q0 40 30.5 69.5
t70.5 29.5zM367 814q-18 0 -32.5 -14t-14.5 -32q0 -15 10 -25.5t25 -10.5q18 0 33 14t15 33q0 15 -10.5 25t-25.5 10z" />
    <glyph glyph-name="uring" unicode="&#x16f;" 
d="M179 -11q-140 0 -140 159q0 31 4 56l44 315h112l-40 -280q-3 -21 -3 -41q0 -88 77 -88q50 0 78 37.5t36 91.5l40 280h110l-73 -519h-110l11 79q-19 -37 -62 -63.5t-84 -26.5zM330 759q33 0 54.5 -20.5t21.5 -53.5q0 -40 -30 -70t-70 -30q-33 0 -55 21t-22 54
q0 40 30.5 69.5t70.5 29.5zM323 714q-18 0 -32.5 -14t-14.5 -32q0 -15 10.5 -25.5t24.5 -10.5q18 0 33.5 14t15.5 32q0 15 -11 25.5t-26 10.5z" />
    <glyph glyph-name="Uhungarumlaut" unicode="&#x170;" horiz-adv-x="582" 
d="M252 -10q-93 0 -147 51.5t-54 144.5q0 14 4 44l53 382h116l-54 -382q-2 -16 -2 -23q0 -46 27 -75.5t73 -29.5q52 0 89 37t44 91l54 382h115l-53 -382q-15 -106 -87 -173t-178 -67zM292 681h-92l63 126h118zM480 681h-93l63 126h118z" />
    <glyph glyph-name="uhungarumlaut" unicode="&#x171;" horiz-adv-x="540" 
d="M179 -11q-140 0 -140 159q0 31 4 56l44 315h112l-40 -280q-3 -21 -3 -41q0 -88 77 -88q50 0 78 37.5t36 91.5l40 280h110l-73 -519h-110l11 79q-19 -37 -62 -63.5t-84 -26.5zM250 618h-93l63 126h118zM437 618h-93l64 126h117z" />
    <glyph glyph-name="Uogonek" unicode="&#x172;" horiz-adv-x="582" 
d="M455 612h115l-51 -362q-26 -189 -171 -244q-33 -29 -33 -61t29 -32q17 0 32 10l16 -45q-24 -20 -65 -20q-35 0 -59.5 16.5t-24.5 50.5q0 31 25 65q-100 0 -158 47t-58 145q0 30 5 68l51 362h116l-54 -382q-2 -16 -2 -23q0 -46 27 -75.5t73 -29.5q57 0 91.5 39.5
t43.5 98.5z" />
    <glyph glyph-name="uogonek" unicode="&#x173;" 
d="M438 -59l17 -45q-25 -22 -69 -22q-35 0 -60 18t-25 49q0 38 32 59h-19l11 79q-20 -41 -63 -65t-90 -24q-69 0 -101 43t-32 114q0 26 6 72l42 300h112l-37 -264q-5 -33 -5 -61q0 -84 76 -84q27 0 47.5 11.5t32.5 27.5t20.5 41t12 45t7.5 46q0 3 0.5 4.5t0.5 3.5l33 230
h110l-73 -519q-19 -1 -34 -14.5t-15 -28.5q0 -27 29 -27q18 0 34 11z" />
    <glyph glyph-name="Wcircumflex" unicode="&#x174;" horiz-adv-x="1006" 
d="M910 612h129l-289 -612h-136l-87 410l-201 -410h-135l-118 612h129l83 -426l207 420h126l91 -420zM578 772l-48 -75h-74l77 134h106l40 -134h-73z" />
    <glyph glyph-name="wcircumflex" unicode="&#x175;" horiz-adv-x="812" 
d="M704 519h119l-237 -519h-112l-56 360l-160 -360h-111l-88 519h115l52 -352l153 351h120l55 -351zM464 687l-47 -75h-75l78 134h106l40 -134h-74z" />
    <glyph glyph-name="Ycircumflex" unicode="&#x176;" horiz-adv-x="559" 
d="M473 612h119l-257 -342l-37 -270h-118l38 270l-161 342h120l115 -236zM347 773l-47 -75h-75l78 134h106l40 -134h-74z" />
    <glyph glyph-name="ycircumflex" unicode="&#x177;" horiz-adv-x="505" 
d="M86 -187q-21 0 -52.5 9t-44.5 21l53 88q24 -16 51 -16q4 0 14 6q47 27 73 108l-98 490h119l57 -339l151 339h117q-43 -89 -123 -261t-90 -193q-18 -39 -39 -78q-15 -28 -25.5 -46t-30 -45t-37.5 -43t-43.5 -28t-51.5 -12zM324 687l-48 -75h-75l78 134h106l40 -134h-73z
" />
    <glyph glyph-name="Ydieresis" unicode="&#x178;" horiz-adv-x="559" 
d="M473 612h119l-257 -342l-37 -270h-118l38 270l-161 342h120l115 -236zM253 806q21 0 35 -14t14 -35q0 -26 -19.5 -45.5t-45.5 -19.5q-21 0 -35 14t-14 35q0 26 19.5 45.5t45.5 19.5zM450 806q21 0 35.5 -14t14.5 -35q0 -26 -20 -45.5t-46 -19.5q-21 0 -35 13.5t-14 35.5
q0 26 19.5 45.5t45.5 19.5z" />
    <glyph glyph-name="Zacute" unicode="&#x179;" horiz-adv-x="602" 
d="M591 612l-15 -109l-362 -395h306l-15 -108h-463l15 108l366 395h-295l15 109h448zM395 703h-93l66 126h115z" />
    <glyph glyph-name="zacute" unicode="&#x17a;" horiz-adv-x="507" 
d="M493 519l-13 -95l-294 -326h254l-14 -98h-387l14 98l294 325h-230l13 96h363zM366 616h-93l66 126h115z" />
    <glyph glyph-name="Zdotaccent" unicode="&#x17b;" horiz-adv-x="602" 
d="M591 612l-15 -109l-362 -395h306l-15 -108h-463l15 108l366 395h-295l15 109h448zM388 817q22 0 37.5 -15t15.5 -37q0 -27 -21.5 -48t-48.5 -21q-23 0 -38 15t-15 37q0 28 21 48.5t49 20.5z" />
    <glyph glyph-name="zdotaccent" unicode="&#x17c;" horiz-adv-x="507" 
d="M493 519l-13 -95l-294 -326h254l-14 -98h-387l14 98l294 325h-230l13 96h363zM347 733q22 -1 37.5 -16t15.5 -37q0 -27 -21.5 -48t-48.5 -21q-23 0 -38 15t-15 37q0 28 21 49t49 21z" />
    <glyph glyph-name="Zcaron" unicode="&#x17d;" horiz-adv-x="602" 
d="M591 612l-15 -109l-362 -395h306l-15 -108h-463l15 108l366 395h-295l15 109h448zM382 752l56 80h67l-78 -134h-105l-40 134h67z" />
    <glyph glyph-name="zcaron" unicode="&#x17e;" horiz-adv-x="507" 
d="M493 519l-13 -95l-294 -326h254l-14 -98h-387l14 98l294 325h-230l13 96h363zM337 666l55 79h67l-77 -134h-106l-40 134h68z" />
    <glyph glyph-name="AEacute" unicode="&#x1fc;" horiz-adv-x="795" 
d="M492 700h-93l66 126h115zM767 500h-301l-19 -132h240l-14 -100h-240l-22 -156h302l-16 -112h-419l20 147h-103l-69 -147h-119l287 612h489zM313 254l35 243l-109 -243h74z" />
    <glyph glyph-name="aeacute" unicode="&#x1fd;" horiz-adv-x="819" 
d="M482 246v-30q0 -50 28 -87t77 -37q38 0 79 16.5t68 43.5l29 -84q-33 -36 -87.5 -56t-106.5 -20q-105 0 -160 71q-36 -32 -93 -52.5t-107 -20.5q-70 0 -113 38t-43 107q0 83 60.5 143.5t143.5 60.5q28 0 63 -9.5t53 -24.5q2 16 2 23q0 51 -22.5 75.5t-72.5 24.5
q-62 0 -133 -51l-26 81q82 72 189 72q103 0 145 -88q77 89 186 89q70 0 113.5 -41t43.5 -111q0 -52 -34 -89.5t-80.5 -53.5t-96.5 -16q-60 0 -105 26zM626 438q-85 0 -126 -112q29 -20 81 -20q45 0 80 17t35 57q0 28 -20.5 43t-49.5 15zM243 81q68 0 118 50q-4 40 1 89
q-32 36 -95 36q-40 0 -71.5 -31.5t-31.5 -71.5q0 -33 22.5 -52.5t56.5 -19.5zM435 616h-93l66 126h115z" />
    <glyph glyph-name="Scommaaccent" unicode="&#x218;" horiz-adv-x="541" 
d="M362 621q118 0 170 -56l-50 -88q-18 17 -55.5 28.5t-65.5 11.5q-44 0 -81.5 -20.5t-37.5 -60.5q0 -23 25.5 -39.5t62 -29t73.5 -28.5t62.5 -47t25.5 -75q0 -97 -76.5 -162t-175.5 -65q-54 0 -112.5 16t-94.5 47l64 104q22 -18 71.5 -37t75.5 -19q45 0 82.5 23.5
t37.5 65.5q0 25 -25 43.5t-60.5 32.5t-71.5 31t-61 48t-25 75q0 96 71 148.5t171 52.5zM242 -61q30 0 49 -21.5t19 -52.5q0 -43 -33.5 -92.5t-73.5 -61.5l-22 47q39 16 49 51q-26 -3 -43.5 17.5t-17.5 49.5q0 26 22 44.5t51 18.5z" />
    <glyph glyph-name="scommaaccent" unicode="&#x219;" horiz-adv-x="486" 
d="M321 530q41 0 86 -13t64 -40l-46 -79q-35 33 -97 33q-30 0 -58.5 -17t-28.5 -45q0 -19 20 -34t48.5 -26.5t57 -26t48.5 -41.5t20 -64q0 -84 -65 -135.5t-151 -51.5q-46 0 -97 14t-83 39l59 97q54 -47 116 -47q34 0 62 19t28 51q0 20 -19.5 34.5t-47.5 25t-55.5 24
t-47 39.5t-19.5 63q0 83 61 132t145 49zM204 -61q31 0 50 -21.5t19 -52.5q0 -42 -33.5 -92t-73.5 -62l-22 48q39 14 49 51q-26 -3 -43.5 16t-17.5 47q0 27 21.5 46.5t50.5 19.5z" />
    <glyph glyph-name="circumflex" unicode="&#x2c6;" horiz-adv-x="541" 
d="M368 687l-47 -75h-75l78 134h105l41 -134h-74z" />
    <glyph glyph-name="caron" unicode="&#x2c7;" horiz-adv-x="412" 
d="M231 665l55 80h68l-78 -134h-105l-41 134h68z" />
    <glyph glyph-name="breve" unicode="&#x2d8;" horiz-adv-x="429" 
d="M313 661q22 0 36.5 15.5t17.5 38.5h68q-7 -50 -42.5 -81.5t-87.5 -31.5q-44 0 -72.5 24.5t-28.5 68.5q0 8 2 20h68q-3 -22 7 -38t32 -16z" />
    <glyph glyph-name="dotaccent" unicode="&#x2d9;" horiz-adv-x="195" 
d="M121 786q23 0 38 -15t15 -37q0 -28 -21.5 -49t-48.5 -21q-22 0 -37.5 15t-15.5 38q0 28 21 48.5t49 20.5z" />
    <glyph glyph-name="ring" unicode="&#x2da;" horiz-adv-x="365" 
d="M237 671q32 0 54 -21t22 -53q0 -40 -30 -70t-70 -30q-33 0 -55 21t-22 54q0 40 30.5 69.5t70.5 29.5zM230 626q-18 0 -32.5 -14.5t-14.5 -32.5q0 -14 10 -24.5t25 -10.5q18 0 33 14t15 32q0 15 -10.5 25.5t-25.5 10.5z" />
    <glyph glyph-name="ogonek" unicode="&#x2db;" horiz-adv-x="725" 
d="M361 -77l17 -44q-25 -22 -68 -22q-33 0 -57.5 18.5t-24.5 50.5q0 26 18 54.5t42 46.5l45 -19q-32 -34 -32 -66q0 -29 29 -29q13 0 31 10z" />
    <glyph glyph-name="tilde" unicode="&#x2dc;" horiz-adv-x="490" 
d="M159 632l-66 46q19 34 57 56t77 22q21 0 59 -14t59 -14q39 0 59 30l72 -39q-18 -34 -47.5 -56.5t-64.5 -22.5q-28 0 -68.5 15.5t-61.5 15.5q-47 0 -75 -39z" />
    <glyph glyph-name="hungarumlaut" unicode="&#x2dd;" horiz-adv-x="584" 
d="M342 655h-93l64 126h117zM529 655h-93l64 126h117z" />
    <glyph glyph-name="Wgrave" unicode="&#x1e80;" horiz-adv-x="1006" 
d="M910 612h129l-289 -612h-136l-87 410l-201 -410h-135l-118 612h129l83 -426l207 420h126l91 -420zM606 829l30 -126h-93l-52 126h115z" />
    <glyph glyph-name="wgrave" unicode="&#x1e81;" horiz-adv-x="812" 
d="M704 519h119l-237 -519h-112l-56 360l-160 -360h-111l-88 519h115l52 -352l153 351h120l55 -351zM493 743l31 -126h-93l-53 126h115z" />
    <glyph glyph-name="Wacute" unicode="&#x1e82;" horiz-adv-x="1006" 
d="M910 612h129l-289 -612h-136l-87 410l-201 -410h-135l-118 612h129l83 -426l207 420h126l91 -420zM592 703h-93l66 126h115z" />
    <glyph glyph-name="wacute" unicode="&#x1e83;" horiz-adv-x="812" 
d="M704 519h119l-237 -519h-112l-56 360l-160 -360h-111l-88 519h115l52 -352l153 351h120l55 -351zM496 616h-93l66 126h115z" />
    <glyph glyph-name="Wdieresis" unicode="&#x1e84;" horiz-adv-x="1006" 
d="M910 612h130l-290 -612h-136l-87 410l-201 -410h-135l-118 612h129l83 -426l207 420h126l91 -420zM465 806q21 0 35.5 -14t14.5 -35q0 -26 -20 -45.5t-46 -19.5q-21 0 -35 13.5t-14 34.5q0 26 19.5 46t45.5 20zM685 806q21 0 35.5 -14t14.5 -35q0 -26 -20 -45.5
t-46 -19.5q-21 0 -35 13.5t-14 34.5q0 26 19.5 46t45.5 20z" />
    <glyph glyph-name="wdieresis" unicode="&#x1e85;" horiz-adv-x="812" 
d="M704 519h119l-237 -519h-112l-56 360l-160 -360h-111l-88 519h115l52 -352l153 351h120l55 -351zM372 734q21 0 35.5 -14t14.5 -35q0 -26 -20 -45.5t-46 -19.5q-21 0 -35 14t-14 35q0 25 19.5 45t45.5 20zM569 734q21 0 35.5 -14t14.5 -35q0 -26 -20 -45.5t-46 -19.5
q-21 0 -35 13.5t-14 34.5q0 26 19.5 46t45.5 20z" />
    <glyph glyph-name="Ygrave" unicode="&#x1ef2;" horiz-adv-x="559" 
d="M473 612h119l-257 -342l-37 -270h-118l38 270l-161 342h120l115 -236zM362 830l31 -126h-93l-53 126h115z" />
    <glyph glyph-name="ygrave" unicode="&#x1ef3;" horiz-adv-x="505" 
d="M86 -187q-21 0 -52.5 9t-44.5 21l53 88q24 -16 51 -16q4 0 14 6q47 27 73 108l-98 490h119l57 -339l151 339h117q-43 -89 -123 -261t-90 -193q-18 -39 -39 -78q-15 -28 -25.5 -46t-30 -45t-37.5 -43t-43.5 -28t-51.5 -12zM348 743l31 -126h-93l-53 126h115z" />
    <glyph glyph-name="endash" unicode="&#x2013;" horiz-adv-x="552" 
d="M543 342l-14 -105h-490l15 105h489z" />
    <glyph glyph-name="emdash" unicode="&#x2014;" horiz-adv-x="767" 
d="M756 342l-15 -105h-702l15 105h702z" />
    <glyph glyph-name="quoteleft" unicode="&#x2018;" horiz-adv-x="208" 
d="M51 509q0 44 33 94t75 63l22 -48q-17 -6 -31.5 -20t-18.5 -31q27 2 44.5 -12t17.5 -41q0 -31 -25 -54.5t-56 -23.5q-30 0 -45.5 21t-15.5 52z" />
    <glyph glyph-name="quoteright" unicode="&#x2019;" horiz-adv-x="208" 
d="M146 638q25 -4 38 -23.5t13 -45.5q0 -43 -33.5 -92.5t-73.5 -61.5l-22 47q38 14 49 51q-27 -2 -44 12.5t-17 41.5q0 28 22 52t50 24q10 0 18 -5z" />
    <glyph glyph-name="quotesinglbase" unicode="&#x201a;" horiz-adv-x="247" 
d="M163 171q31 -4 47.5 -27.5t16.5 -56.5q0 -51 -39.5 -109.5t-87.5 -73.5l-28 56q45 20 56 59q-32 -2 -52 15t-20 49q0 34 27 63t61 29q11 0 19 -4z" />
    <glyph glyph-name="quotedblleft" unicode="&#x201c;" horiz-adv-x="480" 
d="M133 393q-35 12 -58.5 57t-23.5 84q0 49 28 90.5t75 41.5q31 0 53.5 -19t22.5 -49q0 -37 -25.5 -63.5t-61.5 -26.5h-7q0 -17 12 -33.5t28 -24.5zM360 393q-34 12 -57.5 57t-23.5 84q0 49 28 90.5t75 41.5q31 0 53.5 -19t22.5 -49q0 -37 -25.5 -63.5t-61.5 -26.5h-7
q0 -17 12 -33.5t28 -24.5z" />
    <glyph glyph-name="quotedblright" unicode="&#x201d;" horiz-adv-x="443" 
d="M58 574q0 38 30.5 64t68.5 26q34 0 52 -25t18 -61q0 -52 -39.5 -111.5t-87.5 -74.5l-28 57q19 8 35 24t21 34q-32 -2 -51 16.5t-19 50.5zM281 574q0 38 30.5 64t69.5 26q34 0 51.5 -25t17.5 -61q0 -52 -39.5 -111.5t-87.5 -74.5l-28 57q19 8 35 24t22 34
q-32 -2 -51.5 16.5t-19.5 50.5z" />
    <glyph glyph-name="quotedblbase" unicode="&#x201e;" horiz-adv-x="461" 
d="M151 171q31 -4 47 -27.5t16 -56.5q0 -51 -39.5 -109.5t-86.5 -73.5l-29 56q19 8 35.5 24t21.5 35q-32 -2 -52 15t-20 49q0 34 26.5 63t61.5 29q11 0 19 -4zM374 171q31 -4 47.5 -27.5t16.5 -56.5q0 -51 -39.5 -109.5t-87.5 -73.5l-28 56q45 20 56 59q-32 -2 -52 15
t-20 49q0 34 27 63t61 29q11 0 19 -4z" />
    <glyph glyph-name="dagger" unicode="&#x2020;" horiz-adv-x="465" 
d="M429 387h-145l-78 -556h-117l78 556h-144l15 105h144l49 347h117l-49 -347h145z" />
    <glyph glyph-name="daggerdbl" unicode="&#x2021;" horiz-adv-x="476" 
d="M470 440h-149l-27 -191h150l-15 -105h-150l-44 -313h-116l44 313h-140l15 105h140l27 191h-141l15 105h141l41 294h116l-41 -294h149z" />
    <glyph glyph-name="bullet" unicode="&#x2022;" horiz-adv-x="248" 
d="M238 328q0 -40 -30 -69.5t-69 -29.5q-32 0 -53.5 21t-21.5 53q0 39 30 69t69 30q32 0 53.5 -21t21.5 -53z" />
    <glyph glyph-name="ellipsis" unicode="&#x2026;" horiz-adv-x="872" 
d="M210 82q0 -37 -27.5 -64.5t-64.5 -27.5q-30 0 -50 19.5t-20 49.5q0 37 28 64.5t65 27.5q29 0 49 -19.5t20 -49.5zM528 82q0 -37 -28 -64.5t-65 -27.5q-29 0 -49 19.5t-20 49.5q0 37 27.5 64.5t64.5 27.5q30 0 50 -19.5t20 -49.5zM845 82q0 -37 -28 -64.5t-64 -27.5
q-30 0 -50 19.5t-20 49.5q0 37 28 64.5t64 27.5q30 0 50 -19.5t20 -49.5z" />
    <glyph glyph-name="perthousand" unicode="&#x2030;" horiz-adv-x="1030" 
d="M208 623q54 0 81.5 -38t27.5 -94q0 -73 -42.5 -133.5t-112.5 -60.5q-55 0 -83 37.5t-28 93.5q0 73 43.5 134t113.5 61zM173 375q31 0 48 35t17 70q0 25 -9.5 45t-32.5 20q-31 0 -48 -36t-17 -71q0 -63 42 -63zM589 317q54 0 81.5 -38t27.5 -94q0 -73 -42 -133.5
t-113 -60.5q-54 0 -82 37.5t-28 93.5q0 73 43 134t113 61zM555 69q31 0 47.5 35t16.5 70q0 65 -41 65q-31 0 -48 -36t-17 -71q0 -63 42 -63zM896 318q54 0 81.5 -38t27.5 -94q0 -74 -42.5 -134.5t-112.5 -60.5q-55 0 -82.5 37t-27.5 94q0 73 43 134.5t113 61.5zM861 70
q31 -1 48 34.5t17 69.5q0 25 -9.5 45t-31.5 20q-31 0 -48.5 -36t-17.5 -70q0 -25 10 -44t32 -19zM593 612l-353 -612h-103l353 612h103z" />
    <glyph glyph-name="guilsinglleft" unicode="&#x2039;" horiz-adv-x="311" 
d="M298 462l-138 -209l79 -209h-118l-82 209l141 209h118z" />
    <glyph glyph-name="guilsinglright" unicode="&#x203a;" horiz-adv-x="311" 
d="M177 253l-80 209h119l82 -209l-141 -209h-118z" />
    <glyph glyph-name="fraction" unicode="&#x2044;" horiz-adv-x="441" 
d="M460 667l-345 -708h-101l345 708h101z" />
    <glyph glyph-name="zerosuperior" unicode="&#x2070;" horiz-adv-x="296" 
d="M215 483q0 71 -48 71q-37 0 -56.5 -41.5t-19.5 -83.5q0 -73 48 -73q38 0 57 42t19 85zM177 620q56 0 83.5 -38.5t27.5 -97.5q0 -74 -43.5 -134t-114.5 -60q-57 0 -85 38t-28 97q0 73 44.5 134t115.5 61z" />
    <glyph glyph-name="foursuperior" unicode="&#x2074;" horiz-adv-x="287" 
d="M172 523l-73 -92h60zM225 366l-10 -74h-75l10 74h-135l7 52l153 194h85l-25 -181h47l-9 -65h-48z" />
    <glyph glyph-name="fivesuperior" unicode="&#x2075;" horiz-adv-x="264" 
d="M15 320l37 63q39 -27 70 -27q17 0 32 10t19 26q4 4 4 15q0 13 -8.5 21.5t-26.5 11.5t-29.5 3.5t-34.5 0.5l-23 -1l29 169h176l-10 -65h-112l-8 -39q125 0 125 -88q0 -56 -41 -95t-97 -39q-25 0 -55 9.5t-47 24.5z" />
    <glyph glyph-name="sixsuperior" unicode="&#x2076;" horiz-adv-x="250" 
d="M86 386q0 -17 10.5 -28t27.5 -11q21 0 35.5 16.5t14.5 38.5q0 17 -10 28t-27 11q-21 0 -36 -16.5t-15 -38.5zM151 612h79l-78 -115q8 2 12 2q37 0 59.5 -25.5t22.5 -63.5q0 -54 -38.5 -89.5t-92.5 -35.5q-44 0 -72 24t-28 67q0 20 9.5 45t28 54.5t32.5 49.5t37.5 50
t28.5 37z" />
    <glyph glyph-name="sevensuperior" unicode="&#x2077;" horiz-adv-x="260" 
d="M261 612l-7 -53q-22 -40 -47.5 -84.5t-57 -98.5t-48.5 -84h-86l150 254h-116l9 66h203z" />
    <glyph glyph-name="eightsuperior" unicode="&#x2078;" horiz-adv-x="254" 
d="M89 387q0 -17 11 -27.5t28 -10.5q20 0 35 15t15 35q0 16 -11 27.5t-27 11.5q-19 0 -35 -16t-16 -35zM157 563q-14 0 -24.5 -11t-10.5 -25q0 -11 7.5 -19t18.5 -8q14 0 25 11t11 25q0 12 -8 19.5t-19 7.5zM75 474q-17 18 -17 47q0 43 32 71.5t75 28.5q35 0 59.5 -20
t24.5 -54q0 -45 -36 -74q33 -23 33 -67q0 -51 -38 -84.5t-90 -33.5q-42 0 -70.5 23.5t-28.5 63.5q0 63 56 99z" />
    <glyph glyph-name="ninesuperior" unicode="&#x2079;" horiz-adv-x="255" 
d="M179 519q0 16 -10.5 27.5t-26.5 11.5q-22 0 -36.5 -17t-14.5 -39q0 -17 10.5 -28t26.5 -11q22 0 36.5 17t14.5 39zM114 292h-79l78 115q-6 -2 -11 -2q-37 0 -60 26t-23 63q0 55 38.5 90.5t92.5 35.5q44 0 72 -24.5t28 -67.5q0 -19 -9.5 -44t-28.5 -55t-32.5 -49
t-37.5 -51t-28 -37z" />
    <glyph glyph-name="parenleftsuperior" unicode="&#x207d;" horiz-adv-x="132" 
d="M137 322q-9 -14 -40 -47q-75 62 -75 155q0 62 35.5 117t91.5 94l27 -46q-39 -20 -65.5 -67.5t-26.5 -93.5q0 -68 53 -112z" />
    <glyph glyph-name="parenrightsuperior" unicode="&#x207e;" horiz-adv-x="140" 
d="M-1 322q41 27 66 69.5t25 89.5q0 31 -14.5 65t-38.5 48l39 46q76 -61 76 -156q0 -62 -35.5 -116.5t-91.5 -92.5q-21 32 -26 47z" />
    <glyph glyph-name="zeroinferior" unicode="&#x2080;" horiz-adv-x="306" 
d="M225 182q0 72 -47 72q-38 0 -57.5 -40.5t-19.5 -82.5q0 -72 49 -72q37 0 56 40.5t19 82.5zM187 323q56 0 84 -38.5t28 -95.5q0 -75 -43 -136.5t-115 -61.5q-56 0 -84.5 38t-28.5 96q0 75 44 136.5t115 61.5z" />
    <glyph glyph-name="oneinferior" unicode="&#x2081;" horiz-adv-x="164" 
d="M166 321l-45 -321h-76l34 243l-52 -20l-6 64l82 34h63z" />
    <glyph glyph-name="twoinferior" unicode="&#x2082;" horiz-adv-x="270" 
d="M168 327q42 0 69.5 -20.5t27.5 -61.5q0 -32 -24.5 -63t-64 -63t-52.5 -49h127l-10 -70h-226q5 37 7 44q7 29 35 56.5t56.5 44.5t51.5 38.5t23 41.5q0 34 -45 34q-33 0 -70 -27l-18 52q48 43 113 43z" />
    <glyph glyph-name="threeinferior" unicode="&#x2083;" horiz-adv-x="270" 
d="M15 29l33 55q33 -24 67 -24q23 0 42.5 12t19.5 33q0 7 -3.5 12.5t-11.5 8.5t-15 5.5t-18.5 3t-17.5 0.5h-17.5h-12.5l8 55l69 62h-96l9 66h194l-8 -61l-64 -61q28 -7 45 -29.5t17 -52.5q0 -54 -42.5 -88.5t-97.5 -34.5q-25 0 -54.5 10.5t-45.5 27.5z" />
    <glyph glyph-name="fourinferior" unicode="&#x2084;" horiz-adv-x="287" 
d="M172 233l-72 -91h59zM226 77l-11 -77h-76l11 77h-135l7 52l153 192h85l-25 -179h47l-9 -65h-47z" />
    <glyph glyph-name="fiveinferior" unicode="&#x2085;" horiz-adv-x="264" 
d="M15 26l37 63q35 -28 70 -28q17 0 32 10.5t19 25.5q4 4 4 15q0 13 -8.5 21.5t-26.5 11.5t-29.5 3.5t-34.5 -0.5h-23l29 170h176l-10 -66h-112l-8 -39q125 0 125 -88q0 -56 -40.5 -95t-97.5 -39q-25 0 -55 10t-47 25z" />
    <glyph glyph-name="sixinferior" unicode="&#x2086;" horiz-adv-x="254" 
d="M89 94q0 -17 10.5 -28.5t27.5 -11.5q22 0 36.5 16.5t14.5 38.5q0 18 -10 29.5t-28 11.5q-21 0 -36 -17t-15 -39zM150 321h80l-77 -116q8 2 13 2q38 0 60.5 -24t22.5 -62q0 -55 -37.5 -92.5t-93.5 -37.5q-45 0 -74 23.5t-29 67.5q0 20 9.5 45t28 55t32 50t37.5 51.5
t28 37.5z" />
    <glyph glyph-name="seveninferior" unicode="&#x2087;" horiz-adv-x="258" 
d="M259 321l-8 -56l-143 -247q-9 -15 -10 -18h-83l150 253h-118l9 68h203z" />
    <glyph glyph-name="eightinferior" unicode="&#x2088;" horiz-adv-x="254" 
d="M89 92q0 -16 11 -26.5t28 -10.5q20 0 35 15t15 34q0 16 -11 27.5t-27 11.5q-20 0 -35.5 -15.5t-15.5 -35.5zM157 266q-13 0 -23.5 -10.5t-10.5 -24.5q0 -11 7.5 -18t18.5 -7q13 0 23.5 10t10.5 24q0 11 -7.5 18.5t-18.5 7.5zM76 179q-18 19 -18 48q0 43 32 71t75 28
q35 0 59.5 -19.5t24.5 -53.5q0 -45 -36 -74q33 -23 33 -68q0 -51 -38 -84.5t-90 -33.5q-42 0 -70.5 23.5t-28.5 64.5q0 30 15.5 56.5t41.5 41.5z" />
    <glyph glyph-name="nineinferior" unicode="&#x2089;" horiz-adv-x="258" 
d="M178 226q0 17 -10 27.5t-26 10.5q-22 0 -36.5 -16.5t-14.5 -38.5q0 -17 10.5 -28t26.5 -11q22 0 36 17t14 39zM114 0h-79l78 114q-6 -2 -11 -2q-37 0 -60 26t-23 63q0 55 38.5 90.5t93.5 35.5q43 0 71 -24.5t28 -67.5q0 -20 -9 -44.5t-29 -55t-31.5 -48t-38 -51.5
t-28.5 -36z" />
    <glyph glyph-name="parenleftinferior" unicode="&#x208d;" horiz-adv-x="147" 
d="M136 21q-11 -16 -39 -47q-75 61 -75 154q0 63 35 118.5t91 93.5l27 -46q-39 -21 -65.5 -68.5t-26.5 -92.5q0 -68 53 -112z" />
    <glyph glyph-name="parenrightinferior" unicode="&#x208e;" horiz-adv-x="147" 
d="M-10 17q41 28 66 70t25 89q0 31 -15 65t-38 49l39 45q75 -59 75 -155q0 -63 -35 -117.5t-91 -92.5q-20 31 -26 47z" />
    <glyph glyph-name="franc" unicode="&#x20a3;" horiz-adv-x="543" 
d="M536 514h-275l-18 -131h204l-14 -99h-204l-14 -100h113l-12 -81h-113l-14 -103h-103l14 103h-58l11 81h59l60 428h378z" />
    <glyph glyph-name="lira" unicode="&#x20a4;" horiz-adv-x="507" 
d="M419 533q-103 0 -131 -183h116l-10 -69h-116q-6 -39 -32 -105t-50 -82h230l-13 -92h-370l13 92h13q28 0 54 38t39.5 78.5t17.5 70.5h-88l10 69h88q6 67 31.5 126.5t77 102.5t119.5 43q37 0 74 -13t56 -39l-43 -68q-36 31 -86 31z" />
    <glyph glyph-name="Euro" unicode="&#x20ac;" horiz-adv-x="668" 
d="M409 102q34 0 74.5 14t65.5 35l33 -100q-36 -29 -92.5 -45.5t-106.5 -16.5q-104 0 -175 63t-81 166h-83l8 58h76q0 26 6 50h-75l8 58h82q38 104 127.5 170t199.5 66q45 0 98.5 -18t81.5 -48l-63 -99q-21 21 -57.5 36t-66.5 15q-61 0 -112.5 -33t-79.5 -89h164l-8 -58
h-178q-6 -32 -6 -50h177l-8 -58h-161q13 -55 54 -85.5t98 -30.5z" />
    <glyph glyph-name="afii61352" unicode="&#x2116;" horiz-adv-x="934" 
d="M483 612h118l-86 -612h-120l-179 404l-57 -404h-117l86 612h119l179 -406zM881 284l-11 -77h-240l11 77h240zM800 580q48 0 80.5 -31t32.5 -79q0 -60 -44.5 -104.5t-104.5 -44.5q-49 0 -81.5 31t-32.5 80q0 60 45 104t105 44zM790 515q-28 0 -50 -21.5t-22 -50.5
q0 -23 15.5 -39t38.5 -16q29 0 51.5 22t22.5 51q0 24 -16 39t-40 15z" />
    <glyph glyph-name="minus" unicode="&#x2212;" horiz-adv-x="466" 
d="M426 241h-400l15 105h400z" />
    <glyph glyph-name="uni2215" unicode="&#x2215;" horiz-adv-x="466" 
d="M456 667l-345 -708h-100l345 708h100z" />
    <glyph glyph-name="uni2219" unicode="&#x2219;" horiz-adv-x="233" 
d="M213 325q0 -37 -27.5 -64.5t-64.5 -27.5q-30 0 -50 19.5t-20 49.5q0 37 28 65t65 28q30 0 49.5 -20t19.5 -50z" />
    <glyph glyph-name="radical" unicode="&#x221a;" horiz-adv-x="816" 
d="M828 747l-508 -818l-122 285h-139l13 92h199l70 -170l372 611h115z" />
    <glyph glyph-name="approxequal" unicode="&#x2248;" horiz-adv-x="452" 
d="M126 329l-66 39q57 88 135 88q21 0 56 -14.5t54 -14.5q39 0 60 32l72 -41q-55 -82 -128 -82q-25 0 -59 15.5t-54 15.5q-42 0 -70 -38zM105 151l-66 40q57 88 135 88q21 0 56 -14.5t54 -14.5q39 0 60 32l72 -42q-57 -81 -128 -81q-26 0 -60 15.5t-53 15.5q-43 0 -70 -39z
" />
    <glyph glyph-name="notequal" unicode="&#x2260;" horiz-adv-x="494" 
d="M468 659l-87 -177h100l-15 -105h-137l-51 -103h174l-14 -104h-212l-104 -211h-73l104 211h-114l14 104h152l51 103h-189l15 105h226l87 177h73z" />
    <glyph glyph-name="lessequal" unicode="&#x2264;" 
d="M427 24h-388l15 106h388zM451 191l-372 114l16 115l404 113l-14 -99l-282 -72l262 -71z" />
    <glyph glyph-name="greaterequal" unicode="&#x2265;" horiz-adv-x="497" 
d="M54 130h388l-15 -106h-388zM466 305l-404 -114l14 100l282 71l-262 72l14 99l372 -113z" />
    <glyph glyph-name="triangle" unicode="&#x25b3;" horiz-adv-x="238" 
d="M225 291l-186 -107l30 216z" />
    <glyph glyph-name="circle" unicode="&#x25cb;" horiz-adv-x="287" 
d="M62 276q0 48 37 84.5t84 36.5q40 0 66.5 -26t26.5 -65q0 -48 -37 -84.5t-85 -36.5q-39 0 -65.5 26t-26.5 65z" />
    <glyph glyph-name="f_f_i" unicode="&#xfb03;" horiz-adv-x="853" 
d="M853 519l-73 -519h-111l59 422h-149l-84 -602h-109l85 602h-75h-1h-150l-85 -602h-109l85 602h-76l14 97h76q11 80 67.5 138.5t134.5 58.5q75 -2 108 -33l-45 -74q-24 12 -52 12q-43 0 -70 -29t-33 -73h149h1h74q12 80 68 138.5t134 58.5q75 -2 108 -33l-45 -74
q-24 12 -52 12q-43 0 -70 -29t-33 -73h148h2h109z" />
    <glyph glyph-name="A.sc" horiz-adv-x="505" 
d="M342 123h-167l-58 -123h-110l244 520h126l99 -520h-110zM330 219l-32 189l-84 -189h116z" />
    <glyph glyph-name="AE.001" horiz-adv-x="682" 
d="M271 219l26 185l-83 -185h57zM657 422h-255l-15 -108h203l-13 -88h-203l-18 -128h256l-14 -98h-358l18 124h-83l-59 -124h-109l244 520h420z" />
    <glyph glyph-name="AEacute.001" horiz-adv-x="682" 
d="M271 219l26 185l-83 -185h57zM657 422h-255l-15 -108h203l-13 -88h-203l-18 -128h256l-14 -98h-358l18 124h-83l-59 -124h-109l244 520h420zM451 603h-92l62 119h113z" />
    <glyph glyph-name="Aacute.001" horiz-adv-x="504" 
d="M214 219h116l-32 187zM376 520l99 -520h-109l-25 124h-166l-59 -124h-109l244 520h125zM383 616h-92l62 120h113z" />
    <glyph glyph-name="Abreve.001" horiz-adv-x="503" 
d="M383 706h67q-7 -49 -41.5 -79t-83.5 -30q-42 0 -69 23.5t-27 65.5q0 6 2 20h67q0 -2 -0.5 -7t-0.5 -7q0 -16 10.5 -26.5t26.5 -10.5q20 0 33.5 15t15.5 36zM365 0l-23 124h-169l-58 -124h-108l244 519h124l98 -519h-108zM212 218h118l-33 190z" />
    <glyph glyph-name="Acircumflex.001" horiz-adv-x="503" 
d="M291 598h-74l74 126h104l38 -126h-74l-25 67zM365 0l-23 124h-169l-58 -124h-108l244 519h124l98 -519h-108zM212 218h118l-33 190z" />
    <glyph glyph-name="Adieresis.001" horiz-adv-x="501" 
d="M417 598q-21 0 -34.5 13t-13.5 34q0 25 19 44t44 19q20 0 34.5 -13.5t14.5 -33.5q0 -25 -19.5 -44t-44.5 -19zM233 598q-21 0 -34.5 13.5t-13.5 33.5q0 25 19 44t44 19q20 0 34.5 -13.5t14.5 -33.5q0 -25 -19.5 -44t-44.5 -19zM365 0l-23 124h-169l-58 -124h-108l244 519
h124l98 -519h-108zM212 218h118l-33 190z" />
    <glyph glyph-name="Agrave.001" horiz-adv-x="503" 
d="M375 519l98 -519h-108l-23 124h-169l-58 -124h-108l244 519h124zM212 218h118l-33 190zM226 717h114l28 -118h-92z" />
    <glyph glyph-name="Amacron.001" horiz-adv-x="541" 
d="M516 619h-377l11 73h377zM365 0l-23 124h-169l-58 -124h-108l244 519h124l98 -519h-108zM212 218h118l-33 190z" />
    <glyph glyph-name="Aogonek.001" horiz-adv-x="530" 
d="M360 -72q0 37 33 72h-28l-24 123h-166l-59 -123h-109l244 519h125l99 -519q-43 -16 -43 -56q0 -24 26 -24q15 0 28 9l17 -44q-25 -21 -64 -21q-32 0 -55.5 17t-23.5 47zM214 218h116l-32 187z" />
    <glyph glyph-name="Aring.001" horiz-adv-x="500" 
d="M295 644q0 -14 9 -23t23 -9q17 0 30.5 13t13.5 30q0 13 -10 22.5t-24 9.5q-17 0 -29.5 -13t-12.5 -30zM321 567q-31 0 -51.5 20t-20.5 51q0 37 28.5 65t66.5 28q30 0 51 -20t21 -50q0 -37 -28.5 -65.5t-66.5 -28.5zM365 0l-23 124h-169l-58 -124h-108l244 519h124
l98 -519h-108zM212 218h118l-33 190z" />
    <glyph glyph-name="Atilde.001" horiz-adv-x="530" 
d="M375 519l98 -519h-108l-23 124h-169l-58 -124h-108l244 519h124zM212 218h118l-33 190zM218 605l-65 45q53 75 127 75q20 0 55 -13t55 -13q36 0 55 29l71 -39q-2 -3 -11.5 -16t-13 -16.5t-12 -13.5t-14.5 -13.5t-15 -8.5t-19 -7t-22 -2q-23 0 -62 14.5t-59 14.5
q-40 0 -70 -36z" />
    <glyph glyph-name="B.sc" horiz-adv-x="480" 
d="M273 0h-231l73 520h193q57 0 95.5 -30.5t38.5 -85.5q0 -69 -54 -120q67 -26 67 -103q0 -76 -52.5 -128.5t-129.5 -52.5zM293 440h-87l-17 -123h86q32 0 53.5 20t21.5 52q0 24 -16.5 37.5t-40.5 13.5zM289 232h-112l-21 -150h112q32 0 56.5 27.5t24.5 59.5
q0 26 -17.5 44.5t-42.5 18.5z" />
    <glyph glyph-name="C.sc" horiz-adv-x="509" 
d="M408 134l30 -87q-77 -55 -170 -55q-98 0 -159.5 62t-61.5 159q0 128 85 221.5t211 93.5q36 0 87 -15.5t67 -39.5l-54 -86q-41 43 -106 43q-79 0 -131 -59.5t-52 -139.5q0 -63 36.5 -101t99.5 -38q28 0 63.5 12t54.5 30z" />
    <glyph glyph-name="Cacute.001" horiz-adv-x="508" 
d="M407 134l30 -87q-71 -54 -169 -54t-159.5 61.5t-61.5 159.5q0 127 85 220.5t211 93.5q36 0 87 -15.5t67 -39.5l-54 -86q-41 43 -106 43q-79 0 -131.5 -59.5t-52.5 -139.5q0 -63 37 -101t100 -38q26 0 63 12.5t54 29.5zM381 603h-92l62 119h113z" />
    <glyph glyph-name="Ccaron.001" horiz-adv-x="508" 
d="M407 134l30 -87q-71 -54 -169 -54t-159.5 61.5t-61.5 159.5q0 127 85 220.5t211 93.5q36 0 87 -15.5t67 -39.5l-54 -86q-41 43 -106 43q-79 0 -131.5 -59.5t-52.5 -139.5q0 -63 37 -101t100 -38q26 0 63 12.5t54 29.5zM348 653l51 71h67l-73 -126h-104l-39 126h68z" />
    <glyph glyph-name="Ccedilla.001" horiz-adv-x="508" 
d="M197 3q-69 20 -109.5 76.5t-40.5 134.5q0 83 37.5 154.5t106 115.5t152.5 44q36 0 87 -15.5t67 -39.5l-54 -86q-13 13 -30.5 23t-37 15t-38.5 5q-79 0 -131.5 -59.5t-52.5 -139.5q0 -63 37 -101t100 -38q26 0 63 12.5t54 29.5l30 -87q-16 -12 -35.5 -22t-40 -16.5
t-42 -10.5t-42.5 -5l-55 -116l-100 7z" />
    <glyph glyph-name="Ccircumflex.001" horiz-adv-x="508" 
d="M407 134l30 -87q-71 -54 -169 -54t-159.5 61.5t-61.5 159.5q0 127 85 220.5t211 93.5q36 0 87 -15.5t67 -39.5l-54 -86q-41 43 -106 43q-79 0 -131.5 -59.5t-52.5 -139.5q0 -63 37 -101t100 -38q26 0 63 12.5t54 29.5zM357 665l-43 -67h-74l73 126h104l38 -126h-73z" />
    <glyph glyph-name="Cdotaccent.001" horiz-adv-x="508" 
d="M407 134l30 -87q-71 -54 -169 -54t-159.5 61.5t-61.5 159.5q0 127 85 220.5t211 93.5q36 0 87 -15.5t67 -39.5l-54 -86q-41 43 -106 43q-79 0 -131.5 -59.5t-52.5 -139.5q0 -63 37 -101t100 -38q26 0 63 12.5t54 29.5zM327 594q-22 0 -36.5 14.5t-14.5 36.5
q0 26 20.5 46.5t47.5 20.5q21 0 36 -14.5t15 -36.5q0 -26 -21 -46.5t-47 -20.5z" />
    <glyph glyph-name="D.sc" horiz-adv-x="511" 
d="M210 0h-168l73 520h168q100 0 157 -55.5t57 -154.5q0 -126 -81.5 -218t-205.5 -92zM269 422h-65l-46 -324h52q21 0 31 1q65 7 104.5 67t39.5 129q0 57 -29.5 92t-86.5 35z" />
    <glyph glyph-name="DEL" horiz-adv-x="494" 
d="M465 200h-423l15 105h423z" />
    <glyph glyph-name="Dcaron.001" horiz-adv-x="511" 
d="M385 295q0 127 -130 127h-51l-46 -324h51q21 0 32 1q65 7 104.5 67t39.5 129zM209 0h-167l73 520h167q100 0 157 -55.5t57 -154.5q0 -126 -81 -218t-206 -92zM314 653l51 71h67l-74 -126h-104l-38 126h67z" />
    <glyph glyph-name="E.sc" horiz-adv-x="484" 
d="M204 422l-15 -108h203l-13 -88h-203l-18 -128h256l-14 -98h-358l73 520h358l-14 -98h-255z" />
    <glyph glyph-name="Eacute.001" horiz-adv-x="484" 
d="M115 520h358l-14 -98h-255l-16 -108h203l-12 -88h-203l-18 -128h255l-13 -98h-358zM417 725l-84 -120h-92l62 120h114z" />
    <glyph glyph-name="Ebreve.001" horiz-adv-x="484" 
d="M459 422h-255l-16 -108h203l-12 -88h-203l-18 -128h255l-14 -98h-357l73 520h358zM370 705h67q-7 -49 -41 -79.5t-83 -30.5q-42 0 -69.5 24t-27.5 66q0 13 1 20h68q-1 -5 -1 -14q0 -16 10 -26.5t26 -10.5q21 0 34.5 15t15.5 36z" />
    <glyph glyph-name="Ecaron.001" horiz-adv-x="484" 
d="M459 422h-255l-16 -108h203l-12 -88h-203l-18 -128h255l-14 -98h-357l73 520h358zM320 653l51 72h67l-74 -126h-104l-38 126h67z" />
    <glyph glyph-name="Ecircumflex.001" horiz-adv-x="484" 
d="M459 422h-255l-16 -108h203l-12 -88h-203l-18 -128h255l-14 -98h-357l73 520h358zM324 665l-43 -67h-74l74 126h103l38 -126h-73z" />
    <glyph glyph-name="Edieresis.001" horiz-adv-x="484" 
d="M459 422h-255l-16 -108h203l-12 -88h-203l-18 -128h255l-14 -98h-357l73 520h358zM404 596q-21 0 -35 13.5t-14 34.5q0 25 19.5 44t44.5 19q21 0 35 -13.5t14 -34.5q0 -25 -19.5 -44t-44.5 -19zM220 596q-20 0 -34 14t-14 34q0 25 19.5 44t44.5 19q20 0 34 -13.5
t14 -34.5q0 -25 -19.5 -44t-44.5 -19z" />
    <glyph glyph-name="Edotaccent.001" horiz-adv-x="484" 
d="M459 422h-255l-16 -108h203l-12 -88h-203l-18 -128h255l-14 -98h-357l73 520h358zM307 595q-22 0 -36.5 14t-14.5 36q0 27 20.5 47t46.5 20q22 0 36.5 -14t14.5 -36q0 -27 -20.5 -47.5t-46.5 -19.5z" />
    <glyph glyph-name="Egrave.001" horiz-adv-x="484" 
d="M115 520h358l-14 -98h-255l-16 -108h203l-12 -88h-203l-18 -128h255l-13 -98h-358zM330 725l29 -119h-92l-50 119h113z" />
    <glyph glyph-name="Emacron.001" horiz-adv-x="527" 
d="M459 422h-255l-16 -108h203l-12 -88h-203l-18 -128h255l-14 -98h-357l73 520h358zM516 693l-11 -73h-377l11 73h377z" />
    <glyph glyph-name="Eogonek.001" horiz-adv-x="484" 
d="M409 -76l16 -45q-27 -21 -67 -21q-33 0 -57.5 17t-24.5 48q0 42 36 77h-270l73 520h358l-14 -98h-255l-16 -108h203l-12 -88h-203l-18 -128h255l-14 -98q-51 -26 -51 -63q0 -24 28 -24q15 0 33 11z" />
    <glyph glyph-name="Euro.001" horiz-adv-x="396" 
d="M236 282q-55 0 -94 31.5t-47 85.5h-51l6 41h44l3 24h-44l6 41h50q21 54 69.5 88t105.5 34q27 0 57 -10t43 -27q-20 -34 -37 -57q-27 27 -67 27q-63 0 -95 -55h99l-6 -41h-111l-3 -24h111l-6 -41h-97q19 -51 78 -51q9 0 17 1.5t16.5 5t13.5 5.5t15 8t14 8l20 -58
q-17 -16 -50 -26t-60 -10z" />
    <glyph glyph-name="F.sc" horiz-adv-x="467" 
d="M189 318h190l-14 -98h-189l-31 -220h-103l73 520h360l-14 -98h-257z" />
    <glyph glyph-name="G.sc" horiz-adv-x="533" 
d="M390 268h102l-28 -201q-2 -10 -4 -17q-82 -60 -183 -60q-102 0 -166 61.5t-64 162.5q0 128 89 220.5t216 92.5q46 0 95 -14t74 -43l-54 -87q-45 45 -109 45q-82 0 -140.5 -58.5t-58.5 -140.5q0 -68 43 -104t113 -36q34 0 53 20z" />
    <glyph glyph-name="Gbreve.001" horiz-adv-x="532" 
d="M390 268h102l-28 -201q-2 -12 -4 -16q-84 -60 -183 -60q-102 0 -166 61t-64 162q0 128 89 220.5t216 92.5q45 0 94.5 -14t74.5 -43l-54 -86q-14 18 -49 31t-61 13q-81 0 -139.5 -58.5t-58.5 -140.5q0 -68 43 -104t113 -36q33 0 53 20zM350 660q42 0 49 51h67
q-6 -49 -40.5 -79.5t-83.5 -30.5q-42 0 -69 24t-27 65q0 14 1 21h68q-3 -22 5.5 -36.5t29.5 -14.5z" />
    <glyph glyph-name="Gcircumflex.001" horiz-adv-x="532" 
d="M460 51q-88 -60 -183 -60q-102 0 -166 61t-64 162q0 128 89 220.5t216 92.5q45 0 94.5 -14t74.5 -43l-54 -86q-46 44 -110 44q-82 0 -140 -59t-58 -141q0 -67 41.5 -102.5t110.5 -35.5q38 0 57 19l22 159h102l-28 -201q-2 -12 -4 -16zM345 665l-43 -67h-74l73 126h104
l38 -126h-73z" />
    <glyph glyph-name="Gcommaaccent.001" horiz-adv-x="532" 
d="M460 51q-88 -60 -183 -60q-102 0 -166 61t-64 162q0 128 89 220.5t216 92.5q45 0 94.5 -14t74.5 -43l-54 -86q-46 44 -110 44q-82 0 -140 -59t-58 -141q0 -67 41.5 -102.5t110.5 -35.5q38 0 57 19l22 159h102l-28 -201q-2 -12 -4 -16zM213 -274h-1l-22 47q14 8 20 12
t14 13t12 20h-5q-23 0 -38 17t-15 42q0 30 23.5 50t54.5 20q29 0 44.5 -20.5t15.5 -50.5q0 -41 -32.5 -90t-70.5 -60z" />
    <glyph glyph-name="Gdotaccent.001" horiz-adv-x="532" 
d="M460 51q-88 -60 -183 -60q-102 0 -166 61t-64 162q0 128 89 220.5t216 92.5q45 0 94.5 -14t74.5 -43l-54 -86q-46 44 -110 44q-82 0 -140 -59t-58 -141q0 -67 41.5 -102.5t110.5 -35.5q38 0 57 19l22 159h102l-28 -201q-2 -12 -4 -16zM342 595q-22 0 -36 14.5t-14 36.5
q0 26 20 46t47 20q21 0 36 -14.5t15 -35.5q0 -26 -21 -46.5t-47 -20.5z" />
    <glyph glyph-name="H.sc" horiz-adv-x="530" 
d="M519 520l-73 -520h-103l32 228h-198l-32 -228h-103l73 520h103l-28 -194h198l28 194h103z" />
    <glyph glyph-name="Hbar.001" horiz-adv-x="601" 
d="M590 462l-10 -71h-59l-55 -391h-102l33 229h-201l-32 -229h-101l55 391h-73l10 71h73l8 57h101l-8 -57h200l8 57h102l-8 -57h59zM410 325l9 66h-200l-9 -66h200z" />
    <glyph glyph-name="Hcircumflex.001" horiz-adv-x="530" 
d="M416 520h102l-73 -520h-102l32 228h-199l-32 -228h-102l73 520h102l-27 -194h199zM337 665l-43 -67h-74l73 126h104l38 -126h-73z" />
    <glyph glyph-name="I.sc" horiz-adv-x="229" 
d="M218 520l-73 -520h-103l73 520h103z" />
    <glyph glyph-name="Iacute.001" horiz-adv-x="242" 
d="M217 520l-73 -520h-102l73 520h102zM311 722l-83 -119h-92l62 119h113z" />
    <glyph glyph-name="Ibreve.001" horiz-adv-x="258" 
d="M217 520l-73 -520h-102l73 520h102zM235 709h67q-7 -49 -41 -79t-83 -30q-42 0 -69.5 23.5t-27.5 65.5q0 6 2 20h68q-1 -5 -1 -14q0 -17 10 -27t26 -10q21 0 34 14.5t15 36.5z" />
    <glyph glyph-name="Icircumflex.001" horiz-adv-x="240" 
d="M217 520l-73 -520h-102l73 520h102zM187 665l-43 -67h-74l73 126h104l38 -126h-73z" />
    <glyph glyph-name="Idieresis.001" horiz-adv-x="269" 
d="M224 520l-73 -520h-103l73 520h103zM274 596q-20 0 -34 13.5t-14 34.5q0 25 19.5 44t44.5 19q20 0 34 -13.5t14 -34.5q0 -25 -19.5 -44t-44.5 -19zM91 596q-20 0 -34 14t-14 34q0 25 19.5 44t44.5 19q20 0 34 -13.5t14 -34.5q0 -25 -19.5 -44t-44.5 -19z" />
    <glyph glyph-name="Idotaccent.001" horiz-adv-x="238" 
d="M217 520l-73 -520h-102l73 520h102zM176 595q-22 0 -36.5 14t-14.5 36q0 27 20.5 47t46.5 20q22 0 36.5 -14.5t14.5 -35.5q0 -27 -20.5 -47t-46.5 -20z" />
    <glyph glyph-name="Igrave.001" horiz-adv-x="239" 
d="M217 520l-73 -520h-102l73 520h102zM199 722l29 -119h-92l-51 119h114z" />
    <glyph glyph-name="Imacron.001" horiz-adv-x="242" 
d="M195 520l-73 -520h-102l73 520h102zM355 675l-11 -72h-377l11 72h377z" />
    <glyph glyph-name="Iogonek.001" horiz-adv-x="245" 
d="M170 -74l16 -44q-22 -21 -64 -21q-32 0 -55 17t-23 49q0 20 8 38.5t16 26.5l9 8h-19l73 519h103l-73 -519q-18 0 -34.5 -15.5t-16.5 -39.5q0 -29 27 -29q15 0 33 10z" />
    <glyph glyph-name="Itilde.001" horiz-adv-x="251" 
d="M197 520l-73 -520h-103l73 520h103zM-8 637q17 33 53.5 54t73.5 21q19 0 55 -13t54 -13q36 0 55 28l72 -39q-16 -32 -45.5 -54.5t-61.5 -22.5q-24 0 -63 15t-58 15q-41 0 -70 -37z" />
    <glyph glyph-name="J.sc" horiz-adv-x="403" 
d="M25 42l55 87q39 -34 79 -34q69 0 84 100l46 324h102l-36 -255q-6 -46 -11.5 -75.5t-20 -71t-33.5 -66.5t-53 -43t-78 -18q-35 0 -75.5 14t-58.5 38z" />
    <glyph glyph-name="Jcircumflex.001" horiz-adv-x="441" 
d="M289 519h102l-37 -265q-6 -44 -12 -74t-20.5 -69t-34 -62.5t-52.5 -40.5t-76 -17q-36 0 -75 13t-59 37l55 88q36 -34 79 -34q69 0 84 100zM363 665l-43 -67h-74l73 126h104l38 -126h-73z" />
    <glyph glyph-name="K.sc" horiz-adv-x="481" 
d="M451 0h-123l-149 245l-34 -245h-103l73 520h103l-26 -186l189 186h120l-222 -224z" />
    <glyph glyph-name="Kcommaaccent.001" horiz-adv-x="480" 
d="M279 296l172 -296h-123l-149 245l-35 -245h-102l73 520h102l-26 -186l190 186h119zM163 -274l-22 47q39 24 45 45h-5q-23 0 -38 17t-15 42q0 30 23.5 50t55.5 20q29 0 44 -20.5t15 -50.5q0 -41 -32.5 -90t-70.5 -60z" />
    <glyph glyph-name="L.sc" horiz-adv-x="330" 
d="M304 0h-262l73 520h103l-60 -422h160z" />
    <glyph glyph-name="Lacute.001" horiz-adv-x="336" 
d="M314 722l-84 -119h-92l62 119h114zM317 98l-13 -98h-262l73 520h102l-59 -422h159z" />
    <glyph glyph-name="Lcaron.001" horiz-adv-x="329" 
d="M317 98l-13 -98h-262l73 520h102l-59 -422h159zM187 653l51 71h67l-74 -126h-104l-38 126h67z" />
    <glyph glyph-name="Lcaron.2" horiz-adv-x="479" 
d="M217 520l-59 -422h159l-13 -98h-262l73 520h102zM481 569l-84 -119h-93l63 119h114z" />
    <glyph glyph-name="Lcommaaccent.001" horiz-adv-x="344" 
d="M169 -61q30 0 49.5 -21t19.5 -52q0 -43 -34 -93t-74 -62l-22 48q17 6 31 20t19 31q-26 -4 -43.5 16.5t-17.5 49.5q0 27 21.5 45t50.5 18zM304 0h-262l73 520h103l-60 -422h160z" />
    <glyph glyph-name="Ldot.001" horiz-adv-x="412" 
d="M317 98l-13 -98h-262l73 520h102l-59 -422h159zM338 224q-22 0 -36.5 14.5t-14.5 36.5q0 26 20.5 46.5t46.5 20.5q22 0 36.5 -14.5t14.5 -36.5q0 -26 -20.5 -46.5t-46.5 -20.5z" />
    <glyph glyph-name="Lslash.001" horiz-adv-x="455" 
d="M245 98h159l-14 -98h-261l30 217l-117 -59l11 81l118 60l31 221h102l-24 -171l164 83l-12 -81l-163 -83z" />
    <glyph glyph-name="M.sc" horiz-adv-x="637" 
d="M553 0h-101l53 372l-182 -192l-128 190l-52 -370h-101l73 520h95l133 -196l189 196h94z" />
    <glyph glyph-name="N.sc" horiz-adv-x="530" 
d="M446 0h-104l-151 327l-46 -327h-103l73 520h103l151 -332l47 332h103z" />
    <glyph glyph-name="Nacute.001" horiz-adv-x="530" 
d="M265 601l64 120h115l-85 -120h-94zM446 0h-104l-151 326l-46 -326h-103l73 520h103l152 -331l46 331h103z" />
    <glyph glyph-name="Ncaron.001" horiz-adv-x="530" 
d="M389 724h68l-74 -128h-105l-38 128h69l30 -71zM446 0h-104l-151 326l-46 -326h-103l73 520h103l152 -331l46 331h103z" />
    <glyph glyph-name="Ncommaaccent.001" horiz-adv-x="530" 
d="M184 -274l-22 47q14 8 20 12t14 13t11 20h-4q-24 0 -39 17.5t-15 42.5q0 30 24 49.5t56 19.5q28 0 43 -21t15 -50q0 -41 -32.5 -90t-70.5 -60zM446 0h-104l-151 326l-46 -326h-103l73 520h103l152 -331l46 331h103z" />
    <glyph glyph-name="Ntilde.001" horiz-adv-x="544" 
d="M446 0h-104l-151 326l-46 -326h-103l73 520h103l152 -331l46 331h103zM232 604l-65 45q18 33 53.5 54t73.5 21q20 0 55.5 -13t54.5 -13q36 0 55 28l71 -39q-16 -32 -45 -54t-62 -22q-23 0 -62 14.5t-59 14.5q-40 0 -70 -36z" />
    <glyph glyph-name="O.sc" horiz-adv-x="548" 
d="M254 -9q-95 0 -151 60.5t-56 156.5q0 126 79.5 223t202.5 97q93 0 149 -62t56 -156q0 -128 -78 -223.5t-202 -95.5zM266 81q53 0 89.5 37t51 85t14.5 99q0 58 -25 96.5t-80 38.5q-40 0 -71.5 -21.5t-49 -55.5t-26.5 -71.5t-9 -74.5q0 -58 25.5 -95.5t80.5 -37.5z" />
    <glyph glyph-name="OE.001" horiz-adv-x="832" 
d="M315 441q-52 0 -89 -37t-52 -85.5t-15 -99.5q0 -58 25.5 -96t80.5 -38q53 0 90 37t51.5 85t14.5 100q0 58 -25 96t-81 38zM807 422h-256l-15 -108h203l-12 -88h-204l-18 -128h256l-14 -98h-358l8 52q-67 -56 -148 -56q-94 0 -148 60t-54 156q0 127 78.5 224t202.5 97
q78 0 128 -58l6 45h358z" />
    <glyph glyph-name="Oacute.001" horiz-adv-x="548" 
d="M316 437q-52 0 -89.5 -37t-52.5 -85.5t-15 -99.5q0 -59 25.5 -96.5t81.5 -37.5q40 0 71.5 21t49 54.5t26 71t8.5 74.5q0 58 -25 96t-80 39zM329 528q93 0 148.5 -62t55.5 -157q0 -127 -78 -222.5t-202 -95.5q-94 0 -150 60.5t-56 156.5q0 126 79.5 223t202.5 97zM375 603
h-92l63 119h113z" />
    <glyph glyph-name="Obreve.001" horiz-adv-x="548" 
d="M399 708h67q-7 -49 -41.5 -79.5t-83.5 -30.5q-42 0 -69 24t-27 66q0 6 2 20h67q0 -2 -0.5 -7t-0.5 -7q0 -16 10.5 -26.5t26.5 -10.5q20 0 33.5 15t15.5 36zM254 -9q-95 0 -151 60.5t-56 156.5q0 126 79.5 223t202.5 97q93 0 149 -62t56 -156q0 -128 -78 -223.5
t-202 -95.5zM266 81q53 0 89.5 37t51 85t14.5 99q0 58 -25 96.5t-80 38.5q-40 0 -71.5 -21.5t-49 -55.5t-26.5 -71.5t-9 -74.5q0 -58 25.5 -95.5t80.5 -37.5z" />
    <glyph glyph-name="Ocircumflex.001" horiz-adv-x="548" 
d="M348 651l-43 -67h-74l74 126h103l38 -126h-72zM254 -9q-95 0 -151 60.5t-56 156.5q0 126 79.5 223t202.5 97q93 0 149 -62t56 -156q0 -128 -78 -223.5t-202 -95.5zM266 81q53 0 89.5 37t51 85t14.5 99q0 58 -25 96.5t-80 38.5q-40 0 -71.5 -21.5t-49 -55.5t-26.5 -71.5
t-9 -74.5q0 -58 25.5 -95.5t80.5 -37.5z" />
    <glyph glyph-name="Odieresis.001" horiz-adv-x="548" 
d="M431 600q-20 0 -34 13.5t-14 33.5q0 25 19.5 44.5t44.5 19.5q20 0 34 -13.5t14 -34.5q0 -25 -19 -44t-45 -19zM248 600q-20 0 -34 13.5t-14 33.5q0 25 19 44.5t45 19.5q20 0 34 -13.5t14 -34.5q0 -25 -19 -44t-45 -19zM254 -9q-95 0 -151 60.5t-56 156.5q0 126 79.5 223
t202.5 97q93 0 149 -62t56 -156q0 -128 -78 -223.5t-202 -95.5zM266 81q53 0 89.5 37t51 85t14.5 99q0 58 -25 96.5t-80 38.5q-40 0 -71.5 -21.5t-49 -55.5t-26.5 -71.5t-9 -74.5q0 -58 25.5 -95.5t80.5 -37.5z" />
    <glyph glyph-name="Ograve.001" horiz-adv-x="548" 
d="M252 722h114l29 -119h-92zM254 -9q-95 0 -151 60.5t-56 156.5q0 126 79.5 223t202.5 97q93 0 149 -62t56 -156q0 -128 -78 -223.5t-202 -95.5zM266 81q53 0 89.5 37t51 85t14.5 99q0 58 -25 96.5t-80 38.5q-40 0 -71.5 -21.5t-49 -55.5t-26.5 -71.5t-9 -74.5
q0 -58 25.5 -95.5t80.5 -37.5z" />
    <glyph glyph-name="Ohungarumlaut.001" horiz-adv-x="574" 
d="M469 603h-92l60 119h116zM294 603h-92l60 119h115zM254 -9q-95 0 -151 60.5t-56 156.5q0 126 79.5 223t202.5 97q93 0 149 -62t56 -156q0 -128 -78 -223.5t-202 -95.5zM266 81q53 0 89.5 37t51 85t14.5 99q0 58 -25 96.5t-80 38.5q-40 0 -71.5 -21.5t-49 -55.5
t-26.5 -71.5t-9 -74.5q0 -58 25.5 -95.5t80.5 -37.5z" />
    <glyph glyph-name="Omacron.001" horiz-adv-x="560" 
d="M540 693l-11 -73h-376l10 73h377zM254 -9q-95 0 -151 60.5t-56 156.5q0 126 79.5 223t202.5 97q93 0 149 -62t56 -156q0 -128 -78 -223.5t-202 -95.5zM266 81q53 0 89.5 37t51 85t14.5 99q0 58 -25 96.5t-80 38.5q-40 0 -71.5 -21.5t-49 -55.5t-26.5 -71.5t-9 -74.5
q0 -58 25.5 -95.5t80.5 -37.5z" />
    <glyph glyph-name="Oslash.001" horiz-adv-x="549" 
d="M462 482q72 -60 72 -174q0 -127 -78 -222.5t-202 -95.5q-40 0 -73 13l-41 -69h-71l56 96q-77 58 -77 176q0 126 79 223.5t202 97.5q41 0 78 -15l41 69h73zM316 435q-75 0 -115.5 -69t-40.5 -150q0 -55 21 -89l177 299q-17 9 -42 9zM266 80q52 0 88.5 35.5t51.5 82
t15 96.5q0 51 -18 83l-173 -288q14 -9 36 -9z" />
    <glyph glyph-name="Otilde.001" horiz-adv-x="553" 
d="M232 602q-18 12 -65 45q56 75 127 75q19 0 55 -13t54 -13q37 0 55 29l72 -39q-2 -3 -11.5 -16t-13 -16.5t-12 -13.5t-14.5 -13.5t-15 -8.5t-19 -7t-22 -2q-24 0 -63 14.5t-58 14.5q-44 0 -70 -36zM254 -11q-95 0 -151 60.5t-56 156.5q0 126 79.5 223.5t202.5 97.5
q93 0 149 -62t56 -157q0 -128 -78 -223.5t-202 -95.5zM266 79q53 0 89.5 37t51 85t14.5 100q0 58 -25 96t-80 38q-52 0 -89 -37t-52 -85.5t-15 -99.5q0 -58 25.5 -96t80.5 -38z" />
    <glyph glyph-name="P.sc" horiz-adv-x="489" 
d="M168 173l-24 -173h-102l73 520h225q57 0 95 -42.5t38 -100.5q0 -69 -43.5 -128t-109.5 -72q-22 -5 -46.5 -5.5t-59.5 0.5t-46 1zM315 422h-112l-21 -151h112q32 0 56.5 26t24.5 59q0 26 -17 46t-43 20z" />
    <glyph glyph-name="Q.sc" horiz-adv-x="548" 
d="M369 18l97 -130h-138l-77 105l-13 -1q-89 0 -140 62.5t-51 154.5q0 126 79 223.5t203 97.5q93 0 148.5 -61t55.5 -155t-42.5 -176t-121.5 -120zM416 302q0 56 -24 93t-77 37q-73 0 -112 -67.5t-39 -146.5q0 -56 24.5 -92.5t78.5 -36.5q51 0 86 35.5t49 82t14 95.5z" />
    <glyph glyph-name="R.sc" horiz-adv-x="494" 
d="M362 221l98 -221h-121l-82 204h-84l-29 -204h-102l73 520h227q58 0 95.5 -37t37.5 -95q0 -55 -31 -102t-82 -65zM317 433h-112l-20 -143h112q32 0 55 25t23 57q0 25 -16.5 43t-41.5 18z" />
    <glyph glyph-name="Racute.001" horiz-adv-x="494" 
d="M204 433l-20 -143h113q32 0 55 25t23 57q0 25 -16.5 43t-41.5 18h-113zM339 0l-83 205h-84l-28 -205h-102l73 520h226q59 0 96.5 -37t37.5 -95q0 -54 -31.5 -101.5t-81.5 -65.5l97 -221h-120zM349 603h-92l62 119h114z" />
    <glyph glyph-name="Rcaron.001" horiz-adv-x="494" 
d="M204 433l-20 -143h113q32 0 55 25t23 57q0 25 -16.5 43t-41.5 18h-113zM339 0l-83 205h-84l-28 -205h-102l73 520h226q59 0 96.5 -37t37.5 -95q0 -54 -31.5 -101.5t-81.5 -65.5l97 -221h-120zM305 653l51 71h67l-74 -126h-104l-38 126h68z" />
    <glyph glyph-name="Rcommaaccent.001" horiz-adv-x="494" 
d="M204 433l-20 -143h113q32 0 55 25t23 57q0 25 -16.5 43t-41.5 18h-113zM339 0l-83 205h-84l-28 -205h-102l73 520h226q59 0 96.5 -37t37.5 -95q0 -54 -31.5 -101.5t-81.5 -65.5l97 -221h-120zM181 -274h-1l-22 47q34 20 42 35l4 10h-5q-23 0 -38 17.5t-15 42.5
q0 30 23.5 49.5t55.5 19.5q29 0 44 -20.5t15 -50.5q0 -41 -32.5 -90t-70.5 -60z" />
    <glyph glyph-name="S.sc" horiz-adv-x="468" 
d="M33 45l55 92q77 -49 125 -49q38 0 69 19t31 56q0 21 -21 36.5t-51.5 26.5t-60.5 24.5t-51 39.5t-21 64q0 83 59.5 128.5t145.5 45.5q40 0 83.5 -12t63.5 -36l-45 -79q-16 16 -46.5 25.5t-56.5 9.5q-36 0 -67 -17t-31 -50q0 -20 21.5 -33.5t52 -24t61.5 -23t52.5 -38
t21.5 -62.5q0 -84 -64 -140.5t-150 -56.5q-44 0 -96 14t-80 40z" />
    <glyph glyph-name="Sacute.001" horiz-adv-x="467" 
d="M32 46l55 90q1 -1 18 -10t22 -11.5t19.5 -9.5t23 -9.5t20.5 -5t23 -2.5q38 0 69 19t31 56q0 21 -21 36.5t-51.5 26.5t-61 24.5t-51.5 39.5t-21 64q0 83 60 128.5t146 45.5q40 0 83 -12t63 -37l-44 -77q-49 35 -103 35q-36 0 -67.5 -17t-31.5 -50q0 -20 21.5 -34.5
t52.5 -24.5t62 -22.5t52.5 -38t21.5 -62.5q0 -84 -64 -140.5t-150 -56.5q-46 0 -97 14.5t-80 40.5zM344 589h-92l63 118h113z" />
    <glyph glyph-name="Scaron.001" horiz-adv-x="467" 
d="M32 46l55 90q1 -1 18 -10t22 -11.5t19.5 -9.5t23 -9.5t20.5 -5t23 -2.5q38 0 69 19t31 56q0 21 -21 36.5t-51.5 26.5t-61 24.5t-51.5 39.5t-21 64q0 83 60 128.5t146 45.5q40 0 83 -12t63 -37l-44 -77q-49 35 -103 35q-36 0 -67.5 -17t-31.5 -50q0 -20 21.5 -34.5
t52.5 -24.5t62 -22.5t52.5 -38t21.5 -62.5q0 -84 -64 -140.5t-150 -56.5q-46 0 -97 14.5t-80 40.5zM315 653l50 71h67l-73 -126h-104l-38 126h67z" />
    <glyph glyph-name="Scedilla.001" horiz-adv-x="467" 
d="M160 -5q-86 13 -128 51l55 90q1 -1 18 -10t22 -11.5t19.5 -9.5t23 -9.5t20.5 -5t23 -2.5q38 0 69 19t31 56q0 21 -21 36.5t-51.5 26.5t-61 24.5t-51.5 39.5t-21 64q0 83 60 128.5t146 45.5q40 0 83 -12t63 -37l-44 -77q-49 35 -103 35q-36 0 -67.5 -17t-31.5 -50
q0 -20 21.5 -34.5t52.5 -24.5t62 -22.5t52.5 -38t21.5 -62.5q0 -75 -52.5 -129t-127.5 -65l-52 -117l-105 7z" />
    <glyph glyph-name="Scircumflex.001" horiz-adv-x="467" 
d="M32 46l55 90q1 -1 18 -10t22 -11.5t19.5 -9.5t23 -9.5t20.5 -5t23 -2.5q38 0 69 19t31 56q0 21 -21 36.5t-51.5 26.5t-61 24.5t-51.5 39.5t-21 64q0 83 60 128.5t146 45.5q40 0 83 -12t63 -37l-44 -77q-49 35 -103 35q-36 0 -67.5 -17t-31.5 -50q0 -20 21.5 -34.5
t52.5 -24.5t62 -22.5t52.5 -38t21.5 -62.5q0 -84 -64 -140.5t-150 -56.5q-46 0 -97 14.5t-80 40.5zM318 665l-43 -67h-74l73 126h104l38 -126h-73z" />
    <glyph glyph-name="Scommaaccent.001" horiz-adv-x="467" 
d="M32 46l55 90q1 -1 18 -10t22 -11.5t19.5 -9.5t23 -9.5t20.5 -5t23 -2.5q38 0 69 19t31 56q0 21 -21 36.5t-51.5 26.5t-61 24.5t-51.5 39.5t-21 64q0 83 60 128.5t146 45.5q40 0 83 -12t63 -37l-44 -77q-49 35 -103 35q-36 0 -67.5 -17t-31.5 -50q0 -20 21.5 -34.5
t52.5 -24.5t62 -22.5t52.5 -38t21.5 -62.5q0 -84 -64 -140.5t-150 -56.5q-46 0 -97 14.5t-80 40.5zM162 -274h-1l-22 47q14 8 20 12t14 13t12 20h-4q-24 0 -39 17.5t-15 42.5q0 30 24 49.5t56 19.5q28 0 43 -21t15 -50q0 -41 -32.5 -90t-70.5 -60z" />
    <glyph glyph-name="T.sc" horiz-adv-x="502" 
d="M513 520l-13 -96h-159l-59 -424h-103l60 424h-160l13 96h421z" />
    <glyph glyph-name="Tbar.001" horiz-adv-x="510" 
d="M508 425h-159l-14 -103h137l-10 -72h-137l-35 -250h-103l35 250h-137l10 72h138l14 103h-160l14 95h420z" />
    <glyph glyph-name="Tcaron.001" horiz-adv-x="501" 
d="M341 425l-60 -425h-103l60 425h-159l13 95h421l-13 -95h-159zM321 653l51 71h67l-74 -126h-104l-38 126h68z" />
    <glyph glyph-name="Tcommaaccent.001" horiz-adv-x="501" 
d="M341 425l-60 -425h-103l60 425h-159l13 95h421l-13 -95h-159zM182 -274h-1l-21 47q14 9 19.5 12.5t13.5 12.5t12 20h-5q-23 0 -38 17.5t-15 42.5q0 30 23.5 49t55.5 19q28 0 43.5 -20.5t15.5 -49.5q0 -41 -32.5 -90.5t-70.5 -59.5z" />
    <glyph glyph-name="U.sc" horiz-adv-x="505" 
d="M223 -9q-78 0 -124.5 43.5t-46.5 120.5q0 19 4 57l44 308h101l-46 -324q-1 -6 -1 -19q0 -37 23 -60.5t60 -23.5q45 0 75 29t36 74l46 324h100l-45 -324q-13 -91 -74 -148t-152 -57z" />
    <glyph glyph-name="Uacute.001" horiz-adv-x="505" 
d="M494 520l-44 -308q-13 -99 -71 -160t-156 -61q-78 0 -124.5 43.5t-46.5 120.5q0 19 4 57l44 308h100l-45 -324l-1 -7q0 -96 83 -96q43 0 74 30t37 73l46 324h100zM438 722l-84 -119h-92l62 119h114z" />
    <glyph glyph-name="Ubreve.001" horiz-adv-x="505" 
d="M394 520h100l-44 -308q-13 -99 -71 -160t-156 -61q-78 0 -124.5 43.5t-46.5 120.5q0 19 4 57l44 307h100l-43 -307q0 -1 -1.5 -14.5t-1.5 -20.5q0 -37 23 -60.5t60 -23.5q43 0 74 29.5t37 73.5zM365 706h68q-7 -49 -41.5 -79.5t-83.5 -30.5q-42 0 -69 24t-27 66
q0 13 1 20h68q-1 -5 -1 -14q0 -17 10 -27t26 -10q21 0 34 14.5t15 36.5z" />
    <glyph glyph-name="Ucircumflex.001" horiz-adv-x="505" 
d="M394 520h100l-44 -308q-13 -99 -71 -160t-156 -61q-78 0 -124.5 43.5t-46.5 120.5q0 19 4 57l44 307h100l-43 -307q0 -1 -1.5 -14.5t-1.5 -20.5q0 -37 23 -60.5t60 -23.5q43 0 74 29.5t37 73.5zM317 665l-43 -67h-74l73 126h104l39 -126h-74z" />
    <glyph glyph-name="Udieresis.001" horiz-adv-x="505" 
d="M394 520h100l-44 -308q-13 -99 -71 -160t-156 -61q-78 0 -124.5 43.5t-46.5 120.5q0 19 4 57l44 307h100l-43 -307q0 -1 -1.5 -14.5t-1.5 -20.5q0 -37 23 -60.5t60 -23.5q43 0 74 29.5t37 73.5zM399 596q-20 0 -34 13.5t-14 33.5q0 25 19.5 44.5t44.5 19.5q20 0 34 -13.5
t14 -34.5q0 -25 -19 -44t-45 -19zM216 596q-20 0 -34 13.5t-14 33.5q0 25 19 44.5t44 19.5q21 0 35 -13.5t14 -34.5q0 -25 -19.5 -44t-44.5 -19z" />
    <glyph glyph-name="Ugrave.001" horiz-adv-x="505" 
d="M494 520l-44 -308q-13 -99 -71 -160t-156 -61q-78 0 -124.5 43.5t-46.5 120.5q0 19 4 57l44 308h100l-45 -324l-1 -7q0 -96 83 -96q43 0 74 30t37 73l46 324h100zM344 722l29 -119h-92l-51 119h114z" />
    <glyph glyph-name="Uhungarumlaut.001" horiz-adv-x="532" 
d="M394 520h100l-46 -324q-13 -91 -74 -148t-151 -57q-80 0 -126 44t-46 123q0 20 3 38l46 324h100l-45 -324q-1 -6 -1 -19q0 -38 22.5 -61t60.5 -23q45 0 75 29t36 74zM521 721l-84 -119h-92l60 119h116zM345 721l-83 -119h-92l60 119h115z" />
    <glyph glyph-name="Umacron.001" horiz-adv-x="519" 
d="M394 520h100l-44 -308q-13 -99 -71 -160t-156 -61q-78 0 -124.5 43.5t-46.5 120.5q0 19 4 57l44 307h100l-43 -307q0 -1 -1.5 -14.5t-1.5 -20.5q0 -37 23 -60.5t60 -23.5q43 0 74 29.5t37 73.5zM497 621h-374l10 72h374z" />
    <glyph glyph-name="Uogonek.001" horiz-adv-x="505" 
d="M394 519h100l-44 -307q-23 -163 -147 -208q-32 -30 -32 -58q0 -31 25 -31q13 0 29 9l16 -44q-22 -21 -66 -21q-31 0 -54 17t-23 47q0 34 29 68q-80 0 -127.5 42.5t-47.5 121.5q0 19 4 57l44 307h100l-45 -323q-1 -7 -1 -19q0 -38 22.5 -61t60.5 -23q48 0 77 31t35 80z
" />
    <glyph glyph-name="Uring.001" horiz-adv-x="505" 
d="M394 520h100l-44 -308q-13 -99 -71 -160t-156 -61q-78 0 -124.5 43.5t-46.5 120.5q0 19 4 57l44 307h100l-43 -307q0 -1 -1.5 -14.5t-1.5 -20.5q0 -37 23 -60.5t60 -23.5q43 0 74 29.5t37 73.5zM278 651q0 -14 9.5 -23.5t22.5 -9.5q17 0 30.5 13t13.5 30q0 14 -9.5 23
t-23.5 9q-17 0 -30 -13t-13 -29zM305 573q-31 0 -51.5 20t-20.5 51q0 38 28.5 65.5t66.5 27.5q30 0 51 -19.5t21 -49.5q0 -38 -28.5 -66.5t-66.5 -28.5z" />
    <glyph glyph-name="Utilde.001" horiz-adv-x="522" 
d="M394 520h100l-44 -308q-13 -99 -71 -160t-156 -61q-78 0 -124.5 43.5t-46.5 120.5q0 19 4 57l44 307h100l-43 -307q0 -1 -1.5 -14.5t-1.5 -20.5q0 -37 23 -60.5t60 -23.5q43 0 74 29.5t37 73.5zM145 647q56 75 127 75q20 0 55.5 -13t53.5 -13q38 0 55 29l72 -39l-6 -8
q-5 -9 -13.5 -20t-20.5 -22.5t-30 -19t-38 -7.5q-23 0 -62 14.5t-58 14.5q-40 0 -70 -36z" />
    <glyph glyph-name="V.sc" horiz-adv-x="503" 
d="M536 520l-246 -520h-118l-99 520h117l67 -341l162 341h117z" />
    <glyph glyph-name="W.sc" horiz-adv-x="862" 
d="M895 520l-245 -520h-118l-73 345l-168 -345h-118l-100 520h117l65 -354l170 343h114l76 -343l163 354h117z" />
    <glyph glyph-name="Wacute.001" horiz-adv-x="861" 
d="M786 520h109l-246 -520h-117l-69 376l-173 -376h-117l-100 520h109l71 -372l173 366h114l72 -366zM634 723l-84 -118h-92l62 118h114z" />
    <glyph glyph-name="Wcircumflex.001" horiz-adv-x="861" 
d="M786 520h109l-246 -520h-117l-69 376l-173 -376h-117l-100 520h109l71 -372l172 364h115l72 -364zM511 664l-43 -67h-74l74 127h104l37 -127h-72z" />
    <glyph glyph-name="Wdieresis.001" horiz-adv-x="861" 
d="M786 520h109l-246 -520h-117l-69 376l-173 -376h-117l-101 520h110l71 -372l172 364h115l72 -364zM609 707q20 0 34 -13.5t14 -34.5q0 -25 -19 -44t-45 -19q-20 0 -34 13.5t-14 33.5q0 25 19.5 44.5t44.5 19.5zM426 707q20 0 34 -14t14 -34q0 -25 -19 -44t-45 -19
q-20 0 -34 13.5t-14 33.5q0 25 19 44.5t45 19.5z" />
    <glyph glyph-name="Wgrave.001" horiz-adv-x="861" 
d="M786 520h109l-246 -520h-117l-69 376l-173 -376h-117l-101 520h110l71 -372l172 364h115l72 -364zM512 722l29 -119h-92l-51 119h114z" />
    <glyph glyph-name="X.sc" horiz-adv-x="564" 
d="M498 0h-106l-101 196l-157 -196h-106l203 274l-113 246h106l87 -179l139 179h106l-184 -246z" />
    <glyph glyph-name="Y.sc" horiz-adv-x="482" 
d="M515 520l-218 -292l-32 -228h-103l32 228l-136 292h105l96 -193l152 193h104z" />
    <glyph glyph-name="Yacute.001" horiz-adv-x="481" 
d="M410 520h105l-219 -292l-32 -228h-102l32 228l-136 292h104l97 -194zM428 722l-84 -118h-93l63 118h114z" />
    <glyph glyph-name="Ycircumflex.001" horiz-adv-x="481" 
d="M410 520h105l-219 -292l-32 -228h-102l32 228l-137 292h105l97 -194zM306 665l-43 -67h-74l74 126h104l37 -126h-72z" />
    <glyph glyph-name="Ydieresis.001" horiz-adv-x="481" 
d="M410 520h105l-219 -292l-32 -228h-102l32 228l-137 292h105l97 -194zM205 597q-20 0 -34 13.5t-14 33.5q0 25 19 44.5t44 19.5q21 0 35 -13.5t14 -34.5q0 -25 -19.5 -44t-44.5 -19zM388 597q-20 0 -34 13.5t-14 33.5q0 25 19 44.5t44 19.5q21 0 35 -13.5t14 -34.5
q0 -25 -19.5 -44t-44.5 -19z" />
    <glyph glyph-name="Ygrave.001" horiz-adv-x="481" 
d="M410 520h105l-219 -292l-32 -228h-102l32 228l-136 292h104l97 -194zM230 722h114l29 -119h-92z" />
    <glyph glyph-name="Z.sc" horiz-adv-x="521" 
d="M498 432l-306 -343h258l-13 -89h-395l12 88l310 343h-248l12 89h382z" />
    <glyph glyph-name="Zacute.001" horiz-adv-x="521" 
d="M510 520l-13 -88l-306 -343h258l-12 -89h-395l12 88l310 343h-248l12 89h382zM455 722l-84 -119h-92l62 119h114z" />
    <glyph glyph-name="Zcaron.001" horiz-adv-x="521" 
d="M510 520l-13 -88l-306 -343h258l-12 -89h-395l12 88l310 343h-248l12 89h382zM344 653l51 71h67l-73 -126h-104l-38 126h67z" />
    <glyph glyph-name="Zdotaccent.001" horiz-adv-x="521" 
d="M510 520l-13 -88l-306 -343h258l-12 -89h-395l12 88l310 343h-248l12 89h382zM339 594q-21 0 -35.5 14.5t-14.5 36.5q0 26 20 46.5t47 20.5q22 0 36.5 -14.5t14.5 -36.5q0 -26 -20.5 -46.5t-47.5 -20.5z" />
    <glyph glyph-name="ampersand.001" horiz-adv-x="565" 
d="M233 84q47 0 90 33q-63 85 -93 144q-34 -13 -58 -40.5t-24 -60.5q0 -34 25 -55t60 -21zM197 335q-11 33 -11 64q0 67 55.5 103.5t125.5 36.5q21 0 57.5 -8.5t43.5 -20.5q-8 -9 -15 -21t-16 -27.5t-13 -22.5q-5 9 -25.5 13.5t-35.5 4.5q-26 0 -47 -18t-21 -44
q0 -54 107 -206q36 58 44 124h90q-14 -112 -80 -196q46 -63 92 -118h-134q-21 24 -39 48q-72 -51 -154 -51q-69 0 -119.5 38t-50.5 105q0 64 42 117.5t104 78.5z" />
    <glyph glyph-name="cent.001" horiz-adv-x="357" 
d="M288 391l22 -53q-39 -37 -96 -49l-7 -51h-54l7 50q-51 10 -79 47t-28 90q0 70 42.5 126.5t110.5 67.5l8 51h54l-8 -52q59 -10 83 -46l-37 -53q-8 14 -32 23t-43 9q-40 0 -70 -35t-30 -76q0 -33 20 -56.5t53 -23.5q21 0 45 9t39 22z" />
    <glyph glyph-name="check" horiz-adv-x="622" 
d="M634 628l-423 -638l-152 363h108l70 -175l281 450h116z" />
    <glyph glyph-name="circle.001" horiz-adv-x="287" 
d="M179 373q-32 0 -57.5 -25t-25.5 -58q0 -27 18 -44t45 -17q32 0 57 24.5t25 56.5q0 27 -17.5 45t-44.5 18zM89 290q0 35 28 62.5t63 27.5q29 0 49 -20t20 -49q0 -36 -27.5 -63t-63.5 -27q-29 0 -49 20t-20 49z" />
    <glyph glyph-name="commaaccent" horiz-adv-x="218" 
d="M56 -138q0 32 25 55t58 23q29 0 43.5 -21t14.5 -51q0 -44 -33 -94.5t-75 -62.5l-21 48q16 6 30 20t19 31q-27 -2 -44 11.5t-17 40.5z" />
    <glyph glyph-name="copyright.001" horiz-adv-x="476" 
d="M282 657q75 0 124.5 -49.5t49.5 -124.5q0 -89 -70.5 -157.5t-159.5 -68.5q-76 0 -125.5 49t-49.5 125q0 89 71 157.5t160 68.5zM229 281q79 0 141 60.5t62 138.5q0 67 -43.5 110t-109.5 43q-79 0 -141 -60t-62 -139q0 -66 43.5 -109.5t109.5 -43.5zM256 390q34 0 60 23
l15 -39q-20 -14 -29 -19.5t-26 -11.5t-35 -6q-44 0 -71 28t-27 72q0 58 38.5 99t95.5 41q21 0 44.5 -9.5t33.5 -24.5l-26 -39q-18 23 -51 23q-31 0 -54.5 -23.5t-23.5 -54.5q0 -26 15.5 -42.5t40.5 -16.5z" />
    <glyph glyph-name="currency.001" horiz-adv-x="420" 
d="M153 447q0 -27 18 -45t45 -18q33 0 57 25.5t24 59.5q0 27 -16.5 44.5t-43.5 17.5q-33 0 -58.5 -25.5t-25.5 -58.5zM373 350l-60 -52l-40 44q-31 -17 -65 -17q-35 0 -61 16l-50 -43l-46 52l53 46q-8 19 -8 40q0 43 24 83l-39 45l61 54l38 -45q31 17 65 17t61 -18l52 46
l45 -54l-55 -47q7 -18 7 -39q0 -44 -24 -80z" />
    <glyph glyph-name="d.001" horiz-adv-x="401" 
d="M288 600l17 120h82l-61 -431h-81l2 13q-32 -19 -73 -19q-57 0 -89 42t-32 101q0 79 48 136t125 57q34 0 62 -19zM257 380l20 138q-6 10 -20.5 16.5t-26.5 6.5q-39 0 -62 -34.5t-23 -75.5q0 -32 14 -54t44 -22q12 0 29.5 7.5t24.5 17.5z" />
    <glyph glyph-name="dollar.001" horiz-adv-x="326" 
d="M194 291l-6 -41h-61l5 34q-21 1 -53.5 11.5t-39.5 23.5l36 59q50 -32 80 -32q23 0 42.5 12.5t19.5 33.5q0 16 -20.5 28.5t-44.5 20t-44.5 26.5t-20.5 47q0 42 25.5 70.5t66.5 37.5l6 40h61l-5 -38q18 -2 40 -10t31 -20l-30 -53q-9 11 -29.5 18t-36.5 7q-23 0 -41.5 -11
t-18.5 -33q0 -13 21 -23t46 -17t46 -26t21 -48q0 -41 -27.5 -73.5t-68.5 -43.5z" />
    <glyph glyph-name="doublecheck" horiz-adv-x="844" 
d="M745 612h110l-419 -618l-89 206l-136 -206l-152 363h108l70 -174l270 429h115l-209 -317l49 -112z" />
    <glyph glyph-name="eight.tx" horiz-adv-x="491" 
d="M390 343q76 -43 76 -135q0 -94 -69.5 -156.5t-164.5 -62.5q-76 0 -128.5 43.5t-52.5 117.5q0 62 34 114t91 79q-49 38 -49 102q0 77 58 128.5t136 51.5q63 0 106.5 -36t43.5 -98q0 -45 -21.5 -84.5t-59.5 -63.5zM314 554q-41 0 -71 -28.5t-30 -69.5q0 -32 22.5 -53.5
t55.5 -21.5q39 0 71.5 30.5t32.5 69.5q0 34 -23 53.5t-58 19.5zM245 82q48 0 83.5 34t35.5 82q0 38 -25.5 65t-63.5 27q-45 0 -81.5 -38t-36.5 -83q0 -39 24.5 -63t63.5 -24z" />
    <glyph glyph-name="five.tx" horiz-adv-x="496" 
d="M42 -44l54 97q65 -47 134 -47q48 0 87.5 33t39.5 80q0 24 -8.5 41.5t-26 27t-35 15.5t-44 7.5t-44.5 1.5t-44.5 -1t-36.5 -1l54 309h315l-14 -99h-224l-18 -111q41 1 73 -1t66.5 -11.5t57 -26.5t37 -48.5t14.5 -75.5q0 -104 -75 -176.5t-180 -72.5q-44 0 -95 16.5
t-87 42.5z" />
    <glyph glyph-name="four.tx" horiz-adv-x="546" 
d="M532 155l-14 -99h-93l-21 -149h-118l21 149h-268l12 85l293 378h146l-52 -364h94zM172 155h149l33 239z" />
    <glyph glyph-name="franc.001" horiz-adv-x="340" 
d="M178 526l-8 -56h116l-9 -64h-116l-6 -45h58l-8 -54h-58l-5 -40h-68l6 40h-38l8 54h38l32 229h228l-9 -64h-161z" />
    <glyph glyph-name="h.001" horiz-adv-x="348" 
d="M329 473l-26 -183h-83l24 168q2 18 2 25q0 48 -40 48q-26 0 -41 -31q-15 -13 -19 -42l-23 -168h-84l60 431h84l-19 -135q31 32 78 32q45 0 68 -26t23 -71q0 -16 -4 -48z" />
    <glyph glyph-name="lira.001" horiz-adv-x="313" 
d="M266 477l-7 -50h-68q-11 -52 -32 -77h130l-9 -62h-225l8 62h14q18 0 30.5 26.5t17.5 50.5h-51l7 50h51q5 57 40 100t90 43q25 0 50 -10t35 -29l-31 -47q-20 25 -56 25q-47 0 -60 -82h66z" />
    <glyph glyph-name="n.001" horiz-adv-x="348" 
d="M330 477l-27 -188h-83l24 169q2 16 2 25q0 48 -40 48q-26 0 -41 -22.5t-19 -50.5l-24 -169h-83l45 323h83l-3 -27q32 33 79 33q45 0 68 -26t23 -71q0 -14 -4 -44z" />
    <glyph glyph-name="nine.tx" horiz-adv-x="486" 
d="M212 138q-71 -1 -116 43.5t-45 115.5q0 99 68 164.5t167 65.5q78 0 129 -43.5t51 -120.5q0 -72 -45 -149q-22 -37 -51 -80.5t-50.5 -74.5t-56.5 -80t-53 -74h-122l160 239q-18 -6 -36 -6zM273 436q-49 0 -82.5 -37t-33.5 -87q0 -41 23 -66.5t63 -25.5q49 0 82.5 38.5
t33.5 88.5q0 40 -23.5 64.5t-62.5 24.5z" />
    <glyph glyph-name="one.tx" horiz-adv-x="400" 
d="M292 104h113l-15 -105h-351l14 105h121l42 298l-121 -46l-7 98q131 64 187 64h75z" />
    <glyph glyph-name="quadrate" horiz-adv-x="276" 
d="M39 189l27 196h197l-28 -196h-196z" />
    <glyph glyph-name="quadrate.001" horiz-adv-x="276" 
d="M224 355h-128l-18 -129h128zM263 389l-28 -197h-196l27 197h197z" />
    <glyph glyph-name="r.001" horiz-adv-x="253" 
d="M143 452l-23 -163h-83l45 323h84l-4 -26q33 33 76 33t52 -13q-22 -38 -35 -56q-2 -3 -11 -11t-12 -15q-14 7 -25 7q-52 0 -64 -79z" />
    <glyph glyph-name="registered.001" horiz-adv-x="476" 
d="M282 657q75 0 124.5 -49t49.5 -124q0 -90 -70.5 -158t-159.5 -68q-76 0 -125.5 49t-49.5 125q0 89 70.5 157t160.5 68zM229 280q79 0 141.5 60.5t62.5 139.5q0 67 -43.5 111t-110.5 44q-80 0 -142 -60.5t-62 -140.5q0 -67 43.5 -110.5t110.5 -43.5zM338 506
q0 -20 -11.5 -38.5t-30.5 -26.5l38 -87h-54q-2 5 -33 79h-25l-11 -79h-47l29 206h90q25 0 40 -14.5t15 -39.5zM228 473h39q10 0 17.5 8t7.5 18q0 21 -19 21h-38z" />
    <glyph glyph-name="s.001" horiz-adv-x="335" 
d="M39 319l41 66q37 -26 76 -26q18 0 32.5 10t14.5 27q0 13 -18.5 25.5t-40 21t-40 25.5t-18.5 40q0 53 43.5 82.5t98.5 29.5q25 0 52.5 -8t39.5 -24l-33 -55q-33 20 -63 20q-17 0 -32.5 -9.5t-15.5 -26.5q0 -13 19 -25.5t41 -21.5t41 -28.5t19 -45.5q0 -50 -40.5 -81
t-92.5 -31q-57 0 -124 35z" />
    <glyph glyph-name="seven.tx" horiz-adv-x="441" 
d="M77 418l14 101h369l-13 -96l-297 -516h-123l299 511h-249z" />
    <glyph glyph-name="six.tx" horiz-adv-x="479" 
d="M299 380q75 0 121 -41.5t46 -115.5q0 -99 -67.5 -166t-166.5 -67q-79 0 -130 43.5t-51 120.5q0 70 45 150q28 48 60.5 96t84 119.5t66.5 92.5h117l-159 -239q14 7 34 7zM244 81q49 0 82.5 38t33.5 87q0 40 -23 66t-62 26q-50 0 -83.5 -39t-33.5 -89q0 -40 23.5 -64.5
t62.5 -24.5z" />
    <glyph glyph-name="sterling.001" horiz-adv-x="316" 
d="M262 476l-6 -49h-67q-11 -52 -33 -77h130l-9 -62h-226l9 62h18q15 0 27.5 27.5t15.5 49.5h-50l7 49h51q5 57 40.5 100t90.5 43q24 0 51 -10t32 -29q-5 -9 -16 -25.5t-14 -21.5q-23 26 -57 26q-47 0 -60 -83h66z" />
    <glyph glyph-name="t.001" horiz-adv-x="293" 
d="M156 283q-40 0 -60.5 25t-20.5 66q0 23 3.5 51.5t10 65t8.5 51.5h-46l10 70h46l11 82h82l-11 -82h90l-10 -70h-90q-2 -12 -7.5 -45.5t-8.5 -57.5t-3 -46q0 -38 23 -38q17 0 32 12l18 -59q-39 -26 -77 -25z" />
    <glyph glyph-name="three.tx" horiz-adv-x="510" 
d="M336 283q61 0 101 -45.5t40 -107.5q0 -104 -76.5 -168.5t-182.5 -64.5q-45 0 -95 17t-84 46l49 86q61 -43 126 -43q54 0 98 26t44 78q0 16 -6 29t-14.5 21t-23.5 13.5t-27 8.5t-32 4l-30 1.5t-30 0t-25 -0.5l13 88l169 148h-219l14 99h352l-14 -99z" />
    <glyph glyph-name="triangle.001" horiz-adv-x="238" 
d="M95 336l-13 -91l78 46zM69 399l156 -108l-186 -108z" />
    <glyph glyph-name="two.tx" horiz-adv-x="496" 
d="M356 365q0 32 -25 47t-60 15q-30 0 -72 -13t-67 -30l-24 84q85 62 203 62q65 0 117.5 -44t52.5 -112q0 -52 -32.5 -93.5t-73 -64t-83.5 -52t-58 -57.5h234l-15 -107h-414l6 51q6 49 32 89t60.5 63.5t73 45.5t71 37t53.5 35.5t21 43.5z" />
    <glyph glyph-name="yen.001" horiz-adv-x="327" 
d="M294 449l-6 -41h-67l-2 -15h67l-6 -40h-67l-9 -62h-66l9 62h-67l6 40h66l2 15h-66l6 41h56l-77 164h67l59 -117l93 117h68l-124 -164h58z" />
    <glyph glyph-name="zero.tx" horiz-adv-x="506" 
d="M247 94q46 0 77.5 37.5t43 82.5t11.5 90q0 51 -19.5 86.5t-65.5 35.5q-35 0 -62 -21.5t-41.5 -55t-22 -68t-7.5 -66.5q0 -51 19.5 -86t66.5 -35zM308 531q85 0 131.5 -63t46.5 -151q0 -56 -17 -112.5t-47.5 -105t-80 -79t-109.5 -30.5q-86 0 -132.5 62t-46.5 151
q0 76 28.5 149.5t88.5 126t138 52.5z" />
    </font>
</defs>
</svg>
